<svg width="576" height="373" viewBox="0 0 576 373" fill="none" xmlns="http://www.w3.org/2000/svg">
<ellipse cx="410.467" cy="2.4617" rx="2.46661" ry="2.4617" fill="white"/>
<ellipse cx="425.267" cy="2.4617" rx="2.46661" ry="2.4617" fill="white"/>
<ellipse cx="454.863" cy="2.4617" rx="2.46661" ry="2.4617" fill="white"/>
<ellipse cx="469.664" cy="2.4617" rx="2.46661" ry="2.4617" fill="white"/>
<ellipse cx="484.463" cy="2.4617" rx="2.46661" ry="2.4617" fill="white"/>
<ellipse cx="499.265" cy="2.4617" rx="2.46661" ry="2.4617" fill="white"/>
<ellipse cx="514.062" cy="2.4617" rx="2.46661" ry="2.4617" fill="white"/>
<ellipse cx="410.465" cy="17.2312" rx="2.46661" ry="2.4617" fill="white"/>
<ellipse cx="425.269" cy="17.2312" rx="2.46661" ry="2.4617" fill="white"/>
<ellipse cx="440.064" cy="17.2312" rx="2.46661" ry="2.4617" fill="white"/>
<ellipse cx="469.664" cy="17.2312" rx="2.46661" ry="2.4617" fill="white"/>
<ellipse cx="484.463" cy="17.2312" rx="2.46661" ry="2.4617" fill="white"/>
<ellipse cx="499.265" cy="17.2312" rx="2.46661" ry="2.4617" fill="white"/>
<ellipse cx="514.064" cy="17.2312" rx="2.46661" ry="2.4617" fill="white"/>
<ellipse cx="410.465" cy="32.0027" rx="2.46661" ry="2.4617" fill="white"/>
<ellipse cx="425.269" cy="32.0027" rx="2.46661" ry="2.4617" fill="white"/>
<ellipse cx="440.064" cy="32.0027" rx="2.46661" ry="2.4617" fill="white"/>
<ellipse cx="454.863" cy="32.0027" rx="2.46661" ry="2.4617" fill="white"/>
<ellipse cx="484.463" cy="32.0027" rx="2.46661" ry="2.4617" fill="white"/>
<ellipse cx="499.265" cy="32.0027" rx="2.46661" ry="2.4617" fill="white"/>
<ellipse cx="514.064" cy="32.0027" rx="2.46661" ry="2.4617" fill="white"/>
<ellipse cx="410.465" cy="46.7732" rx="2.46661" ry="2.4617" fill="white"/>
<ellipse cx="425.269" cy="46.7732" rx="2.46661" ry="2.4617" fill="white"/>
<ellipse cx="440.064" cy="46.7732" rx="2.46661" ry="2.4617" fill="white"/>
<ellipse cx="454.863" cy="46.7732" rx="2.46661" ry="2.4617" fill="white"/>
<ellipse cx="469.664" cy="46.7732" rx="2.46661" ry="2.4617" fill="white"/>
<ellipse cx="499.265" cy="46.7732" rx="2.46661" ry="2.4617" fill="white"/>
<ellipse cx="514.064" cy="46.7732" rx="2.46661" ry="2.4617" fill="white"/>
<ellipse cx="410.465" cy="61.5418" rx="2.46661" ry="2.4617" fill="white"/>
<ellipse cx="425.269" cy="61.5418" rx="2.46661" ry="2.4617" fill="white"/>
<ellipse cx="440.064" cy="61.5418" rx="2.46661" ry="2.4617" fill="white"/>
<ellipse cx="454.863" cy="61.5418" rx="2.46661" ry="2.4617" fill="white"/>
<ellipse cx="469.664" cy="61.5418" rx="2.46661" ry="2.4617" fill="white"/>
<ellipse cx="484.463" cy="61.5418" rx="2.46661" ry="2.4617" fill="white"/>
<ellipse cx="499.265" cy="61.5418" rx="2.46661" ry="2.4617" fill="white"/>
<ellipse cx="514.064" cy="61.5415" rx="2.46661" ry="2.4617" fill="white"/>
<ellipse cx="410.465" cy="76.3123" rx="2.46661" ry="2.4617" fill="white"/>
<ellipse cx="425.269" cy="76.3123" rx="2.46661" ry="2.4617" fill="white"/>
<ellipse cx="440.064" cy="76.3123" rx="2.46661" ry="2.4617" fill="white"/>
<ellipse cx="454.863" cy="76.3123" rx="2.46661" ry="2.4617" fill="white"/>
<ellipse cx="469.664" cy="76.3123" rx="2.46661" ry="2.4617" fill="white"/>
<ellipse cx="484.463" cy="76.3123" rx="2.46661" ry="2.4617" fill="white"/>
<ellipse cx="514.064" cy="76.3123" rx="2.46661" ry="2.4617" fill="white"/>
<ellipse cx="410.465" cy="91.0828" rx="2.46661" ry="2.4617" fill="white"/>
<ellipse cx="425.269" cy="91.0828" rx="2.46661" ry="2.4617" fill="white"/>
<ellipse cx="440.064" cy="91.0828" rx="2.46661" ry="2.4617" fill="white"/>
<ellipse cx="454.863" cy="91.0828" rx="2.46661" ry="2.4617" fill="white"/>
<ellipse cx="469.664" cy="91.0828" rx="2.46661" ry="2.4617" fill="white"/>
<ellipse cx="484.463" cy="91.0828" rx="2.46661" ry="2.4617" fill="white"/>
<ellipse cx="499.265" cy="91.0828" rx="2.46661" ry="2.4617" fill="white"/>
<ellipse cx="410.465" cy="105.852" rx="2.46661" ry="2.4617" fill="white"/>
<ellipse cx="425.269" cy="105.852" rx="2.46661" ry="2.4617" fill="white"/>
<ellipse cx="440.064" cy="105.852" rx="2.46661" ry="2.4617" fill="white"/>
<ellipse cx="454.863" cy="105.852" rx="2.46661" ry="2.4617" fill="white"/>
<ellipse cx="469.664" cy="105.852" rx="2.46661" ry="2.4617" fill="white"/>
<ellipse cx="484.463" cy="105.852" rx="2.46661" ry="2.4617" fill="white"/>
<ellipse cx="499.265" cy="105.852" rx="2.46661" ry="2.4617" fill="white"/>
<ellipse cx="514.064" cy="105.852" rx="2.46661" ry="2.4617" fill="white"/>
<ellipse cx="410.465" cy="120.623" rx="2.46661" ry="2.4617" fill="white"/>
<ellipse cx="425.269" cy="120.623" rx="2.46661" ry="2.4617" fill="white"/>
<ellipse cx="440.064" cy="120.623" rx="2.46661" ry="2.4617" fill="white"/>
<ellipse cx="454.863" cy="120.623" rx="2.46661" ry="2.4617" fill="white"/>
<ellipse cx="469.664" cy="120.623" rx="2.46661" ry="2.4617" fill="white"/>
<ellipse cx="484.463" cy="120.623" rx="2.46661" ry="2.4617" fill="white"/>
<ellipse cx="499.265" cy="120.623" rx="2.46661" ry="2.4617" fill="white"/>
<ellipse cx="514.064" cy="120.623" rx="2.46661" ry="2.4617" fill="white"/>
<ellipse cx="410.465" cy="135.393" rx="2.46661" ry="2.4617" fill="white"/>
<ellipse cx="425.269" cy="135.393" rx="2.46661" ry="2.4617" fill="white"/>
<ellipse cx="440.064" cy="135.393" rx="2.46661" ry="2.4617" fill="white"/>
<ellipse cx="454.863" cy="135.393" rx="2.46661" ry="2.4617" fill="white"/>
<ellipse cx="469.664" cy="135.393" rx="2.46661" ry="2.4617" fill="white"/>
<ellipse cx="484.463" cy="135.393" rx="2.46661" ry="2.4617" fill="white"/>
<ellipse cx="499.265" cy="135.393" rx="2.46661" ry="2.4617" fill="white"/>
<ellipse cx="514.064" cy="135.393" rx="2.46661" ry="2.4617" fill="white"/>
<ellipse cx="410.465" cy="150.163" rx="2.46661" ry="2.4617" fill="white"/>
<ellipse cx="425.269" cy="150.163" rx="2.46661" ry="2.4617" fill="white"/>
<ellipse cx="440.064" cy="150.163" rx="2.46661" ry="2.4617" fill="white"/>
<ellipse cx="454.863" cy="150.163" rx="2.46661" ry="2.4617" fill="white"/>
<ellipse cx="469.664" cy="150.163" rx="2.46661" ry="2.4617" fill="white"/>
<ellipse cx="484.463" cy="150.163" rx="2.46661" ry="2.4617" fill="white"/>
<ellipse cx="499.265" cy="150.163" rx="2.46661" ry="2.4617" fill="white"/>
<ellipse cx="514.064" cy="150.163" rx="2.46661" ry="2.4617" fill="white"/>
<ellipse cx="410.465" cy="164.934" rx="2.46661" ry="2.4617" fill="white"/>
<ellipse cx="425.269" cy="164.934" rx="2.46661" ry="2.4617" fill="white"/>
<ellipse cx="440.064" cy="164.934" rx="2.46661" ry="2.4617" fill="white"/>
<ellipse cx="454.863" cy="164.934" rx="2.46661" ry="2.4617" fill="white"/>
<ellipse cx="469.664" cy="164.934" rx="2.46661" ry="2.4617" fill="white"/>
<ellipse cx="484.463" cy="164.934" rx="2.46661" ry="2.4617" fill="white"/>
<ellipse cx="499.265" cy="164.934" rx="2.46661" ry="2.4617" fill="white"/>
<ellipse cx="514.064" cy="164.934" rx="2.46661" ry="2.4617" fill="white"/>
<ellipse cx="528.271" cy="2.4617" rx="2.46661" ry="2.4617" fill="white"/>
<ellipse cx="543.07" cy="2.4617" rx="2.46661" ry="2.4617" fill="white"/>
<ellipse cx="557.867" cy="2.4617" rx="2.46661" ry="2.4617" fill="white"/>
<ellipse cx="572.67" cy="2.4617" rx="2.46661" ry="2.4617" fill="white"/>
<ellipse cx="528.271" cy="17.2312" rx="2.46661" ry="2.4617" fill="white"/>
<ellipse cx="543.074" cy="17.2312" rx="2.46661" ry="2.4617" fill="white"/>
<ellipse cx="557.867" cy="17.2312" rx="2.46661" ry="2.4617" fill="white"/>
<ellipse cx="572.67" cy="17.2312" rx="2.46661" ry="2.4617" fill="white"/>
<ellipse cx="528.271" cy="32.0027" rx="2.46661" ry="2.4617" fill="white"/>
<ellipse cx="543.074" cy="32.0027" rx="2.46661" ry="2.4617" fill="white"/>
<ellipse cx="557.867" cy="32.0027" rx="2.46661" ry="2.4617" fill="white"/>
<ellipse cx="572.67" cy="32.0027" rx="2.46661" ry="2.4617" fill="white"/>
<ellipse cx="528.271" cy="46.7732" rx="2.46661" ry="2.4617" fill="white"/>
<ellipse cx="543.074" cy="46.7732" rx="2.46661" ry="2.4617" fill="white"/>
<ellipse cx="557.867" cy="46.7732" rx="2.46661" ry="2.4617" fill="white"/>
<ellipse cx="572.67" cy="46.7732" rx="2.46661" ry="2.4617" fill="white"/>
<ellipse cx="528.271" cy="61.5418" rx="2.46661" ry="2.4617" fill="white"/>
<ellipse cx="543.074" cy="61.5418" rx="2.46661" ry="2.4617" fill="white"/>
<ellipse cx="557.867" cy="61.5418" rx="2.46661" ry="2.4617" fill="white"/>
<ellipse cx="572.67" cy="61.5415" rx="2.46661" ry="2.4617" fill="white"/>
<ellipse cx="528.271" cy="76.3123" rx="2.46661" ry="2.4617" fill="white"/>
<ellipse cx="543.074" cy="76.3123" rx="2.46661" ry="2.4617" fill="white"/>
<ellipse cx="557.867" cy="76.3123" rx="2.46661" ry="2.4617" fill="white"/>
<ellipse cx="572.67" cy="76.3123" rx="2.46661" ry="2.4617" fill="white"/>
<ellipse cx="528.271" cy="91.0828" rx="2.46661" ry="2.4617" fill="white"/>
<ellipse cx="543.074" cy="91.0828" rx="2.46661" ry="2.4617" fill="white"/>
<ellipse cx="557.867" cy="91.0828" rx="2.46661" ry="2.4617" fill="white"/>
<ellipse cx="572.67" cy="91.0828" rx="2.46661" ry="2.4617" fill="white"/>
<ellipse cx="543.074" cy="105.852" rx="2.46661" ry="2.4617" fill="white"/>
<ellipse cx="557.867" cy="105.852" rx="2.46661" ry="2.4617" fill="white"/>
<ellipse cx="572.67" cy="105.852" rx="2.46661" ry="2.4617" fill="white"/>
<ellipse cx="543.074" cy="120.623" rx="2.46661" ry="2.4617" fill="white"/>
<ellipse cx="557.867" cy="120.623" rx="2.46661" ry="2.4617" fill="white"/>
<ellipse cx="572.67" cy="120.623" rx="2.46661" ry="2.4617" fill="white"/>
<ellipse cx="543.074" cy="135.393" rx="2.46661" ry="2.4617" fill="white"/>
<ellipse cx="557.867" cy="135.393" rx="2.46661" ry="2.4617" fill="white"/>
<ellipse cx="572.67" cy="135.393" rx="2.46661" ry="2.4617" fill="white"/>
<ellipse cx="543.074" cy="150.163" rx="2.46661" ry="2.4617" fill="white"/>
<ellipse cx="557.867" cy="150.163" rx="2.46661" ry="2.4617" fill="white"/>
<ellipse cx="572.67" cy="150.163" rx="2.46661" ry="2.4617" fill="white"/>
<ellipse cx="543.074" cy="164.934" rx="2.46661" ry="2.4617" fill="white"/>
<ellipse cx="557.867" cy="164.934" rx="2.46661" ry="2.4617" fill="white"/>
<ellipse cx="572.67" cy="164.934" rx="2.46661" ry="2.4617" fill="white"/>
<ellipse cx="30.2674" cy="207.462" rx="2.46661" ry="2.4617" fill="white"/>
<ellipse cx="45.0643" cy="207.462" rx="2.46661" ry="2.4617" fill="white"/>
<ellipse cx="59.8631" cy="207.462" rx="2.46661" ry="2.4617" fill="white"/>
<ellipse cx="74.6639" cy="207.462" rx="2.46661" ry="2.4617" fill="white"/>
<ellipse cx="89.4627" cy="207.462" rx="2.46661" ry="2.4617" fill="white"/>
<ellipse cx="104.265" cy="207.462" rx="2.46661" ry="2.4617" fill="white"/>
<ellipse cx="119.062" cy="207.462" rx="2.46661" ry="2.4617" fill="white"/>
<ellipse cx="30.2694" cy="222.231" rx="2.46661" ry="2.4617" fill="white"/>
<ellipse cx="45.0643" cy="222.231" rx="2.46661" ry="2.4617" fill="white"/>
<ellipse cx="59.8631" cy="222.231" rx="2.46661" ry="2.4617" fill="white"/>
<ellipse cx="74.6639" cy="222.231" rx="2.46661" ry="2.4617" fill="white"/>
<ellipse cx="89.4627" cy="222.231" rx="2.46661" ry="2.4617" fill="white"/>
<ellipse cx="104.265" cy="222.231" rx="2.46661" ry="2.4617" fill="white"/>
<ellipse cx="119.064" cy="222.231" rx="2.46661" ry="2.4617" fill="white"/>
<ellipse cx="30.2694" cy="237.003" rx="2.46661" ry="2.4617" fill="white"/>
<ellipse cx="45.0643" cy="237.003" rx="2.46661" ry="2.4617" fill="white"/>
<ellipse cx="59.8631" cy="237.003" rx="2.46661" ry="2.4617" fill="white"/>
<ellipse cx="74.6639" cy="237.003" rx="2.46661" ry="2.4617" fill="white"/>
<ellipse cx="89.4627" cy="237.003" rx="2.46661" ry="2.4617" fill="white"/>
<ellipse cx="104.265" cy="237.003" rx="2.46661" ry="2.4617" fill="white"/>
<ellipse cx="119.064" cy="237.003" rx="2.46661" ry="2.4617" fill="white"/>
<ellipse cx="45.0643" cy="251.773" rx="2.46661" ry="2.4617" fill="white"/>
<ellipse cx="59.8631" cy="251.773" rx="2.46661" ry="2.4617" fill="white"/>
<ellipse cx="74.6639" cy="251.773" rx="2.46661" ry="2.4617" fill="white"/>
<ellipse cx="89.4627" cy="251.773" rx="2.46661" ry="2.4617" fill="white"/>
<ellipse cx="104.265" cy="251.773" rx="2.46661" ry="2.4617" fill="white"/>
<ellipse cx="119.064" cy="251.773" rx="2.46661" ry="2.4617" fill="white"/>
<ellipse cx="45.0643" cy="266.542" rx="2.46661" ry="2.4617" fill="white"/>
<ellipse cx="59.8631" cy="266.542" rx="2.46661" ry="2.4617" fill="white"/>
<ellipse cx="74.6639" cy="266.542" rx="2.46661" ry="2.4617" fill="white"/>
<ellipse cx="89.4627" cy="266.542" rx="2.46661" ry="2.4617" fill="white"/>
<ellipse cx="104.265" cy="266.542" rx="2.46661" ry="2.4617" fill="white"/>
<ellipse cx="119.064" cy="266.542" rx="2.46661" ry="2.4617" fill="white"/>
<ellipse cx="30.2694" cy="281.312" rx="2.46661" ry="2.4617" fill="white"/>
<ellipse cx="45.0643" cy="281.312" rx="2.46661" ry="2.4617" fill="white"/>
<ellipse cx="59.8631" cy="281.312" rx="2.46661" ry="2.4617" fill="white"/>
<ellipse cx="74.6639" cy="281.312" rx="2.46661" ry="2.4617" fill="white"/>
<ellipse cx="89.4627" cy="281.312" rx="2.46661" ry="2.4617" fill="white"/>
<ellipse cx="104.265" cy="281.312" rx="2.46661" ry="2.4617" fill="white"/>
<ellipse cx="119.064" cy="281.312" rx="2.46661" ry="2.4617" fill="white"/>
<ellipse cx="30.2694" cy="296.083" rx="2.46661" ry="2.4617" fill="white"/>
<ellipse cx="59.8631" cy="296.083" rx="2.46661" ry="2.4617" fill="white"/>
<ellipse cx="74.6639" cy="296.083" rx="2.46661" ry="2.4617" fill="white"/>
<ellipse cx="89.4627" cy="296.083" rx="2.46661" ry="2.4617" fill="white"/>
<ellipse cx="104.265" cy="296.083" rx="2.46661" ry="2.4617" fill="white"/>
<ellipse cx="119.064" cy="296.083" rx="2.46661" ry="2.4617" fill="white"/>
<ellipse cx="30.2694" cy="310.852" rx="2.46661" ry="2.4617" fill="white"/>
<ellipse cx="45.0643" cy="310.852" rx="2.46661" ry="2.4617" fill="white"/>
<ellipse cx="74.6639" cy="310.852" rx="2.46661" ry="2.4617" fill="white"/>
<ellipse cx="89.4627" cy="310.852" rx="2.46661" ry="2.4617" fill="white"/>
<ellipse cx="104.265" cy="310.852" rx="2.46661" ry="2.4617" fill="white"/>
<ellipse cx="119.064" cy="310.852" rx="2.46661" ry="2.4617" fill="white"/>
<ellipse cx="30.2694" cy="325.623" rx="2.46661" ry="2.4617" fill="white"/>
<ellipse cx="45.0643" cy="325.623" rx="2.46661" ry="2.4617" fill="white"/>
<ellipse cx="74.6639" cy="325.623" rx="2.46661" ry="2.4617" fill="white"/>
<ellipse cx="89.4627" cy="325.623" rx="2.46661" ry="2.4617" fill="white"/>
<ellipse cx="104.265" cy="325.623" rx="2.46661" ry="2.4617" fill="white"/>
<ellipse cx="119.064" cy="325.623" rx="2.46661" ry="2.4617" fill="white"/>
<ellipse cx="30.2694" cy="340.393" rx="2.46661" ry="2.4617" fill="white"/>
<ellipse cx="45.0643" cy="340.393" rx="2.46661" ry="2.4617" fill="white"/>
<ellipse cx="59.8631" cy="340.393" rx="2.46661" ry="2.4617" fill="white"/>
<ellipse cx="74.6639" cy="340.393" rx="2.46661" ry="2.4617" fill="white"/>
<ellipse cx="89.4627" cy="340.393" rx="2.46661" ry="2.4617" fill="white"/>
<ellipse cx="104.265" cy="340.393" rx="2.46661" ry="2.4617" fill="white"/>
<ellipse cx="119.064" cy="340.393" rx="2.46661" ry="2.4617" fill="white"/>
<ellipse cx="30.2694" cy="355.163" rx="2.46661" ry="2.4617" fill="white"/>
<ellipse cx="45.0643" cy="355.163" rx="2.46661" ry="2.4617" fill="white"/>
<ellipse cx="59.8631" cy="355.163" rx="2.46661" ry="2.4617" fill="white"/>
<ellipse cx="74.6639" cy="355.163" rx="2.46661" ry="2.4617" fill="white"/>
<ellipse cx="89.4627" cy="355.163" rx="2.46661" ry="2.4617" fill="white"/>
<ellipse cx="104.265" cy="355.163" rx="2.46661" ry="2.4617" fill="white"/>
<ellipse cx="119.064" cy="355.163" rx="2.46661" ry="2.4617" fill="white"/>
<ellipse cx="15.4666" cy="207.462" rx="2.46661" ry="2.4617" fill="white"/>
<ellipse cx="15.4666" cy="222.231" rx="2.46661" ry="2.4617" fill="white"/>
<ellipse cx="15.4666" cy="237.003" rx="2.46661" ry="2.4617" fill="white"/>
<ellipse cx="15.4666" cy="251.773" rx="2.46661" ry="2.4617" fill="white"/>
<ellipse cx="15.4666" cy="266.542" rx="2.46661" ry="2.4617" fill="white"/>
<ellipse cx="15.4666" cy="281.312" rx="2.46661" ry="2.4617" fill="white"/>
<ellipse cx="15.4666" cy="296.083" rx="2.46661" ry="2.4617" fill="white"/>
<ellipse cx="15.4666" cy="310.852" rx="2.46661" ry="2.4617" fill="white"/>
<ellipse cx="15.4666" cy="325.623" rx="2.46661" ry="2.4617" fill="white"/>
<ellipse cx="15.4666" cy="340.393" rx="2.46661" ry="2.4617" fill="white"/>
<ellipse cx="15.4666" cy="355.163" rx="2.46661" ry="2.4617" fill="white"/>
<ellipse cx="15.4666" cy="369.934" rx="2.46661" ry="2.4617" fill="white"/>
<ellipse cx="2.51349" cy="207.462" rx="2.46661" ry="2.4617" fill="white"/>
<ellipse cx="2.51349" cy="222.231" rx="2.46661" ry="2.4617" fill="white"/>
<ellipse cx="2.51349" cy="237.003" rx="2.46661" ry="2.4617" fill="white"/>
<ellipse cx="2.51349" cy="251.773" rx="2.46661" ry="2.4617" fill="white"/>
<ellipse cx="2.51349" cy="266.542" rx="2.46661" ry="2.4617" fill="white"/>
<ellipse cx="2.51349" cy="281.312" rx="2.46661" ry="2.4617" fill="white"/>
<ellipse cx="2.51349" cy="296.083" rx="2.46661" ry="2.4617" fill="white"/>
<ellipse cx="2.51349" cy="310.852" rx="2.46661" ry="2.4617" fill="white"/>
<ellipse cx="2.51349" cy="325.623" rx="2.46661" ry="2.4617" fill="white"/>
<ellipse cx="2.51349" cy="340.393" rx="2.46661" ry="2.4617" fill="white"/>
<ellipse cx="2.51349" cy="355.163" rx="2.46661" ry="2.4617" fill="white"/>
<ellipse cx="2.51349" cy="369.934" rx="2.46661" ry="2.4617" fill="white"/>
<ellipse cx="30.2694" cy="369.934" rx="2.46661" ry="2.4617" fill="white"/>
<ellipse cx="45.0643" cy="369.934" rx="2.46661" ry="2.4617" fill="white"/>
<ellipse cx="59.8631" cy="369.934" rx="2.46661" ry="2.4617" fill="white"/>
<ellipse cx="74.6639" cy="369.934" rx="2.46661" ry="2.4617" fill="white"/>
<ellipse cx="89.4627" cy="369.934" rx="2.46661" ry="2.4617" fill="white"/>
<ellipse cx="104.265" cy="369.934" rx="2.46661" ry="2.4617" fill="white"/>
<ellipse cx="119.064" cy="369.934" rx="2.46661" ry="2.4617" fill="white"/>
<ellipse cx="133.271" cy="207.462" rx="2.46661" ry="2.4617" fill="white"/>
<ellipse cx="148.07" cy="207.462" rx="2.46661" ry="2.4617" fill="white"/>
<ellipse cx="162.867" cy="207.462" rx="2.46661" ry="2.4617" fill="white"/>
<ellipse cx="177.67" cy="207.462" rx="2.46661" ry="2.4617" fill="white"/>
<ellipse cx="133.271" cy="222.231" rx="2.46661" ry="2.4617" fill="white"/>
<ellipse cx="148.074" cy="222.231" rx="2.46661" ry="2.4617" fill="white"/>
<ellipse cx="162.867" cy="222.231" rx="2.46661" ry="2.4617" fill="white"/>
<ellipse cx="177.67" cy="222.231" rx="2.46661" ry="2.4617" fill="white"/>
<ellipse cx="133.271" cy="237.003" rx="2.46661" ry="2.4617" fill="white"/>
<ellipse cx="148.074" cy="237.003" rx="2.46661" ry="2.4617" fill="white"/>
<ellipse cx="162.867" cy="237.003" rx="2.46661" ry="2.4617" fill="white"/>
<ellipse cx="177.67" cy="237.003" rx="2.46661" ry="2.4617" fill="white"/>
<ellipse cx="133.271" cy="251.773" rx="2.46661" ry="2.4617" fill="white"/>
<ellipse cx="148.074" cy="251.773" rx="2.46661" ry="2.4617" fill="white"/>
<ellipse cx="162.867" cy="251.773" rx="2.46661" ry="2.4617" fill="white"/>
<ellipse cx="177.67" cy="251.773" rx="2.46661" ry="2.4617" fill="white"/>
<ellipse cx="133.271" cy="266.542" rx="2.46661" ry="2.4617" fill="white"/>
<ellipse cx="148.074" cy="266.542" rx="2.46661" ry="2.4617" fill="white"/>
<ellipse cx="162.867" cy="266.542" rx="2.46661" ry="2.4617" fill="white"/>
<ellipse cx="177.67" cy="266.542" rx="2.46661" ry="2.4617" fill="white"/>
<ellipse cx="133.271" cy="281.312" rx="2.46661" ry="2.4617" fill="white"/>
<ellipse cx="148.074" cy="281.312" rx="2.46661" ry="2.4617" fill="white"/>
<ellipse cx="162.867" cy="281.312" rx="2.46661" ry="2.4617" fill="white"/>
<ellipse cx="177.67" cy="281.312" rx="2.46661" ry="2.4617" fill="white"/>
<ellipse cx="133.271" cy="296.083" rx="2.46661" ry="2.4617" fill="white"/>
<ellipse cx="148.074" cy="296.083" rx="2.46661" ry="2.4617" fill="white"/>
<ellipse cx="162.867" cy="296.083" rx="2.46661" ry="2.4617" fill="white"/>
<ellipse cx="177.67" cy="296.083" rx="2.46661" ry="2.4617" fill="white"/>
<ellipse cx="133.271" cy="310.852" rx="2.46661" ry="2.4617" fill="white"/>
<ellipse cx="148.074" cy="310.852" rx="2.46661" ry="2.4617" fill="white"/>
<ellipse cx="162.867" cy="310.852" rx="2.46661" ry="2.4617" fill="white"/>
<ellipse cx="177.67" cy="310.852" rx="2.46661" ry="2.4617" fill="white"/>
<ellipse cx="133.271" cy="325.623" rx="2.46661" ry="2.4617" fill="white"/>
<ellipse cx="148.074" cy="325.623" rx="2.46661" ry="2.4617" fill="white"/>
<ellipse cx="162.867" cy="325.623" rx="2.46661" ry="2.4617" fill="white"/>
<ellipse cx="177.67" cy="325.623" rx="2.46661" ry="2.4617" fill="white"/>
<ellipse cx="133.271" cy="340.393" rx="2.46661" ry="2.4617" fill="white"/>
<ellipse cx="148.074" cy="340.393" rx="2.46661" ry="2.4617" fill="white"/>
<ellipse cx="162.867" cy="340.393" rx="2.46661" ry="2.4617" fill="white"/>
<ellipse cx="177.67" cy="340.393" rx="2.46661" ry="2.4617" fill="white"/>
<ellipse cx="133.271" cy="355.163" rx="2.46661" ry="2.4617" fill="white"/>
<ellipse cx="148.074" cy="355.163" rx="2.46661" ry="2.4617" fill="white"/>
<ellipse cx="162.867" cy="355.163" rx="2.46661" ry="2.4617" fill="white"/>
<ellipse cx="133.271" cy="369.934" rx="2.46661" ry="2.4617" fill="white"/>
<ellipse cx="148.074" cy="369.934" rx="2.46661" ry="2.4617" fill="white"/>
<ellipse cx="162.867" cy="369.934" rx="2.46661" ry="2.4617" fill="white"/>
</svg>
