<svg width="555" height="437" viewBox="0 0 555 437" fill="none" xmlns="http://www.w3.org/2000/svg">
<path d="M273.896 422.942C425.117 422.942 547.706 417.581 547.706 410.968C547.706 404.355 425.117 398.994 273.896 398.994C122.675 398.994 0.0859375 404.355 0.0859375 410.968C0.0859375 417.581 122.675 422.942 273.896 422.942Z" fill="#E2E2E2"/>
<path fill-rule="evenodd" clip-rule="evenodd" d="M273.893 398.993C337.596 398.993 396.197 399.945 442.71 401.54C556.541 336.591 517.123 209.958 476.254 138.334C419.372 38.6539 284.963 2.82662 229.369 82.3586C153.906 190.309 81.1122 152.641 41.8028 234.626C2.49352 316.61 62.1904 395.204 105.076 401.554C151.59 399.958 210.202 399.007 273.893 399.007V398.993ZM174.215 124.589C136.784 153.035 74.8823 175.074 54.3139 144.837C38.9524 122.242 57.8715 79.8522 94.9297 47.7144C131.988 15.5766 181.576 -3.8408 208.62 19.8051C240.709 47.868 203.043 102.679 174.215 124.589Z" fill="white"/>
<path fill-rule="evenodd" clip-rule="evenodd" d="M184.31 22.8806C200.187 23.8346 209.845 36.8488 210.514 51.8572C210.784 58.2416 205.777 41.5461 188.175 39.2257C177.259 37.7812 175.621 40.9937 171.71 36.4984C167.798 32.0032 171.51 22.0991 184.31 22.8806Z" fill="white"/>
<path fill-rule="evenodd" clip-rule="evenodd" d="M359.99 72.7636C428.373 87.9903 471.893 150.776 476.15 181.102C478.563 198.243 468.133 143.332 381.856 118.201C335.54 104.713 307.357 117.573 297.677 98.7972C287.998 80.0212 304.844 60.5068 359.99 72.7636Z" fill="white"/>
<path fill-rule="evenodd" clip-rule="evenodd" d="M453.277 369.753C456.398 365.853 460.787 362.635 462.074 357.811C463.594 352.122 460.247 346.134 461.078 340.294C462.117 332.955 469.197 328.199 473.041 321.858C476.801 315.659 475.039 313.56 475.384 306.31C475.897 295.385 484.872 281.597 496.83 285.289C508.976 289.062 506.987 300.319 504.849 308.795C503.33 314.832 504.309 315.699 505.802 321.747C507.589 329.05 513.36 336.111 510.931 343.237C509.441 347.643 505.114 350.616 503.548 354.998C501.772 359.959 503.923 365.341 504.749 370.548C506.493 381.503 503.994 390.62 496.017 399.654C494.431 401.166 492.687 402.505 490.816 403.648C480.88 403.085 469.834 402.57 457.798 402.085C457.071 401.458 456.381 400.789 455.731 400.082C448.446 392.146 446.27 378.498 453.277 369.753Z" fill="white"/>
<path fill-rule="evenodd" clip-rule="evenodd" d="M491.314 295.156C491.355 295.033 491.421 294.92 491.507 294.823C491.593 294.726 491.698 294.647 491.816 294.592C491.933 294.537 492.06 294.505 492.19 294.501C492.32 294.496 492.449 294.517 492.57 294.564C492.692 294.61 492.802 294.681 492.895 294.771C492.988 294.861 493.062 294.97 493.112 295.089C493.163 295.209 493.188 295.337 493.187 295.467C493.186 295.596 493.159 295.724 493.107 295.843C492.145 298.382 491.334 300.974 490.677 303.608C490.947 303.36 491.239 303.12 491.53 302.883C492.897 301.799 494.386 300.88 495.968 300.144C496.195 300.055 496.447 300.056 496.674 300.146C496.9 300.236 497.084 300.409 497.187 300.63C497.29 300.85 497.305 301.102 497.229 301.333C497.153 301.564 496.992 301.758 496.778 301.875C495.334 302.547 493.975 303.386 492.729 304.376C491.628 305.252 490.645 306.268 489.805 307.397C488.58 313.239 487.778 319.524 487.058 326.151C488.107 324.505 489.298 322.952 490.615 321.51C492.682 319.23 495.152 317.35 497.903 315.967C498.13 315.862 498.388 315.85 498.624 315.933C498.859 316.016 499.053 316.188 499.163 316.411C499.274 316.634 499.293 316.892 499.217 317.129C499.14 317.366 498.974 317.564 498.753 317.681C496.218 318.961 493.942 320.696 492.038 322.801C489.856 325.23 488.016 327.945 486.569 330.87L486.383 332.668C485.972 336.619 485.554 340.669 485.06 344.795C485.057 344.834 485.052 344.873 485.044 344.911C484.528 349.223 483.924 353.651 483.154 358.141C485.099 355.103 487.341 352.265 489.846 349.668C493.155 346.205 497.054 343.357 501.361 341.257C501.474 341.202 501.597 341.17 501.723 341.163C501.849 341.156 501.975 341.174 502.093 341.216C502.212 341.257 502.322 341.322 502.416 341.406C502.509 341.489 502.586 341.591 502.64 341.704C502.695 341.817 502.727 341.94 502.734 342.066C502.741 342.191 502.723 342.317 502.681 342.435C502.64 342.554 502.575 342.663 502.491 342.757C502.407 342.851 502.306 342.927 502.192 342.981C498.091 344.988 494.376 347.702 491.22 350.999C487.885 354.427 484.865 358.611 482.158 363.55C480.961 369.682 479.398 375.738 477.478 381.684V381.708C476.497 384.711 475.392 387.729 474.163 390.764C481.017 384.859 489.217 380.723 498.044 378.717C498.291 378.659 498.552 378.703 498.768 378.837C498.984 378.971 499.137 379.185 499.195 379.433C499.252 379.68 499.209 379.94 499.075 380.155C498.941 380.371 498.726 380.524 498.478 380.582C493.535 381.707 488.776 383.522 484.339 385.972C479.931 388.439 475.884 391.499 472.312 395.068C471.192 397.547 469.97 400.031 468.646 402.519L466.522 402.428C470.192 395.638 473.239 388.53 475.624 381.191C475.975 376.456 475.411 371.699 473.961 367.177C472.469 362.441 470.04 357.7 466.673 352.953C466.593 352.851 466.534 352.734 466.501 352.609C466.468 352.484 466.46 352.354 466.479 352.225C466.497 352.097 466.542 351.974 466.609 351.864C466.677 351.754 466.766 351.658 466.872 351.583C466.977 351.508 467.097 351.455 467.224 351.428C467.35 351.4 467.481 351.399 467.609 351.423C467.736 351.448 467.857 351.498 467.964 351.57C468.071 351.643 468.163 351.736 468.233 351.845C471.724 356.754 474.243 361.672 475.791 366.6C476.657 369.329 477.229 372.142 477.497 374.993C480.374 364.619 481.969 354.476 483.136 344.809C482.009 340.707 480.749 337.237 479.357 334.398C477.964 331.559 476.464 329.38 474.857 327.86C474.766 327.774 474.692 327.67 474.641 327.556C474.59 327.441 474.561 327.318 474.558 327.193C474.554 327.067 474.576 326.942 474.621 326.825C474.665 326.708 474.733 326.601 474.819 326.51C474.905 326.418 475.009 326.345 475.124 326.294C475.238 326.243 475.362 326.215 475.487 326.211C475.613 326.208 475.738 326.229 475.855 326.274C475.973 326.318 476.08 326.386 476.171 326.472C477.971 328.164 479.609 330.527 481.087 333.56C482.092 335.657 482.958 337.818 483.681 340.028C483.951 337.47 484.221 334.95 484.491 332.482L484.688 330.549C484.688 330.517 484.688 330.479 484.688 330.447C486.045 317.295 487.419 305.324 491.314 295.156Z" fill="#0D0D0D"/>
<path fill-rule="evenodd" clip-rule="evenodd" d="M485.39 374.874C488.721 373.085 492.735 372.139 495.061 369.161C497.809 365.657 497.253 360.485 499.564 356.669C502.465 351.864 508.809 350.646 513.368 347.366C517.829 344.154 517.222 342.178 519.614 337.228C523.215 329.773 533.555 322.823 540.789 328.932C548.129 335.131 543.405 342.407 539.402 347.676C536.549 351.433 536.973 352.33 536.22 356.982C535.296 362.598 537.213 369.22 533.423 373.47C531.077 376.1 527.18 376.893 524.785 379.48C522.086 382.412 521.976 386.797 521.007 390.667C519.484 396.749 516.62 401.417 511.829 405.034C503.208 404.376 493.188 403.754 481.954 403.18C480.252 401.312 478.937 399.127 478.086 396.749C475.378 389.055 477.91 378.917 485.39 374.874Z" fill="#0D0D0D"/>
<path fill-rule="evenodd" clip-rule="evenodd" d="M534.019 334.179C534.155 334.05 534.335 333.979 534.522 333.979C534.709 333.98 534.889 334.053 535.024 334.182C535.158 334.312 535.238 334.489 535.245 334.675C535.253 334.862 535.188 335.044 535.064 335.184C533.642 336.67 532.308 338.236 531.069 339.876C531.339 339.787 531.609 339.701 531.879 339.623C533.151 339.273 534.46 339.073 535.779 339.027C535.966 339.029 536.145 339.102 536.279 339.232C536.413 339.361 536.492 339.538 536.499 339.724C536.506 339.91 536.442 340.092 536.318 340.232C536.195 340.372 536.022 340.459 535.836 340.475C534.63 340.513 533.433 340.694 532.27 341.014C531.244 341.298 530.258 341.713 529.339 342.251C526.75 345.962 524.326 350.101 521.856 354.505C523.076 353.668 524.366 352.938 525.711 352.322C527.824 351.345 530.1 350.767 532.424 350.616C532.614 350.609 532.799 350.676 532.94 350.804C533.081 350.932 533.165 351.109 533.176 351.299C533.187 351.488 533.123 351.674 532.998 351.817C532.873 351.96 532.697 352.048 532.508 352.063C530.358 352.202 528.253 352.74 526.299 353.648C524.057 354.693 521.968 356.04 520.091 357.65L519.424 358.846C517.97 361.477 516.477 364.174 514.903 366.91C514.887 366.937 514.873 366.964 514.857 366.988C513.213 369.847 511.483 372.745 509.621 375.647C511.877 374.107 514.28 372.792 516.795 371.723C520.131 370.29 523.696 369.459 527.322 369.271C527.42 369.262 527.518 369.274 527.611 369.304C527.704 369.334 527.79 369.383 527.863 369.448C527.937 369.512 527.996 369.59 528.039 369.678C528.081 369.766 528.106 369.862 528.11 369.959C528.115 370.057 528.099 370.154 528.065 370.246C528.031 370.337 527.979 370.421 527.912 370.492C527.845 370.562 527.764 370.619 527.674 370.658C527.584 370.697 527.488 370.717 527.39 370.718C523.938 370.902 520.545 371.695 517.37 373.06C513.766 374.618 510.389 376.656 507.332 379.118C504.681 383.036 501.796 386.792 498.694 390.364H498.681C497.108 392.161 495.442 393.936 493.684 395.69C500.21 393.601 507.15 393.146 513.894 394.364C514.081 394.399 514.246 394.507 514.355 394.663C514.463 394.82 514.506 395.012 514.473 395.2C514.44 395.387 514.335 395.554 514.181 395.665C514.026 395.776 513.833 395.822 513.645 395.792C509.867 395.114 506.011 394.972 502.192 395.369C498.394 395.784 494.67 396.718 491.125 398.145C489.204 399.913 487.166 401.638 485.014 403.319L482.779 403.203C488.171 399.152 493.121 394.545 497.547 389.459C499.196 386.269 500.214 382.792 500.546 379.218C500.906 375.477 500.619 371.455 499.685 367.15C499.659 367.055 499.654 366.956 499.668 366.859C499.682 366.762 499.715 366.669 499.766 366.586C499.817 366.502 499.885 366.429 499.965 366.372C500.044 366.316 500.135 366.275 500.231 366.255C500.327 366.234 500.426 366.232 500.522 366.251C500.619 366.269 500.71 366.307 500.792 366.361C500.873 366.416 500.943 366.487 500.996 366.569C501.049 366.651 501.085 366.743 501.102 366.84C502.074 371.294 502.369 375.466 501.987 379.355C501.781 381.513 501.345 383.642 500.686 385.707C505.769 379.331 509.891 372.736 513.575 366.339C513.985 363.568 514.14 360.766 514.037 357.968C513.913 355.591 513.514 353.631 512.841 352.087C512.803 352 512.782 351.907 512.78 351.812C512.779 351.717 512.796 351.622 512.83 351.534C512.865 351.445 512.917 351.365 512.983 351.296C513.049 351.228 513.128 351.173 513.215 351.135C513.302 351.097 513.396 351.076 513.491 351.074C513.586 351.072 513.681 351.089 513.769 351.124C513.858 351.159 513.939 351.21 514.007 351.276C514.076 351.342 514.131 351.421 514.169 351.508C514.914 353.217 515.354 355.347 515.489 357.898C515.568 359.654 515.532 361.413 515.381 363.164C516.336 361.466 517.27 359.787 518.18 358.135L518.89 356.849C518.89 356.825 518.914 356.804 518.93 356.779C523.778 348.04 528.289 340.108 534.019 334.179Z" fill="#4D4D4D"/>
<path fill-rule="evenodd" clip-rule="evenodd" d="M112.676 361.784C109.188 357.426 104.281 353.826 102.84 348.433C101.139 342.07 104.883 335.376 103.954 328.857C102.791 320.651 94.8768 315.331 90.5769 308.24C86.3687 301.295 88.3419 298.961 87.9613 290.855C87.3809 278.636 77.3451 263.22 63.9757 267.354C50.4011 271.559 52.6172 284.155 55.0087 293.633C56.7093 300.387 55.5972 301.357 53.9452 308.119C51.9451 316.287 45.5073 324.181 48.1985 332.147C49.8612 337.077 54.701 340.402 56.4501 345.299C58.4368 350.845 56.0344 356.866 55.1005 362.687C53.1543 374.939 55.9481 385.131 64.8637 395.245C68.2764 398.497 72.3177 401.02 76.7405 402.659C84.7087 402.298 93.1924 401.958 102.135 401.643C105.051 400.14 107.681 398.139 109.906 395.73C118.08 386.837 120.514 371.572 112.676 361.784Z" fill="white"/>
<path fill-rule="evenodd" clip-rule="evenodd" d="M70.1419 278.392C70.0191 278.158 69.8146 277.977 69.5672 277.884C69.3198 277.791 69.0467 277.791 68.7997 277.886C68.5528 277.98 68.3491 278.162 68.2273 278.396C68.1055 278.63 68.0741 278.901 68.1391 279.157C69.2137 281.991 70.1204 284.885 70.8545 287.824C70.5468 287.544 70.2292 287.275 69.9017 287.016C68.3753 285.803 66.711 284.775 64.9432 283.952C64.8139 283.87 64.6687 283.817 64.5173 283.795C64.3659 283.774 64.2116 283.785 64.0648 283.828C63.918 283.87 63.7819 283.944 63.6655 284.043C63.5492 284.142 63.4553 284.265 63.39 284.403C63.3247 284.541 63.2895 284.691 63.2868 284.844C63.2841 284.996 63.3139 285.148 63.3742 285.288C63.4345 285.428 63.524 285.554 63.6367 285.658C63.7495 285.761 63.8829 285.839 64.0281 285.887C65.6443 286.638 67.1663 287.577 68.5629 288.684C69.7916 289.666 70.8893 290.8 71.8289 292.061C73.2002 298.596 74.0963 305.625 74.9034 313.033C73.7307 311.192 72.3994 309.456 70.9247 307.845C68.6207 305.295 65.8631 303.194 62.7918 301.647C62.6642 301.562 62.5201 301.506 62.369 301.482C62.2178 301.457 62.0632 301.465 61.9153 301.504C61.7675 301.544 61.6297 301.615 61.5113 301.711C61.3928 301.808 61.2963 301.929 61.2282 302.066C61.1602 302.203 61.122 302.353 61.1164 302.506C61.1107 302.658 61.1376 302.811 61.1954 302.952C61.2532 303.094 61.3404 303.221 61.4514 303.327C61.5623 303.432 61.6945 303.513 61.839 303.563C64.6753 304.995 67.2214 306.94 69.3483 309.298C71.6103 311.752 73.6492 314.759 75.4649 318.318L75.6727 320.329C76.1262 324.746 76.5958 329.276 77.1492 333.903C77.1519 333.948 77.1573 333.992 77.1654 334.035C77.7457 338.87 78.4205 343.807 79.2708 348.826C77.0966 345.434 74.5951 342.263 71.802 339.358C68.0986 335.49 63.7386 332.306 58.9238 329.955C58.7951 329.874 58.6507 329.821 58.5001 329.799C58.3494 329.778 58.196 329.788 58.0497 329.83C57.9034 329.872 57.7676 329.945 57.6513 330.042C57.535 330.14 57.4407 330.262 57.3746 330.399C57.3085 330.536 57.2722 330.685 57.268 330.837C57.2638 330.989 57.2918 331.14 57.3501 331.28C57.4085 331.42 57.4959 331.547 57.6066 331.651C57.7173 331.755 57.8488 331.835 57.9926 331.885C62.5798 334.128 66.7339 337.162 70.2634 340.848C73.9884 344.681 77.366 349.359 80.3964 354.884C81.7345 361.74 83.4822 368.51 85.6303 375.158V375.185C86.7262 378.543 87.9615 381.918 89.3364 385.31C81.6728 378.706 72.5036 374.079 62.6326 371.835C62.3678 371.803 62.1002 371.869 61.8814 372.021C61.6626 372.174 61.5081 372.402 61.4477 372.661C61.3874 372.921 61.4254 373.193 61.5545 373.427C61.6835 373.66 61.8945 373.837 62.1467 373.924C67.675 375.184 72.9975 377.217 77.9563 379.963C82.8873 382.718 87.4144 386.139 91.4094 390.129C93.1612 394.01 95.129 397.909 97.3478 401.809L99.7771 401.717C94.816 393.13 90.7736 384.046 87.7168 374.614C87.3206 369.321 87.9511 364.002 89.5739 358.948C91.242 353.655 93.962 348.355 97.7337 343.047C97.8366 342.935 97.9142 342.801 97.9615 342.656C98.0089 342.511 98.0248 342.357 98.0082 342.206C97.9917 342.054 97.9431 341.908 97.8657 341.776C97.7882 341.644 97.6837 341.531 97.559 341.443C97.4342 341.354 97.2922 341.294 97.1422 341.264C96.9922 341.235 96.8377 341.238 96.6888 341.273C96.54 341.307 96.4003 341.373 96.2789 341.466C96.1575 341.559 96.0572 341.676 95.9846 341.81C92.0869 347.301 89.2707 352.801 87.5359 358.309C86.5643 361.361 85.9245 364.508 85.6276 367.696C82.4073 356.094 80.6258 344.751 79.3221 333.93C80.5817 329.342 81.9872 325.46 83.5383 322.285C85.0895 319.111 86.7676 316.675 88.5725 314.979C88.6961 314.889 88.7992 314.773 88.8747 314.64C88.9502 314.507 88.9965 314.359 89.0105 314.207C89.0244 314.055 89.0058 313.901 88.9557 313.757C88.9057 313.612 88.8254 313.48 88.7202 313.369C88.615 313.257 88.4873 313.17 88.3455 313.112C88.2038 313.054 88.0513 313.026 87.8982 313.031C87.7451 313.037 87.5949 313.074 87.4575 313.142C87.3201 313.21 87.1987 313.306 87.1014 313.424C85.0967 315.316 83.2657 317.957 81.6084 321.347C80.4838 323.689 79.5136 326.102 78.704 328.57C78.3909 325.711 78.0993 322.892 77.8132 320.118L77.5892 317.962C77.5918 317.923 77.5918 317.883 77.5892 317.844C76.0371 303.137 74.5012 289.754 70.1419 278.392Z" fill="#0D0D0D"/>
<path fill-rule="evenodd" clip-rule="evenodd" d="M77.3102 368.012C73.4574 366.274 68.9082 365.531 66.0938 362.391C62.7554 358.685 62.9693 352.884 60.0975 348.808C56.4917 343.676 49.3146 342.808 43.9726 339.51C38.7431 336.272 39.2594 334.021 36.2158 328.687C31.6166 320.65 19.5363 313.703 11.9485 321.085C4.24448 328.586 10.0805 336.318 14.959 341.887C18.4319 345.854 18.0145 346.888 19.2334 352.014C20.7002 358.209 19.0788 365.746 23.6405 370.19C26.4575 372.94 30.868 373.521 33.7382 376.219C36.9855 379.28 37.4405 384.162 38.8222 388.404C41.5197 396.682 46.3548 400.223 54.6147 404.001C62.6515 404.001 70.5863 404.116 79.6159 403.074C83.2507 400.214 85.8918 396.285 87.1645 391.842C89.588 383.044 85.9688 371.918 77.3102 368.012Z" fill="#0D0D0D"/>
<path fill-rule="evenodd" clip-rule="evenodd" d="M19.7351 326.521C19.575 326.377 19.3642 326.302 19.1491 326.314C18.934 326.325 18.7321 326.421 18.5879 326.581C18.4437 326.741 18.369 326.951 18.3802 327.166C18.3914 327.381 18.4877 327.582 18.6477 327.726C20.3518 329.27 21.9621 330.914 23.4701 332.649C23.1695 332.567 22.8611 332.491 22.5508 332.427C21.1032 332.135 19.6263 332.015 18.1503 332.067C17.9355 332.074 17.732 332.165 17.5846 332.321C17.4372 332.477 17.358 332.686 17.3644 332.9C17.3708 333.115 17.4622 333.318 17.6187 333.465C17.7751 333.612 17.9837 333.691 18.1985 333.685C19.5473 333.633 20.8974 333.742 22.2204 334.009C23.3869 334.248 24.5179 334.636 25.586 335.162C28.7647 339.1 31.791 343.527 34.889 348.246C33.4597 347.414 31.9617 346.705 30.4115 346.128C27.9792 345.201 25.3961 344.733 22.7926 344.745C22.6861 344.746 22.5809 344.769 22.4829 344.81C22.385 344.852 22.2962 344.913 22.2218 344.989C22.1473 345.065 22.0886 345.155 22.049 345.254C22.0093 345.353 21.9896 345.458 21.9908 345.564C21.992 345.671 22.0142 345.776 22.0561 345.874C22.098 345.971 22.1587 346.06 22.2349 346.134C22.3111 346.209 22.4012 346.267 22.5001 346.307C22.5989 346.346 22.7046 346.366 22.8111 346.365C25.2169 346.355 27.6035 346.791 29.8497 347.65C32.4309 348.641 34.8642 349.98 37.0819 351.629L37.9164 352.922C39.7373 355.744 41.6225 358.636 43.589 361.567C43.6065 361.596 43.6256 361.623 43.6462 361.65C45.7031 364.713 47.8649 367.806 50.1646 370.898C47.5261 369.357 44.7423 368.078 41.8532 367.081C38.0231 365.746 33.9865 365.098 29.93 365.167C29.8236 365.17 29.7187 365.193 29.6214 365.236C29.5241 365.28 29.4362 365.341 29.3628 365.418C29.2146 365.574 29.1344 365.782 29.1397 365.996C29.145 366.211 29.2355 366.415 29.3912 366.563C29.5469 366.711 29.7552 366.791 29.9701 366.785C33.835 366.721 37.6807 367.339 41.3298 368.611C45.1638 369.912 49.0535 371.906 52.9989 374.593C56.2617 378.746 59.7694 382.702 63.5034 386.439L63.518 386.455C65.4139 388.337 67.4095 390.188 69.5047 392.006C62.0631 390.187 54.2875 390.219 46.8606 392.101C46.6514 392.152 46.4707 392.283 46.3585 392.466C46.2462 392.65 46.2115 392.87 46.262 393.079C46.3125 393.288 46.4441 393.468 46.6277 393.58C46.8114 393.693 47.0321 393.727 47.2414 393.677C51.4032 392.626 55.6925 392.167 59.9826 392.313C64.2557 392.477 68.4857 393.229 72.5532 394.546C75.4838 396.89 78.5361 399.078 81.6973 401.101C82.0761 400.714 82.4399 400.306 82.7887 399.876C76.2544 395.704 70.1929 390.836 64.7104 385.358C62.6196 381.926 61.2134 378.123 60.5692 374.158C59.8664 370.014 59.8713 365.506 60.5841 360.633C60.5996 360.527 60.5943 360.42 60.5683 360.317C60.5424 360.214 60.4963 360.117 60.4328 360.032C60.3693 359.946 60.2896 359.874 60.1982 359.82C60.1068 359.765 60.0055 359.729 59.9001 359.713C59.7948 359.698 59.6874 359.703 59.584 359.729C59.4807 359.755 59.3835 359.801 59.298 359.864C59.2125 359.928 59.1403 360.008 59.0856 360.099C59.0309 360.19 58.9948 360.291 58.9792 360.396C58.2494 365.438 58.2454 370.114 58.967 374.424C59.3664 376.815 60.0191 379.156 60.914 381.409C54.7619 374.691 49.6377 367.658 45.027 360.81C44.3541 357.752 43.9634 354.639 43.8598 351.509C43.8145 348.849 44.1103 346.631 44.7474 344.855C44.8198 344.653 44.8086 344.43 44.7163 344.236C44.6241 344.042 44.4584 343.892 44.2556 343.82C44.0529 343.748 43.8297 343.759 43.6352 343.851C43.4407 343.943 43.2908 344.109 43.2185 344.311C42.5208 346.278 42.1968 348.688 42.2466 351.541C42.2942 353.506 42.4719 355.465 42.7786 357.407C41.5799 355.589 40.4081 353.793 39.2631 352.02L38.3549 350.641C38.3413 350.614 38.325 350.589 38.3064 350.566C32.2278 341.184 26.5765 332.688 19.7351 326.521Z" fill="#4D4D4D"/>
<path fill-rule="evenodd" clip-rule="evenodd" d="M326.614 241.849C325.804 253.073 324.136 254.62 313.42 255.488C324.136 256.348 325.796 257.897 326.614 269.122C327.424 257.897 329.092 256.348 339.811 255.488C329.092 254.62 327.434 253.063 326.614 241.849ZM370.183 271.45C369.745 277.444 368.86 278.269 363.14 278.727C368.86 279.188 369.745 280.015 370.183 286.003C370.62 280.012 371.505 279.185 377.23 278.727C371.505 278.263 370.62 277.439 370.183 271.45ZM351.104 225.331C350.662 231.4 349.755 232.236 343.967 232.705C349.765 233.173 350.662 234.009 351.104 240.081C351.547 234.009 352.454 233.173 358.238 232.705C352.43 232.236 351.533 231.4 351.091 225.331H351.104Z" fill="white"/>
<path d="M232.873 52.1162H23.3974C17.9323 52.1162 13.502 56.5396 13.502 61.9961V190.28C13.502 195.737 17.9323 200.16 23.3974 200.16H232.873C238.339 200.16 242.769 195.737 242.769 190.28V61.9961C242.769 56.5396 238.339 52.1162 232.873 52.1162Z" fill="#F9F9F9"/>
<path fill-rule="evenodd" clip-rule="evenodd" d="M242.768 61.9853V72.2263H13.4961V61.9853C13.4957 60.6878 13.7515 59.4029 14.2486 58.2041C14.7458 57.0052 15.4747 55.9159 16.3936 54.9984C17.3126 54.0809 18.4036 53.3532 19.6043 52.8568C20.8051 52.3604 22.092 52.1051 23.3916 52.1055H232.854C234.155 52.103 235.444 52.3567 236.647 52.8521C237.85 53.3475 238.943 54.0749 239.863 54.9925C240.784 55.9102 241.515 57.0002 242.013 58.2001C242.512 59.4 242.768 60.6863 242.768 61.9853Z" fill="#DE2C10"/>
<path fill-rule="evenodd" clip-rule="evenodd" d="M58.7922 62.1648C58.7927 63.2794 58.4622 64.3692 57.8423 65.2963C57.2224 66.2233 56.3411 66.946 55.3098 67.373C54.2786 67.7999 53.1436 67.9119 52.0486 67.6947C50.9536 67.4776 49.9476 66.9411 49.158 66.1531C48.3684 65.3651 47.8306 64.361 47.6126 63.2678C47.3946 62.1746 47.5062 61.0414 47.9333 60.0116C48.3604 58.9817 49.0838 58.1015 50.0121 57.4821C50.9403 56.8628 52.0316 56.5322 53.1481 56.5322C53.8891 56.5319 54.623 56.6773 55.3078 56.9602C55.9925 57.2431 56.6148 57.6579 57.1389 58.181C57.6631 58.7041 58.0788 59.3251 58.3625 60.0087C58.6462 60.6922 58.7922 61.4249 58.7922 62.1648Z" fill="white"/>
<path fill-rule="evenodd" clip-rule="evenodd" d="M44.0774 62.1657C44.0779 63.2804 43.7473 64.3702 43.1275 65.2972C42.5076 66.2243 41.6263 66.947 40.595 67.3739C39.5637 67.8009 38.4288 67.9129 37.3338 67.6957C36.2387 67.4786 35.2328 66.9421 34.4432 66.1541C33.6535 65.3661 33.1157 64.362 32.8977 63.2688C32.6797 62.1756 32.7913 61.0424 33.2184 60.0125C33.6456 58.9827 34.369 58.1024 35.2972 57.4831C36.2254 56.8638 37.3168 56.5332 38.4332 56.5332C39.1743 56.5328 39.9082 56.6783 40.5929 56.9612C41.2777 57.2441 41.8999 57.6589 42.4241 58.182C42.9482 58.7051 43.364 59.3261 43.6477 60.0096C43.9314 60.6932 44.0774 61.4258 44.0774 62.1657Z" fill="white"/>
<path fill-rule="evenodd" clip-rule="evenodd" d="M28.9817 62.1657C28.9822 63.2805 28.6516 64.3704 28.0316 65.2975C27.4116 66.2247 26.5301 66.9473 25.4987 67.3742C24.4672 67.8011 23.3322 67.9129 22.2371 67.6955C21.1419 67.4782 20.136 66.9414 19.3465 66.1532C18.557 65.3649 18.0194 64.3605 17.8017 63.2672C17.584 62.1738 17.696 61.0405 18.1235 60.0107C18.551 58.9809 19.2749 58.1008 20.2035 57.4818C21.1321 56.8628 22.2237 56.5327 23.3402 56.5332C24.8364 56.5332 26.2713 57.1266 27.3293 58.1829C28.3873 59.2392 28.9817 60.6719 28.9817 62.1657Z" fill="white"/>
<path d="M164.326 102.176H97.5137V109.576H164.326V102.176Z" fill="#EBEBEB"/>
<path d="M224.094 102.176H173.064V109.576H224.094V102.176Z" fill="#C1C1C1"/>
<path d="M151.626 115.184H37.0723V122.581H151.626V115.184Z" fill="#EBEBEB"/>
<path d="M182.782 84.6572H68.2285V92.055H182.782V84.6572Z" fill="#EBEBEB"/>
<path d="M188.453 115.184H160.607V122.581H188.453V115.184Z" fill="#DDDDDD"/>
<path d="M224.09 115.185H197.189V122.582H224.09V115.185Z" fill="#C1C1C1"/>
<path d="M224.095 84.6572H191.348V92.055H224.095V84.6572Z" fill="#C1C1C1"/>
<path d="M97.5168 128.192H37.0723V135.59H97.5168V128.192Z" fill="#EBEBEB"/>
<path d="M188.449 128.192H106.494V135.59H188.449V128.192Z" fill="#DDDDDD"/>
<path d="M97.5122 141.201H60.4082V148.599H97.5122V141.201Z" fill="#DDDDDD"/>
<path d="M224.092 141.201H106.248V148.599H224.092V141.201Z" fill="#C1C1C1"/>
<path d="M88.5336 154.21H37.0723V161.608H88.5336V154.21Z" fill="#EBEBEB"/>
<path d="M188.452 154.21H97.5138V161.608H188.452V154.21Z" fill="#DDDDDD"/>
<path d="M224.09 154.21H197.19V161.608H224.09V154.21Z" fill="#C1C1C1"/>
<path d="M123.243 167.219H37.0723V174.617H123.243V167.219Z" fill="#EBEBEB"/>
<path d="M164.327 167.219H132.225V174.617H164.327V167.219Z" fill="#DDDDDD"/>
<path d="M224.094 167.219H173.064V174.617H224.094V167.219Z" fill="#C1C1C1"/>
<path d="M188.45 180.228H74.7656V187.625H188.45V180.228Z" fill="#DDDDDD"/>
<path d="M224.09 180.228H197.19V187.625H224.09V180.228Z" fill="#C1C1C1"/>
<path fill-rule="evenodd" clip-rule="evenodd" d="M42.5218 86.332L33.6602 89.601V92.3634L42.5218 95.6324V93.0102L36.7886 90.9836L42.5218 88.9543V86.332Z" fill="#C1C1C1"/>
<path fill-rule="evenodd" clip-rule="evenodd" d="M42.9004 99.0595H45.9425L51.8727 82.1484H48.8361L42.9004 99.0595Z" fill="#C1C1C1"/>
<path fill-rule="evenodd" clip-rule="evenodd" d="M52.0703 86.3311V88.9533L57.8062 90.9826L52.0703 93.0092V95.6315L60.9347 92.3624V89.6001L52.0703 86.3311Z" fill="#C1C1C1"/>
<path fill-rule="evenodd" clip-rule="evenodd" d="M436.144 100.546V198.547C436.144 200.548 435.348 202.467 433.93 203.883C432.513 205.298 430.591 206.093 428.586 206.093H268.558C266.553 206.093 264.631 205.298 263.214 203.883C261.796 202.467 261 200.548 261 198.547V100.546C261 98.5447 261.796 96.6253 263.214 95.2102C264.631 93.795 266.553 93 268.558 93H428.581C429.574 92.9993 430.557 93.1939 431.475 93.5729C432.392 93.9518 433.226 94.5075 433.929 95.2083C434.631 95.909 435.188 96.7411 435.568 97.657C435.948 98.5729 436.144 99.5546 436.144 100.546Z" fill="#F9F9F9"/>
<path fill-rule="evenodd" clip-rule="evenodd" d="M435.745 101.003V108.819H260.604V101.003C260.604 99.0017 261.4 97.0823 262.817 95.6672C264.235 94.252 266.157 93.457 268.161 93.457H428.182C429.175 93.4563 430.158 93.651 431.076 94.0299C431.993 94.4088 432.827 94.9645 433.529 95.6653C434.232 96.3661 434.789 97.1982 435.169 98.114C435.549 99.0299 435.745 100.012 435.745 101.003Z" fill="#F83718"/>
<path fill-rule="evenodd" clip-rule="evenodd" d="M295.198 101.134C295.198 101.987 294.945 102.821 294.47 103.53C293.996 104.239 293.321 104.792 292.532 105.118C291.743 105.444 290.875 105.53 290.037 105.363C289.199 105.197 288.43 104.786 287.826 104.183C287.222 103.58 286.81 102.812 286.644 101.975C286.477 101.139 286.562 100.272 286.889 99.4841C287.216 98.6962 287.77 98.0228 288.48 97.549C289.19 97.0752 290.025 96.8223 290.879 96.8223C292.025 96.8223 293.123 97.2766 293.933 98.0852C294.743 98.8939 295.198 99.9906 295.198 101.134Z" fill="white"/>
<path fill-rule="evenodd" clip-rule="evenodd" d="M283.964 101.134C283.964 101.987 283.71 102.821 283.236 103.53C282.761 104.239 282.087 104.792 281.298 105.118C280.509 105.444 279.64 105.53 278.802 105.363C277.965 105.197 277.195 104.786 276.591 104.183C275.987 103.58 275.576 102.812 275.409 101.975C275.243 101.139 275.328 100.272 275.655 99.4841C275.982 98.6962 276.535 98.0228 277.246 97.549C277.956 97.0752 278.791 96.8223 279.645 96.8223C280.79 96.8223 281.889 97.2766 282.699 98.0852C283.509 98.8939 283.964 99.9906 283.964 101.134Z" fill="white"/>
<path fill-rule="evenodd" clip-rule="evenodd" d="M272.433 101.135C272.433 101.988 272.179 102.822 271.705 103.531C271.23 104.24 270.556 104.793 269.766 105.119C268.977 105.445 268.109 105.531 267.271 105.364C266.433 105.198 265.664 104.787 265.06 104.184C264.456 103.581 264.045 102.813 263.878 101.976C263.711 101.14 263.797 100.273 264.124 99.4851C264.451 98.6972 265.004 98.0237 265.714 97.5499C266.425 97.0761 267.26 96.8232 268.114 96.8232C269.259 96.8232 270.358 97.2775 271.168 98.0862C271.978 98.8948 272.433 99.9916 272.433 101.135Z" fill="white"/>
<path d="M500.905 166.164H435.178C429.96 166.164 425.73 170.387 425.73 175.597V241.22C425.73 246.429 429.96 250.652 435.178 250.652H500.905C506.122 250.652 510.352 246.429 510.352 241.22V175.597C510.352 170.387 506.122 166.164 500.905 166.164Z" fill="#F9F9F9"/>
<path fill-rule="evenodd" clip-rule="evenodd" d="M457.348 205.188L445.571 209.225L457.348 213.26V219.86L437.527 212.68V205.77L457.348 198.591V205.188Z" fill="#C1C1C1"/>
<path fill-rule="evenodd" clip-rule="evenodd" d="M470.758 190.134H478.529L465.705 226.689H457.934L470.758 190.134Z" fill="#C1C1C1"/>
<path fill-rule="evenodd" clip-rule="evenodd" d="M498.548 205.769V212.679L478.725 219.859V213.259L490.504 209.224L478.725 205.187V198.59L498.548 205.769Z" fill="#C1C1C1"/>
<path fill-rule="evenodd" clip-rule="evenodd" d="M52.62 253.204H19.7808C19.1611 253.205 18.5474 253.083 17.9748 252.846C17.4022 252.61 16.8819 252.263 16.4437 251.825C16.0055 251.388 15.6579 250.868 15.4209 250.297C15.184 249.725 15.0621 249.112 15.0625 248.494V215.709C15.0625 214.459 15.5596 213.261 16.4445 212.378C17.3293 211.494 18.5294 210.998 19.7808 210.998H52.62C53.8714 210.998 55.0715 211.494 55.9563 212.378C56.8412 213.261 57.3383 214.459 57.3383 215.709V248.494C57.3386 249.112 57.2169 249.725 56.9799 250.297C56.7429 250.868 56.3953 251.388 55.9571 251.825C55.5189 252.263 54.9986 252.61 54.426 252.846C53.8534 253.083 53.2397 253.205 52.62 253.204Z" fill="#EBEBEB"/>
<path fill-rule="evenodd" clip-rule="evenodd" d="M40.3382 244.824C40.3489 245.635 40.1182 246.431 39.6755 247.111C39.2327 247.79 38.5978 248.324 37.8512 248.643C37.1045 248.962 36.2797 249.053 35.4813 248.904C34.6829 248.755 33.9468 248.373 33.3662 247.806C32.7857 247.238 32.3868 246.512 32.2201 245.718C32.0534 244.925 32.1265 244.099 32.43 243.347C32.7335 242.595 33.2538 241.949 33.925 241.493C34.5961 241.036 35.388 240.788 36.2002 240.781C37.2854 240.771 38.3302 241.191 39.1059 241.949C39.8815 242.707 40.3247 243.741 40.3382 244.824Z" fill="white"/>
<path fill-rule="evenodd" clip-rule="evenodd" d="M47.981 225.476C44.5798 222.925 40.432 221.564 36.1784 221.601C31.9247 221.639 27.8017 223.073 24.4461 225.684C23.3664 226.516 21.8602 226.667 20.9641 225.832C20.0679 224.996 20.3541 223.269 21.7253 222.202C25.846 218.993 30.91 217.228 36.1355 217.18C41.3609 217.131 46.4571 218.801 50.6371 221.932C52.0272 222.978 52.3349 224.705 51.4468 225.552C50.5588 226.398 49.0715 226.29 47.981 225.476Z" fill="white"/>
<path fill-rule="evenodd" clip-rule="evenodd" d="M44.0659 231.993C41.7555 230.443 39.0298 229.626 36.2464 229.651C33.463 229.675 30.7521 230.539 28.4695 232.13C27.3655 232.89 25.8593 233.049 24.9605 232.222C24.0616 231.394 24.4072 229.578 25.9376 228.511C28.9526 226.411 32.5329 225.27 36.2087 225.238C39.8845 225.206 43.4842 226.284 46.5357 228.33C48.0851 229.37 48.4711 231.187 47.583 232.022C46.6949 232.858 45.1834 232.734 44.0659 231.993Z" fill="white"/>
<path fill-rule="evenodd" clip-rule="evenodd" d="M39.8234 238.575C38.6894 238.011 37.4382 237.724 36.1717 237.735C34.9052 237.746 33.6592 238.056 32.5354 238.639C31.3775 239.213 29.8686 239.389 28.9454 238.583C28.0223 237.777 28.5513 235.734 30.4894 234.723C32.2349 233.818 34.1699 233.338 36.1368 233.321C38.1036 233.304 40.0466 233.751 41.8074 234.626C43.7617 235.599 44.3285 237.648 43.427 238.456C42.5254 239.265 40.9895 239.13 39.8234 238.575Z" fill="white"/>
<path fill-rule="evenodd" clip-rule="evenodd" d="M207.1 230.169C207.1 230.169 208.857 225.873 210.79 225.698C212.722 225.522 218.866 224.558 219.306 225.428C219.746 226.299 219.306 229.471 217.988 230.597C216.671 231.724 208.506 233.578 208.506 233.578L207.1 230.169Z" fill="white"/>
<path fill-rule="evenodd" clip-rule="evenodd" d="M160.338 202.246C161.064 200.745 161.88 198.077 162.282 193.323C162.22 193.792 161.396 199.791 159.086 203.19C149.582 209.402 131.391 230.185 131.753 234.123C131.753 234.123 125.342 223.27 125.234 223.205C125.234 223.205 113.414 208.2 127.424 199.605C134.541 195.234 134.504 189.634 134.209 184.756C133.915 179.878 136.15 158.914 150.405 164.403C150.405 164.403 152.697 163.387 153.722 163.538C153.257 163.628 152.823 163.833 152.459 164.136C154.111 164.039 156.478 164.163 158.449 165.282C163.685 168.249 168.363 194.862 160.338 202.246Z" fill="#0D0D0D"/>
<path fill-rule="evenodd" clip-rule="evenodd" d="M158.507 203.498C158.556 203.517 153.918 205.923 150.444 204.967C147.168 204.075 145.03 199.846 145.073 199.825C146.463 199.555 146.863 197.644 146.83 189.468L147.456 189.589L158.002 191.678C158.002 191.678 157.762 194.987 157.759 198.108C157.749 200.733 157.905 203.215 158.507 203.498Z" fill="#FFD3CC"/>
<path fill-rule="evenodd" clip-rule="evenodd" d="M158.001 191.678C158.001 191.678 157.761 194.988 157.758 198.109C151.855 197.947 148.735 192.571 147.455 189.59L158.001 191.678Z" fill="#F2C4BD"/>
<path fill-rule="evenodd" clip-rule="evenodd" d="M146.37 188.445C146.37 188.445 143.28 183.567 142.535 179.395C142.008 176.431 143.525 165.381 154.638 166.969C156.876 167.277 159.015 168.084 160.898 169.329C163.308 170.946 166.788 174.469 162.901 184.103L161.886 187.356L146.37 188.445Z" fill="#0D0D0D"/>
<path fill-rule="evenodd" clip-rule="evenodd" d="M159.98 194.629C159.98 194.629 146.014 194.861 146.009 186.178C146.003 177.494 144.189 171.679 153.102 171.161C162.015 170.644 163.751 173.961 164.461 176.856C165.171 179.75 163.611 194.349 159.98 194.629Z" fill="#FFD3CC"/>
<path fill-rule="evenodd" clip-rule="evenodd" d="M159.457 170.949C159.457 170.949 155.638 181.136 149.77 182.643C143.901 184.149 141.361 182.581 141.361 182.581C141.361 182.581 145.858 179.01 146.792 172.782C146.792 172.782 156.577 166.101 159.457 170.949Z" fill="#0D0D0D"/>
<path fill-rule="evenodd" clip-rule="evenodd" d="M158.51 171.776C158.51 171.776 161.368 174.053 162.062 176.263C162.756 178.473 163.072 183.025 164.402 182.871C164.402 182.871 167.282 175.948 164.046 172.029C160.607 167.876 158.51 171.776 158.51 171.776Z" fill="#0D0D0D"/>
<path fill-rule="evenodd" clip-rule="evenodd" d="M121.738 274.165C122.491 276.254 124.802 276.788 127.898 276.429C133.801 275.742 142.565 271.783 148.879 269.05C158.515 264.878 162.891 268.794 165.955 266.142C169.018 263.49 162.445 257.591 168.146 230.199C170.076 220.912 157.843 200.996 157.843 200.996C157.843 200.996 156.788 206.764 145.084 199.827C144.674 199.584 140.063 206.392 135.636 214.787C130.745 224.049 126.062 235.239 127.439 241.006C130.049 251.983 119.541 268.102 121.738 274.165Z" fill="#FFE00C"/>
<path fill-rule="evenodd" clip-rule="evenodd" d="M157.836 200.995L165.048 230.543C165.048 230.543 165.947 232.138 167.356 234.41C170.657 239.744 176.774 248.802 180.688 249.723C182.615 250.176 186.726 248.57 191.269 246.282C199.861 241.946 210.021 235.154 210.021 235.154C210.677 231.219 207.249 228.012 207.249 228.012C207.249 228.012 186.669 235.736 184.629 235.879C180.172 236.2 175.64 214.732 171.475 207.582C168.466 202.394 157.836 200.995 157.836 200.995Z" fill="#FFE00C"/>
<path fill-rule="evenodd" clip-rule="evenodd" d="M121.738 274.165C122.491 276.253 124.802 276.787 127.898 276.428C131.979 274.65 149.629 267.826 149.427 263.201C149.135 256.353 146.037 256.135 148.226 247.684C149.98 240.895 133.679 228.28 131.077 225.536C126.189 234.799 126.054 235.238 127.431 241.005C130.049 251.982 119.541 268.101 121.738 274.165Z" fill="#FEC047"/>
<path fill-rule="evenodd" clip-rule="evenodd" d="M151.006 247.519C151.006 247.519 153.959 245.226 156.753 245.767C159.547 246.309 160.91 248.233 160.802 249.104C160.694 249.974 159.217 252.437 157.082 252.656C154.947 252.874 148.871 251.343 148.871 251.343L151.006 247.519Z" fill="white"/>
<path fill-rule="evenodd" clip-rule="evenodd" d="M145.076 199.826C145.076 199.826 133.696 200.53 129.758 206.011C124.211 213.735 114.58 245.258 117.206 252.476L151.827 252.325C151.827 252.325 152.667 248.414 151.5 246.52C150.334 244.625 131.364 241.564 130.487 240.69C129.609 239.817 141.432 223.642 141.432 221.017C141.432 218.392 145.076 199.826 145.076 199.826Z" fill="#FFE00C"/>
<path fill-rule="evenodd" clip-rule="evenodd" d="M153.979 260.431H195.893L203.448 234.122H161.596L153.979 260.431Z" fill="#F1F1F1"/>
<path d="M195.751 259.406H140.953V260.43H195.751V259.406Z" fill="#C6C6C6"/>
<path fill-rule="evenodd" clip-rule="evenodd" d="M182.583 246.862C182.853 245.937 182.313 245.186 181.387 245.186C180.899 245.212 180.431 245.387 180.045 245.687C179.659 245.986 179.374 246.396 179.228 246.862C178.958 247.784 179.498 248.535 180.421 248.535C180.909 248.508 181.376 248.333 181.762 248.034C182.148 247.735 182.435 247.326 182.583 246.862Z" fill="#C6C6C6"/>
<path fill-rule="evenodd" clip-rule="evenodd" d="M152.65 176.629C153.897 176.721 153.826 177.707 152.903 177.947C143.062 180.41 149.559 176.395 152.65 176.629Z" fill="#0D0D0D"/>
<path fill-rule="evenodd" clip-rule="evenodd" d="M378.376 383.928C375.812 387.184 372.626 389.899 369.002 391.914C362.853 395.296 355.759 396.926 360.159 398.454C364.559 399.983 370.988 401.176 377.261 399.357C381.658 398.083 386.817 397.816 388.182 395.741C389.548 393.665 384.943 387.96 386.169 380.172C387.159 373.93 378.376 383.928 378.376 383.928Z" fill="#F83718"/>
<path fill-rule="evenodd" clip-rule="evenodd" d="M400.747 318.106C400.747 318.106 375.943 316.163 369.014 317.368C362.085 318.572 346.88 318.556 356.83 346.57C364.622 368.524 374.248 389.353 374.248 389.353C379.412 390.62 383.139 394.18 389.739 393.153C389.739 393.153 381.414 343.913 374.677 336.828C384.453 338.425 394.125 340.605 403.64 343.355C429.043 350.608 439.254 346.975 439.254 346.975L443.033 333.74L400.747 318.106Z" fill="#0D0D0D"/>
<path d="M300.835 300.719H280.078V303.12H300.835V300.719Z" fill="#0D0D0D"/>
<path fill-rule="evenodd" clip-rule="evenodd" d="M272.799 240.711L298.177 240.406L306.423 284.477L282.249 291.201L272.799 240.711Z" fill="#0D0D0D"/>
<path fill-rule="evenodd" clip-rule="evenodd" d="M274.754 242.309L283.524 289.167L304.559 283.313L296.837 242.045L274.754 242.309Z" fill="#EBEBEB"/>
<path fill-rule="evenodd" clip-rule="evenodd" d="M280.078 303.122H285.965V290.167L282.251 291.202L280.078 279.581V303.122Z" fill="#0D0D0D"/>
<path fill-rule="evenodd" clip-rule="evenodd" d="M364.492 308.333H268.846C268.441 308.333 268.109 307.398 268.109 306.247V305.204C268.109 304.054 268.441 303.121 268.846 303.121H364.492C364.902 303.121 365.231 304.054 365.231 305.204V306.247C365.231 307.398 364.902 308.333 364.492 308.333Z" fill="#8D8D8D"/>
<path fill-rule="evenodd" clip-rule="evenodd" d="M419.377 219.911C424.959 219.76 422.886 215.616 429.308 217.27C432.684 218.141 430.193 219.526 434.574 219.076C438.955 218.626 441.119 218.17 441.673 221.03C442.226 223.889 442.483 224.803 444.599 225.239C446.715 225.676 447.663 229.452 444.599 232.009C441.535 234.567 443.025 235.618 443.705 237.725C444.386 239.833 442.07 239.978 440.817 241.935C439.565 243.891 441.972 244.261 440.164 245.956C438.355 247.651 435.821 247.5 435.821 247.5L428.212 232.931L419.377 219.911Z" fill="#0D0D0D"/>
<path fill-rule="evenodd" clip-rule="evenodd" d="M369.744 393.984C367.18 397.24 363.993 399.954 360.369 401.969C354.22 405.354 347.124 406.982 351.524 408.512C355.923 410.043 362.353 411.232 368.626 409.413C373.029 408.138 378.187 407.871 379.547 405.796C380.908 403.721 377.941 398.519 379.178 390.72C380.165 384.479 369.744 393.984 369.744 393.984Z" fill="#F83718"/>
<path fill-rule="evenodd" clip-rule="evenodd" d="M406.019 318.278C406.019 318.278 373.784 317.076 366.855 318.278C359.926 319.48 344.721 319.47 354.668 347.481C362.461 369.437 365.03 397.234 365.03 397.234L380.524 401.034C380.524 401.034 379.911 351.049 372.518 337.742C382.293 339.337 391.964 341.516 401.479 344.266C426.884 351.518 440.815 347.888 440.815 347.888L444.594 334.653L406.019 318.278Z" fill="#0D0D0D"/>
<path fill-rule="evenodd" clip-rule="evenodd" d="M432.941 235.184L440.817 258.42L430.868 264.961L425.227 244.886L432.941 235.184Z" fill="#FFD3CC"/>
<path fill-rule="evenodd" clip-rule="evenodd" d="M429.977 261.791L425.227 244.886L432.941 235.184L435.821 243.684C434.828 251.359 432.423 257.708 429.977 261.791Z" fill="#F2C4BD"/>
<path fill-rule="evenodd" clip-rule="evenodd" d="M412.845 239.116C412.591 246.185 416.068 252.302 421.593 252.844C427.119 253.386 432.164 248.125 432.857 241.086C433.551 234.047 429.637 227.907 424.112 227.36C418.586 226.813 413.255 227.964 412.845 239.116Z" fill="#FFD3CC"/>
<path fill-rule="evenodd" clip-rule="evenodd" d="M444.6 257.744C468.777 274.043 453.74 300.387 448.43 319.637C443.909 336.036 444.058 345.946 443.38 345.946C442.703 345.946 426.075 343.461 416.584 334.896C410.84 329.705 405.521 324.062 400.678 318.023C400.678 318.023 412.824 315.867 416.811 300.158C418.828 292.189 417.913 287.861 422.509 275.227C427.106 262.592 444.6 257.744 444.6 257.744Z" fill="#FFE00C"/>
<path fill-rule="evenodd" clip-rule="evenodd" d="M444.6 257.743L442.011 251.418C442.011 251.418 433.802 256.83 430.523 259.387C427.243 261.945 425.227 262.546 425.227 262.546C425.227 262.546 424.045 271.612 424.811 270.79C434.504 260.422 444.6 257.743 444.6 257.743Z" fill="#D1D1D1"/>
<path fill-rule="evenodd" clip-rule="evenodd" d="M455.315 412.768H453.204L438.066 349.711H442.709L455.315 412.768Z" fill="#8D8D8D"/>
<path fill-rule="evenodd" clip-rule="evenodd" d="M392.08 412.769H394.191L411.561 347.482H406.918L392.08 412.769Z" fill="#8D8D8D"/>
<path fill-rule="evenodd" clip-rule="evenodd" d="M431.801 352.071C440.258 352.071 445.614 350.557 449.033 347.22C453.271 343.097 454.149 336.71 454.162 328.396C454.189 310.905 455.158 307.291 460.1 296.611C460.359 296.043 460.381 295.395 460.163 294.81C459.945 294.225 459.503 293.75 458.935 293.488C458.367 293.227 457.719 293.201 457.131 293.415C456.544 293.63 456.066 294.068 455.801 294.633C450.591 305.922 449.468 310.07 449.441 328.388C449.428 336.818 448.361 341.297 445.74 343.838C443.06 346.444 438.215 347.52 430.028 347.317C422.125 347.118 416.683 346.016 412.313 345.129C406.563 343.962 402.406 343.119 397.467 345.469C396.918 345.749 396.5 346.232 396.302 346.816C396.105 347.399 396.143 348.036 396.409 348.592C396.675 349.148 397.148 349.578 397.726 349.791C398.305 350.003 398.944 349.983 399.507 349.732C403.017 348.064 405.986 348.654 411.354 349.759C415.911 350.684 421.577 351.832 429.898 352.036C430.549 352.066 431.186 352.071 431.801 352.071Z" fill="#8D8D8D"/>
<path fill-rule="evenodd" clip-rule="evenodd" d="M443.703 281.479C443.703 281.479 437.676 299.826 430.207 307.421C422.738 315.015 407.744 317.567 403.047 317.268C406.793 315.764 413.925 311.485 416.794 300.149C418.811 292.18 417.895 287.852 422.492 275.218C425.904 265.84 436.423 260.757 441.617 258.76C435.138 263.409 427.041 271.062 424.538 276.889C421.785 283.357 443.703 281.479 443.703 281.479Z" fill="#FEC047"/>
<path fill-rule="evenodd" clip-rule="evenodd" d="M360.542 297.579C360.542 297.579 350.15 292.844 349.019 293.294C347.888 293.744 336.367 300.694 336.367 301.845C336.367 302.996 346.535 297.555 346.535 297.555C346.535 297.555 345.404 300.56 346.082 302.004C346.759 303.449 354.576 303.446 361.627 302.993C368.677 302.54 360.542 297.579 360.542 297.579Z" fill="white"/>
<path fill-rule="evenodd" clip-rule="evenodd" d="M443.37 267.301C452.952 286.907 420.086 306.78 400.592 308.55C381.098 310.321 357.943 303.944 357.943 303.944L360.554 297.579C360.554 297.579 399.615 292.491 400.605 291.777C401.596 291.062 439.863 260.121 443.37 267.301Z" fill="#FFE00C"/>
<path fill-rule="evenodd" clip-rule="evenodd" d="M412.835 220.919C410.187 219.817 407.204 218.634 408.127 223.126C408.529 225.08 408.127 224.528 407.428 226.333C406.729 228.139 409.196 229.567 410 230.556C410.805 231.546 408.829 232.65 410.438 233.852C412.046 235.054 414.163 233.408 415.661 233.852C420.128 235.184 419.577 231.675 422.085 230.945C424.593 230.214 425.826 230.327 426.307 231.931C426.787 233.534 424.547 238.814 426.455 238.315C428.363 237.817 428.793 242.072 429.305 244.482C429.818 246.891 431.127 242.819 431.044 240.067C430.914 235.847 431.962 234.073 433.522 232.893C435.082 231.713 435.743 220.97 428.21 220.569C420.676 220.167 420.63 219.44 417.413 218.76C414.195 218.081 414.041 221.42 412.835 220.919Z" fill="#0D0D0D"/>
<path fill-rule="evenodd" clip-rule="evenodd" d="M276.988 308.334H282.516V408.318H276.988V308.334ZM350.821 308.334H356.349V408.318H350.821V308.334Z" fill="#8D8D8D"/>
<path fill-rule="evenodd" clip-rule="evenodd" d="M432.151 229.301C433.56 229.301 434.937 229.718 436.108 230.5C437.28 231.281 438.193 232.392 438.732 233.692C439.271 234.992 439.412 236.422 439.137 237.801C438.862 239.181 438.183 240.448 437.187 241.443C436.19 242.437 434.921 243.115 433.539 243.389C432.157 243.663 430.724 243.522 429.423 242.983C428.121 242.444 427.009 241.532 426.227 240.362C425.444 239.192 425.027 237.817 425.027 236.41C425.027 235.476 425.212 234.552 425.57 233.689C425.928 232.826 426.452 232.042 427.114 231.382C427.775 230.722 428.561 230.198 429.425 229.841C430.289 229.484 431.215 229.3 432.151 229.301Z" fill="#D1D1D1"/>
<path fill-rule="evenodd" clip-rule="evenodd" d="M430.851 216.407H433.82C434.024 216.407 434.22 216.488 434.364 216.631C434.509 216.774 434.591 216.969 434.592 217.173V234.421C434.592 234.625 434.51 234.82 434.365 234.964C434.221 235.108 434.025 235.189 433.82 235.189H430.851C430.647 235.188 430.452 235.107 430.308 234.963C430.164 234.819 430.083 234.624 430.082 234.421V217.173C430.083 216.969 430.164 216.775 430.308 216.631C430.452 216.488 430.648 216.407 430.851 216.407Z" fill="#F83718"/>
<path d="M435.309 237.144C435.725 235.384 434.633 233.62 432.87 233.205C431.108 232.789 429.341 233.879 428.925 235.639C428.509 237.399 429.601 239.163 431.364 239.578C433.127 239.994 434.893 238.904 435.309 237.144Z" fill="white"/>
<path fill-rule="evenodd" clip-rule="evenodd" d="M61.0619 248.92C60.2521 260.145 58.584 261.694 47.8652 262.559C58.584 263.422 60.244 264.985 61.0619 276.193C61.8717 264.971 63.5398 263.422 74.2586 262.559C63.5398 261.694 61.8825 260.134 61.0619 248.92ZM104.631 278.522C104.193 284.515 103.308 285.34 97.5856 285.798C103.308 286.259 104.193 287.086 104.631 293.075C105.068 287.081 105.953 286.254 111.676 285.798C105.953 285.335 105.068 284.51 104.631 278.522ZM85.5658 232.402C85.1231 238.471 84.2161 239.31 78.4289 239.779C84.2269 240.245 85.1231 241.083 85.5658 247.149C86.0085 241.083 86.9154 240.245 92.6999 239.779C86.8911 239.315 85.995 238.471 85.5658 232.402Z" fill="white"/>
<path d="M306.906 163.865C306.906 165.636 306.697 167.302 306.281 168.865C305.899 170.427 305.204 171.799 304.197 172.979C303.225 174.125 301.888 175.045 300.187 175.74C298.52 176.399 296.402 176.729 293.833 176.729C291.472 176.729 289.441 176.451 287.739 175.896C286.038 175.306 284.632 174.629 283.521 173.865L286.229 167.563C287.236 168.153 288.312 168.674 289.458 169.125C290.604 169.577 291.854 169.802 293.208 169.802C295.187 169.802 296.611 169.316 297.479 168.344C298.347 167.372 298.781 165.74 298.781 163.448V139.907H306.906V163.865ZM337.933 176C337.551 174.75 337.117 173.465 336.631 172.146C336.18 170.827 335.728 169.507 335.277 168.188H321.215C320.763 169.507 320.295 170.827 319.808 172.146C319.357 173.465 318.94 174.75 318.558 176H310.121C311.475 172.111 312.76 168.518 313.975 165.219C315.191 161.921 316.371 158.813 317.517 155.896C318.697 152.98 319.843 150.219 320.954 147.615C322.1 144.977 323.281 142.407 324.496 139.907H332.256C333.437 142.407 334.6 144.977 335.745 147.615C336.891 150.219 338.037 152.98 339.183 155.896C340.363 158.813 341.561 161.921 342.777 165.219C343.992 168.518 345.276 172.111 346.631 176H337.933ZM328.194 148.084C328.02 148.605 327.76 149.317 327.412 150.219C327.065 151.122 326.666 152.164 326.215 153.344C325.763 154.525 325.26 155.827 324.704 157.251C324.183 158.674 323.645 160.167 323.09 161.73H333.35C332.794 160.167 332.256 158.674 331.735 157.251C331.214 155.827 330.711 154.525 330.225 153.344C329.773 152.164 329.374 151.122 329.027 150.219C328.68 149.317 328.402 148.605 328.194 148.084ZM358.624 176C357.2 172.979 355.794 169.837 354.405 166.573C353.016 163.309 351.697 160.08 350.447 156.886C349.197 153.692 348.034 150.636 346.957 147.72C345.916 144.803 345.013 142.199 344.249 139.907H353.207C353.902 141.991 354.648 144.247 355.447 146.678C356.28 149.074 357.113 151.469 357.947 153.865C358.815 156.261 359.648 158.553 360.447 160.74C361.245 162.927 361.992 164.82 362.686 166.417C363.346 164.82 364.075 162.927 364.873 160.74C365.707 158.553 366.54 156.261 367.373 153.865C368.241 151.469 369.075 149.074 369.873 146.678C370.707 144.247 371.471 141.991 372.165 139.907H380.811C380.012 142.199 379.092 144.803 378.05 147.72C377.009 150.636 375.863 153.692 374.613 156.886C373.363 160.08 372.043 163.309 370.655 166.573C369.266 169.837 367.86 172.979 366.436 176H358.624ZM406.24 176C405.858 174.75 405.424 173.465 404.937 172.146C404.486 170.827 404.035 169.507 403.583 168.188H389.521C389.07 169.507 388.601 170.827 388.115 172.146C387.664 173.465 387.247 174.75 386.865 176H378.428C379.782 172.111 381.067 168.518 382.282 165.219C383.497 161.921 384.678 158.813 385.823 155.896C387.004 152.98 388.15 150.219 389.261 147.615C390.407 144.977 391.587 142.407 392.802 139.907H400.563C401.743 142.407 402.906 144.977 404.052 147.615C405.198 150.219 406.344 152.98 407.489 155.896C408.67 158.813 409.868 161.921 411.083 165.219C412.298 168.518 413.583 172.111 414.937 176H406.24ZM396.5 148.084C396.327 148.605 396.066 149.317 395.719 150.219C395.372 151.122 394.972 152.164 394.521 153.344C394.07 154.525 393.566 155.827 393.011 157.251C392.49 158.674 391.952 160.167 391.396 161.73H401.656C401.101 160.167 400.563 158.674 400.042 157.251C399.521 155.827 399.017 154.525 398.531 153.344C398.08 152.164 397.681 151.122 397.334 150.219C396.986 149.317 396.709 148.605 396.5 148.084Z" fill="#C1C1C1"/>
<path fill-rule="evenodd" clip-rule="evenodd" d="M270.141 298.736V396.734C270.141 398.736 269.345 400.655 267.928 402.07C266.51 403.485 264.588 404.28 262.583 404.28H102.558C100.553 404.28 98.631 403.485 97.2137 402.07C95.7963 400.655 95 398.736 95 396.734V298.736C95 296.735 95.7963 294.816 97.2137 293.401C98.631 291.985 100.553 291.19 102.558 291.19H262.583C264.588 291.19 266.51 291.985 267.928 293.401C269.345 294.816 270.141 296.735 270.141 298.736Z" fill="#F9F9F9"/>
<path fill-rule="evenodd" clip-rule="evenodd" d="M270.141 298.736V306.552H95V298.736C95 296.735 95.7963 294.816 97.2137 293.401C98.631 291.985 100.553 291.19 102.558 291.19H262.583C264.588 291.19 266.51 291.985 267.928 293.401C269.345 294.816 270.141 296.735 270.141 298.736Z" fill="#C1C1C1"/>
<path fill-rule="evenodd" clip-rule="evenodd" d="M129.597 298.874C129.597 299.727 129.343 300.561 128.869 301.27C128.394 301.979 127.72 302.532 126.931 302.858C126.141 303.185 125.273 303.27 124.435 303.104C123.597 302.937 122.828 302.527 122.224 301.924C121.62 301.32 121.209 300.552 121.042 299.716C120.875 298.879 120.961 298.012 121.288 297.224C121.615 296.436 122.168 295.763 122.878 295.289C123.589 294.815 124.424 294.562 125.278 294.562C126.423 294.562 127.522 295.017 128.332 295.825C129.142 296.634 129.597 297.731 129.597 298.874Z" fill="white"/>
<path fill-rule="evenodd" clip-rule="evenodd" d="M118.354 298.874C118.354 299.727 118.101 300.561 117.627 301.27C117.152 301.979 116.478 302.532 115.688 302.858C114.899 303.185 114.031 303.27 113.193 303.104C112.355 302.937 111.586 302.527 110.982 301.924C110.378 301.32 109.966 300.552 109.8 299.716C109.633 298.879 109.719 298.012 110.046 297.224C110.372 296.436 110.926 295.763 111.636 295.289C112.346 294.815 113.181 294.562 114.036 294.562C115.181 294.562 116.28 295.017 117.089 295.825C117.899 296.634 118.354 297.731 118.354 298.874Z" fill="white"/>
<path fill-rule="evenodd" clip-rule="evenodd" d="M106.825 298.874C106.825 299.727 106.572 300.561 106.097 301.27C105.623 301.979 104.948 302.532 104.159 302.858C103.37 303.185 102.502 303.27 101.664 303.104C100.826 302.937 100.056 302.527 99.4525 301.924C98.8485 301.32 98.4371 300.552 98.2705 299.716C98.1038 298.879 98.1894 298.012 98.5162 297.224C98.8431 296.436 99.3967 295.763 100.107 295.289C100.817 294.815 101.652 294.562 102.506 294.562C103.652 294.562 104.75 295.017 105.56 295.825C106.37 296.634 106.825 297.731 106.825 298.874Z" fill="white"/>
<path d="M150.218 374.729C144.35 374.729 139.871 373.097 136.781 369.833C133.726 366.57 132.198 361.934 132.198 355.928C132.198 352.942 132.667 350.285 133.604 347.959C134.542 345.598 135.826 343.619 137.458 342.022C139.09 340.39 141.034 339.157 143.291 338.324C145.548 337.491 147.996 337.074 150.635 337.074C152.163 337.074 153.551 337.195 154.801 337.439C156.051 337.647 157.145 337.907 158.083 338.22C159.02 338.498 159.801 338.793 160.426 339.105C161.051 339.418 161.503 339.661 161.78 339.834L159.437 346.397C158.326 345.806 157.024 345.303 155.531 344.886C154.072 344.47 152.406 344.261 150.531 344.261C149.281 344.261 148.048 344.47 146.833 344.886C145.652 345.303 144.593 345.98 143.656 346.917C142.753 347.82 142.024 349.001 141.468 350.459C140.913 351.917 140.635 353.688 140.635 355.771C140.635 357.438 140.809 359 141.156 360.459C141.538 361.882 142.128 363.115 142.927 364.157C143.76 365.198 144.836 366.031 146.156 366.656C147.475 367.247 149.072 367.542 150.947 367.542C152.128 367.542 153.187 367.472 154.124 367.334C155.062 367.195 155.895 367.038 156.624 366.865C157.353 366.656 157.996 366.431 158.551 366.188C159.107 365.945 159.61 365.719 160.062 365.511L162.301 372.021C161.155 372.715 159.541 373.34 157.458 373.896C155.374 374.451 152.961 374.729 150.218 374.729ZM178.429 355.198H187.127V345.563H194.21V355.198H202.908V361.709H194.21V371.344H187.127V361.709H178.429V355.198ZM208.031 355.198H216.728V345.563H223.811V355.198H232.509V361.709H223.811V371.344H216.728V361.709H208.031V355.198Z" fill="#C1C1C1"/>
<path fill-rule="evenodd" clip-rule="evenodd" d="M161.562 343.028C161.288 343.329 161.107 343.702 161.04 344.104C160.974 344.505 161.025 344.916 161.187 345.289C161.727 346.799 163.543 348.483 165.641 350.165C165.911 350.38 166.148 350.58 166.353 350.76L166.515 350.903C166.556 350.943 166.599 350.979 166.639 351.016C168.594 352.816 167.859 353.229 171.374 356.883C175.38 361.044 178.144 361.12 178.932 360.742C179.59 360.419 178.243 358.212 176.745 355.73C176.672 355.608 176.605 355.487 176.529 355.366C176.33 355.04 176.135 354.7 175.938 354.369C174.184 351.383 174.632 349.979 175.047 345.537C175.388 341.923 180.681 325.355 180.681 325.355L172.996 324.031C172.996 324.031 170.685 337.237 168.137 339.261C166.772 340.339 165.246 340.355 163.94 341.147C163.846 341.204 163.754 341.26 163.67 341.32C162.894 341.792 162.185 342.367 161.562 343.028Z" fill="white"/>
<path fill-rule="evenodd" clip-rule="evenodd" d="M161.562 343.03C161.288 343.33 161.107 343.704 161.04 344.105C160.974 344.506 161.025 344.918 161.187 345.291C161.859 346.8 163.616 348.476 165.649 350.142C165.919 350.363 166.148 350.562 166.353 350.751L166.515 350.894C166.556 350.934 166.599 350.969 166.639 351.007C168.594 352.807 167.859 353.219 171.374 356.874C175.38 361.035 178.144 361.11 178.932 360.733C179.59 360.41 178.243 358.202 176.745 355.72C173.944 354.624 171.482 352.811 169.606 350.462C167.19 347.387 165.584 343.436 163.937 341.148C163.843 341.205 163.751 341.262 163.667 341.321C162.892 341.794 162.184 342.368 161.562 343.03Z" fill="#F83718"/>
<path fill-rule="evenodd" clip-rule="evenodd" d="M223.499 338.237C223.971 340.604 227.354 340.213 231.13 339.291C234.906 338.369 234.004 339.461 239.379 338.868C244.753 338.275 246.381 336.273 246.545 335.478C246.691 334.769 244.038 334.521 241.187 334.19C240.828 334.154 240.472 334.109 240.108 334.063C236.895 333.661 234.539 331.586 231.621 329.886C228.854 328.269 224.724 321.709 224.724 321.709L217.355 322.294C217.355 322.294 221.224 328.158 222.716 330.708C223.599 332.206 223.55 334.189 223.442 335.72C223.349 336.558 223.368 337.405 223.499 338.237Z" fill="white"/>
<path fill-rule="evenodd" clip-rule="evenodd" d="M231.128 339.299C234.907 338.377 234.003 339.469 239.377 338.876C244.751 338.283 246.379 336.281 246.544 335.485C246.69 334.777 244.036 334.529 241.186 334.197L241.161 334.254C238.859 335.73 236.2 336.556 233.466 336.644C229.816 336.731 225.957 335.688 223.441 335.728C223.348 336.566 223.367 337.412 223.497 338.245C223.97 340.603 227.352 340.213 231.128 339.299Z" fill="#F83718"/>
<path fill-rule="evenodd" clip-rule="evenodd" d="M195.254 291.189L179.371 333.867C177.766 333.985 176.151 333.837 174.594 333.427C172.434 332.808 169.973 331.183 169.973 331.183C169.973 331.183 173.914 290.219 181.137 281.684C188.36 273.149 195.254 291.189 195.254 291.189Z" fill="#0D0D0D"/>
<path fill-rule="evenodd" clip-rule="evenodd" d="M132.436 273.924C132.436 273.924 178.072 258.517 188.251 261.797C198.43 265.077 228.988 325.781 228.988 325.781C228.988 325.781 228.3 326.695 226.416 327.398C224.667 328.053 220.423 328.013 220.423 328.013C220.423 328.013 192.845 304.407 189.563 297.524C186.28 290.641 184.974 284.085 181.686 284.739C178.399 285.394 139.329 300.804 130.462 291.622C121.595 282.441 123.917 270.521 123.917 270.521L132.436 273.924Z" fill="#0D0D0D"/>
</svg>
