<svg width="100" height="100" viewBox="0 0 100 100" fill="none" xmlns="http://www.w3.org/2000/svg">
<path fill-rule="evenodd" clip-rule="evenodd" d="M78.0111 54.5604L72.3485 54.541C72.1174 54.541 71.8957 54.4492 71.7323 54.2858C71.5689 54.1223 71.477 53.9007 71.477 53.6696C71.477 53.4385 71.5689 53.2169 71.7323 53.0535C71.8957 52.8901 72.1174 52.7983 72.3485 52.7983L78.0086 52.8177C80.9653 52.7743 83.7862 51.5693 85.8617 49.4631C87.9372 47.3569 89.1007 44.5186 89.1007 41.5616C89.1007 38.6046 87.9372 35.7664 85.8617 33.6602C83.7862 31.554 80.9653 30.349 78.0086 30.3056C77.8096 30.3056 77.5984 30.3055 77.363 30.325C77.1922 30.3347 77.0223 30.2939 76.8747 30.2075C76.727 30.1212 76.6081 29.9932 76.5329 29.8395C75.6795 28.1133 74.4714 26.5867 72.9876 25.3593C71.5039 24.1319 69.7779 23.2314 67.9223 22.7166C66.0667 22.2019 64.1234 22.0845 62.2194 22.3721C60.3153 22.6597 58.4934 23.3458 56.8727 24.3856C56.7642 24.4557 56.6415 24.5007 56.5135 24.5174C56.3854 24.5342 56.2552 24.5223 56.1323 24.4826C56.0094 24.4428 55.897 24.3763 55.803 24.2878C55.709 24.1992 55.6357 24.0909 55.5887 23.9706C53.9374 19.7804 50.8759 16.2977 46.932 14.123C42.988 11.9483 38.4088 11.2179 33.984 12.0577C29.5592 12.8975 25.5661 15.2549 22.6932 18.7234C19.8203 22.1919 18.2477 26.5542 18.2465 31.058C18.2465 32.1265 18.3342 33.1931 18.5087 34.2473C18.5445 34.4666 18.4954 34.6914 18.3714 34.8758C18.2474 35.0602 18.0578 35.1904 17.8412 35.24C15.7231 35.7202 13.8563 36.9643 12.598 38.7344C11.3396 40.5045 10.7779 42.6764 11.0204 44.8347C11.2628 46.9929 12.2923 48.9861 13.9121 50.4329C15.5318 51.8797 17.6281 52.6786 19.7999 52.6769L38.0985 52.7255C38.3296 52.7255 38.5512 52.8173 38.7146 52.9807C38.878 53.1441 38.9698 53.3657 38.9698 53.5968C38.9698 53.8279 38.878 54.0495 38.7146 54.213C38.5512 54.3764 38.3296 54.4682 38.0985 54.4682L19.7999 54.4221C17.2689 54.4229 14.8216 53.5158 12.9025 51.8656C10.9835 50.2153 9.72019 47.9314 9.34207 45.4288C8.96394 42.9262 9.49614 40.371 10.8419 38.2274C12.1877 36.0839 14.2578 34.4942 16.6761 33.7473C16.294 30.7758 16.5495 27.7569 17.4257 24.8919C18.3018 22.0269 19.7784 19.3815 21.7572 17.1319C23.736 14.8824 26.1714 13.0804 28.9013 11.846C31.6311 10.6115 34.5927 9.97304 37.5887 9.97302C41.6505 9.97234 45.6261 11.1447 49.0376 13.3493C52.449 15.5538 55.1513 18.6968 56.8194 22.4002C58.6032 21.418 60.5637 20.7984 62.588 20.577C64.6122 20.3557 66.6603 20.537 68.6142 21.1105C70.5681 21.6839 72.3894 22.6383 73.973 23.9185C75.5565 25.1988 76.8711 26.7797 77.8412 28.5701H78.0135C81.4613 28.5701 84.7679 29.9398 87.2059 32.3777C89.6438 34.8157 91.0135 38.1223 91.0135 41.5701C91.0135 45.0179 89.6438 48.3245 87.2059 50.7625C84.7679 53.2005 81.4613 54.5701 78.0135 54.5701L78.0111 54.5604Z" fill="#F83718"/>
<path fill-rule="evenodd" clip-rule="evenodd" d="M25.2683 31.0191C25.0372 31.0191 24.8156 30.9273 24.6522 30.7639C24.4888 30.6005 24.397 30.3788 24.397 30.1477C24.4008 26.4492 25.8716 22.9032 28.4866 20.2877C31.1017 17.6722 34.6474 16.2008 38.346 16.1963C38.4645 16.19 38.5829 16.208 38.6943 16.249C38.8056 16.29 38.9073 16.3533 38.9934 16.4349C39.0794 16.5166 39.148 16.6149 39.1948 16.7239C39.2416 16.8328 39.2658 16.9502 39.2658 17.0688C39.2658 17.1875 39.2416 17.3049 39.1948 17.4138C39.148 17.5228 39.0794 17.6211 38.9934 17.7028C38.9073 17.7844 38.8056 17.8477 38.6943 17.8887C38.5829 17.9297 38.4645 17.9477 38.346 17.9414C35.1099 17.9453 32.0074 19.2325 29.7191 21.5208C27.4308 23.8091 26.1435 26.9116 26.1397 30.1477C26.14 30.2623 26.1177 30.3757 26.074 30.4816C26.0303 30.5874 25.9661 30.6836 25.8852 30.7646C25.8042 30.8456 25.708 30.9097 25.6022 30.9534C25.4963 30.9971 25.3828 31.0194 25.2683 31.0191Z" fill="#F83718"/>
<path fill-rule="evenodd" clip-rule="evenodd" d="M81.9406 19.6842C80.9062 19.6837 79.8952 19.3765 79.0354 18.8015C78.1755 18.2265 77.5054 17.4094 77.1099 16.4536C76.7143 15.4978 76.6111 14.4462 76.8132 13.4317C77.0153 12.4172 77.5137 11.4854 78.2453 10.7542C78.9769 10.0229 79.909 9.52498 80.9235 9.32335C81.9381 9.12173 82.9896 9.22544 83.9452 9.6214C84.9008 10.0174 85.7176 10.6878 86.2923 11.5479C86.8669 12.408 87.1737 13.4192 87.1737 14.4536C87.1717 15.8407 86.6197 17.1703 85.6387 18.1509C84.6576 19.1315 83.3277 19.6829 81.9406 19.6842ZM81.9406 10.9657C81.2508 10.9657 80.5764 11.1703 80.0028 11.5536C79.4292 11.9368 78.9822 12.4815 78.7182 13.1189C78.4542 13.7562 78.3851 14.4575 78.5197 15.134C78.6543 15.8106 78.9866 16.4321 79.4743 16.9199C79.9621 17.4077 80.5835 17.7399 81.2601 17.8745C81.9367 18.009 82.638 17.94 83.2754 17.676C83.9127 17.412 84.4574 16.9649 84.8407 16.3914C85.2239 15.8178 85.4285 15.1434 85.4285 14.4536C85.4279 13.5288 85.0602 12.642 84.4062 11.988C83.7523 11.3341 82.8655 10.9664 81.9406 10.9657Z" fill="#F83718"/>
<path fill-rule="evenodd" clip-rule="evenodd" d="M20.0382 82.4632C18.6585 82.4637 17.3095 82.055 16.162 81.2887C15.0145 80.5225 14.1201 79.4333 13.5917 78.1587C13.0634 76.884 12.9249 75.4814 13.1938 74.128C13.4627 72.7747 14.1268 71.5316 15.1023 70.5557C16.0778 69.5799 17.3208 68.9153 18.674 68.6459C20.0272 68.3766 21.4299 68.5146 22.7047 69.0425C23.9795 69.5704 25.0691 70.4645 25.8357 71.6117C26.6023 72.7589 27.0115 74.1077 27.0115 75.4875C27.009 77.3363 26.2735 79.1088 24.9664 80.4164C23.6592 81.7239 21.8871 82.46 20.0382 82.4632ZM20.0382 70.2544C19.0031 70.254 17.9911 70.5605 17.1302 71.1352C16.2693 71.7099 15.5983 72.527 15.2018 73.4832C14.8054 74.4393 14.7014 75.4916 14.903 76.5069C15.1047 77.5221 15.6029 78.4548 16.3346 79.1869C17.0664 79.919 17.9988 80.4176 19.014 80.6197C20.0291 80.8218 21.0815 80.7184 22.0378 80.3224C22.9942 79.9264 23.8116 79.2556 24.3867 78.395C24.9618 77.5344 25.2688 76.5226 25.2688 75.4875C25.2675 74.1004 24.7161 72.7705 23.7355 71.7895C22.755 70.8084 21.4253 70.2564 20.0382 70.2544Z" fill="#F83718"/>
<rect x="38.7138" y="35.0725" width="33.0097" height="54.6117" rx="4.97573" fill="white" stroke="#F83718" stroke-width="1.69903"/>
<path d="M38.5923 78.6405H71.602" stroke="#F83718" stroke-width="1.69903"/>
<circle cx="55.3399" cy="83.9802" r="2.18447" fill="#F83718" stroke="#F83718" stroke-width="1.45631"/>
<path fill-rule="evenodd" clip-rule="evenodd" d="M48.646 62.9568C48.5323 62.9574 48.4215 62.9213 48.33 62.8538L46.3088 61.3821L44.2861 62.8509C44.1944 62.918 44.0838 62.9542 43.9702 62.9544C43.8566 62.9546 43.7459 62.9188 43.654 62.852C43.5621 62.7853 43.4938 62.6911 43.4588 62.583C43.4239 62.475 43.4241 62.3586 43.4596 62.2507L44.2324 59.8742L42.2097 58.4054C42.1186 58.3384 42.0508 58.2444 42.0161 58.1366C41.9815 58.0289 41.9816 57.913 42.0166 57.8054C42.0516 57.6978 42.1197 57.604 42.2111 57.5373C42.3025 57.4706 42.4126 57.4344 42.5258 57.4339H45.0241L45.7969 55.0574C45.8332 54.9517 45.9016 54.8599 45.9926 54.7949C46.0836 54.7299 46.1926 54.6949 46.3044 54.6949C46.4162 54.6949 46.5253 54.7299 46.6162 54.7949C46.7072 54.8599 46.7756 54.9517 46.8119 55.0574L47.5847 57.4339H50.083C50.1961 57.4344 50.3062 57.4706 50.3977 57.5373C50.4891 57.604 50.5571 57.6978 50.5921 57.8054C50.6272 57.913 50.6273 58.0289 50.5926 58.1366C50.558 58.2444 50.4903 58.3384 50.3991 58.4054L48.3764 59.8742L49.1492 62.2521C49.1839 62.3598 49.1836 62.4757 49.1485 62.5833C49.1133 62.6908 49.0451 62.7845 48.9534 62.8509C48.8646 62.9176 48.7571 62.9546 48.646 62.9568Z" fill="#F83718"/>
<path fill-rule="evenodd" clip-rule="evenodd" d="M58.4477 60.2223C58.334 60.2227 58.2232 60.1866 58.1316 60.1193L55.2317 58.0183L52.3318 60.1193C52.2401 60.1864 52.1296 60.2226 52.016 60.2228C51.9025 60.223 51.7917 60.1871 51.6998 60.1204C51.6079 60.0536 51.5396 59.9594 51.5047 59.8514C51.4697 59.7433 51.4699 59.6269 51.5054 59.519L52.6117 56.1189L49.7118 54.0165C49.6197 53.95 49.5511 53.8561 49.5159 53.7483C49.4806 53.6404 49.4804 53.5242 49.5154 53.4162C49.5503 53.3082 49.6187 53.2141 49.7105 53.1474C49.8023 53.0807 49.9129 53.0449 50.0264 53.045H53.6034L54.7083 49.6434C54.7434 49.5357 54.8117 49.4418 54.9033 49.3751C54.995 49.3085 55.1053 49.2724 55.2187 49.2722C55.3322 49.2721 55.4429 49.308 55.5349 49.3747C55.6268 49.4414 55.6953 49.5354 55.7305 49.6434L56.8353 53.045H60.4124C60.5259 53.0449 60.6365 53.0807 60.7283 53.1474C60.8202 53.2141 60.8884 53.3082 60.9234 53.4162C60.9584 53.5242 60.9582 53.6404 60.9229 53.7483C60.8876 53.8561 60.8191 53.95 60.7271 54.0165L57.8272 56.1189L58.932 59.519C58.9674 59.6267 58.9677 59.743 58.9328 59.8508C58.8978 59.9587 58.8295 60.0528 58.7377 60.1193C58.6538 60.1823 58.5526 60.2182 58.4477 60.2223Z" fill="#F83718"/>
<path fill-rule="evenodd" clip-rule="evenodd" d="M62.0249 62.9572C61.9401 62.9573 61.8566 62.9372 61.781 62.8988C61.7055 62.8603 61.6401 62.8044 61.5903 62.7358C61.5405 62.6672 61.5077 62.5877 61.4945 62.504C61.4813 62.4202 61.4882 62.3346 61.5145 62.254L62.2874 59.8775L60.2647 58.4087C60.1727 58.3423 60.1041 58.2484 60.0688 58.1405C60.0335 58.0326 60.0334 57.9164 60.0683 57.8084C60.1033 57.7004 60.1716 57.6063 60.2635 57.5396C60.3553 57.4729 60.4659 57.4371 60.5794 57.4372H63.079L63.8505 55.0607C63.8859 54.9529 63.9544 54.859 64.0463 54.7923C64.1382 54.7257 64.2487 54.6897 64.3623 54.6896C64.4756 54.6896 64.5861 54.7255 64.6778 54.7922C64.7695 54.8588 64.8377 54.9529 64.8726 55.0607L65.644 57.4372H68.1437C68.2572 57.4371 68.3678 57.4729 68.4596 57.5396C68.5515 57.6063 68.6198 57.7004 68.6548 57.8084C68.6897 57.9164 68.6896 58.0326 68.6543 58.1405C68.619 58.2484 68.5504 58.3423 68.4584 58.4087L66.4371 59.8775L67.2085 62.2554C67.2434 62.3632 67.2434 62.4793 67.2082 62.5871C67.1731 62.6949 67.1047 62.7887 67.013 62.8552C66.9212 62.9217 66.8107 62.9574 66.6973 62.9573C66.584 62.9571 66.4736 62.921 66.3821 62.8542L64.3652 61.3825L62.3352 62.8542C62.2453 62.9204 62.1366 62.9565 62.0249 62.9572Z" fill="#F83718"/>
</svg>
