<svg width="100" height="100" viewBox="0 0 100 100" fill="none" xmlns="http://www.w3.org/2000/svg">
<path fill-rule="evenodd" clip-rule="evenodd" d="M39.2918 71.6746C39.1015 71.6756 38.916 71.6151 38.7627 71.5022L35.3793 69.0386L31.9933 71.4973C31.8398 71.6096 31.6547 71.6703 31.4646 71.6706C31.2745 71.6709 31.0891 71.6109 30.9353 71.4992C30.7815 71.3874 30.6671 71.2298 30.6086 71.0489C30.5501 70.868 30.5505 70.6732 30.6098 70.4925L31.9035 66.5144L28.5176 64.0556C28.3649 63.9435 28.2515 63.786 28.1935 63.6057C28.1354 63.4254 28.1357 63.2314 28.1943 63.0513C28.2529 62.8711 28.3668 62.7141 28.5199 62.6024C28.6729 62.4908 28.8572 62.4302 29.0467 62.4294H33.2287L34.5224 58.4512C34.5831 58.2742 34.6977 58.1205 34.85 58.0117C35.0023 57.9029 35.1847 57.8444 35.3719 57.8444C35.5591 57.8444 35.7417 57.9029 35.894 58.0117C36.0463 58.1205 36.1607 58.2742 36.2214 58.4512L37.5151 62.4294H41.6972C41.8866 62.4302 42.0709 62.4908 42.224 62.6024C42.377 62.7141 42.4909 62.8711 42.5495 63.0513C42.6081 63.2314 42.6084 63.4254 42.5504 63.6057C42.4923 63.786 42.379 63.9435 42.2263 64.0556L38.8404 66.5144L40.1341 70.4949C40.1922 70.6752 40.1917 70.8692 40.1329 71.0493C40.074 71.2293 39.9597 71.3862 39.8064 71.4973C39.6577 71.6089 39.4777 71.671 39.2918 71.6746Z" fill="#F83718"/>
<path fill-rule="evenodd" clip-rule="evenodd" d="M55.6996 67.0967C55.5093 67.0974 55.3238 67.037 55.1704 66.9244L50.3161 63.4074L45.4617 66.9244C45.3082 67.0366 45.1232 67.0973 44.9331 67.0976C44.743 67.0979 44.5577 67.0379 44.4038 66.9262C44.25 66.8144 44.1356 66.6568 44.0771 66.4759C44.0186 66.295 44.019 66.1001 44.0783 65.9195L45.9302 60.2278L41.0758 56.7083C40.9218 56.5971 40.807 56.44 40.7479 56.2594C40.6888 56.0788 40.6885 55.8842 40.7471 55.7035C40.8056 55.5228 40.92 55.3652 41.0737 55.2536C41.2274 55.1419 41.4125 55.0819 41.6025 55.0821H47.5903L49.4399 49.388C49.4987 49.2076 49.613 49.0504 49.7664 48.9389C49.9198 48.8273 50.1046 48.767 50.2943 48.7666C50.4844 48.7665 50.6696 48.8265 50.8235 48.9382C50.9775 49.0498 51.0922 49.2072 51.1511 49.388L53.0005 55.0821H58.9885C59.1785 55.0819 59.3636 55.1419 59.5173 55.2536C59.671 55.3652 59.7853 55.5228 59.8438 55.7035C59.9024 55.8842 59.9021 56.0788 59.843 56.2594C59.7839 56.44 59.6692 56.5971 59.5152 56.7083L54.6608 60.2278L56.5102 65.9195C56.5695 66.0998 56.57 66.2944 56.5115 66.475C56.4531 66.6556 56.3387 66.813 56.185 66.9244C56.0445 67.0298 55.8752 67.0899 55.6996 67.0967Z" fill="#F83718"/>
<path fill-rule="evenodd" clip-rule="evenodd" d="M61.6876 71.6747C61.5457 71.6748 61.4058 71.6413 61.2793 71.5769C61.1529 71.5125 61.0434 71.419 60.9601 71.3041C60.8767 71.1892 60.8217 71.0562 60.7997 70.916C60.7777 70.7758 60.7891 70.6324 60.8332 70.4975L62.127 66.5194L58.7411 64.0606C58.5871 63.9494 58.4722 63.7922 58.4132 63.6117C58.3541 63.4311 58.3538 63.2365 58.4123 63.0557C58.4709 62.875 58.5853 62.7175 58.739 62.6058C58.8927 62.4942 59.0778 62.4342 59.2678 62.4344H63.4522L64.7435 58.4562C64.8028 58.2757 64.9175 58.1184 65.0713 58.0069C65.2252 57.8953 65.4102 57.8351 65.6003 57.8349C65.7901 57.8349 65.975 57.895 66.1285 58.0066C66.282 58.1183 66.3962 58.2756 66.4546 58.4562L67.7459 62.4344H71.9304C72.1204 62.4342 72.3055 62.4942 72.4592 62.6058C72.6129 62.7175 72.7273 62.875 72.7858 63.0557C72.8444 63.2365 72.8441 63.4311 72.785 63.6117C72.7259 63.7922 72.6111 63.9494 72.4571 64.0606L69.0736 66.5194L70.3648 70.4999C70.4233 70.6804 70.4231 70.8748 70.3643 71.0552C70.3055 71.2356 70.1911 71.3927 70.0375 71.504C69.8838 71.6153 69.6989 71.6751 69.5091 71.6748C69.3194 71.6745 69.1347 71.6141 68.9814 71.5023L65.6051 69.0388L62.2071 71.5023C62.0565 71.6132 61.8746 71.6735 61.6876 71.6747Z" fill="#F83718"/>
<path fill-rule="evenodd" clip-rule="evenodd" d="M77.811 90.9998H22.2674C19.9797 90.9972 17.7865 90.0873 16.1688 88.4697C14.5512 86.852 13.6412 84.6588 13.6387 82.3711V33.1163C13.6412 30.8288 14.5513 28.6359 16.169 27.0186C17.7867 25.4014 19.9799 24.492 22.2674 24.4901H77.811C80.0985 24.492 82.2918 25.4014 83.9095 27.0186C85.5272 28.6359 86.4371 30.8288 86.4396 33.1163V82.3687C86.4364 84.6562 85.5264 86.849 83.9089 88.4665C82.2914 90.084 80.0985 90.9941 77.811 90.9973V90.9998ZM22.2674 26.2886C20.4567 26.2912 18.7208 27.0116 17.4405 28.2919C16.1602 29.5723 15.4398 31.308 15.4373 33.1187V82.3711C15.4392 84.182 16.1593 85.9182 17.4398 87.1986C18.7203 88.4791 20.4565 89.1993 22.2674 89.2012H77.811C79.6219 89.1993 81.358 88.4791 82.6385 87.1986C83.919 85.9182 84.6392 84.182 84.6412 82.3711V33.1163C84.6392 31.3054 83.919 29.5693 82.6385 28.2888C81.358 27.0083 79.6219 26.2881 77.811 26.2862L22.2674 26.2886Z" fill="#F83718"/>
<path fill-rule="evenodd" clip-rule="evenodd" d="M85.5395 38.8708H14.5395C14.4174 38.8772 14.2955 38.8587 14.1808 38.8163C14.0662 38.774 13.9614 38.7088 13.8728 38.6246C13.7842 38.5405 13.7136 38.4392 13.6654 38.327C13.6172 38.2147 13.5923 38.0937 13.5923 37.9716C13.5923 37.8494 13.6172 37.7285 13.6654 37.6162C13.7136 37.5039 13.7842 37.4027 13.8728 37.3185C13.9614 37.2344 14.0662 37.1692 14.1808 37.1268C14.2955 37.0845 14.4174 37.066 14.5395 37.0723H85.5395C85.7699 37.0843 85.9869 37.1843 86.1458 37.3516C86.3046 37.5189 86.3932 37.7408 86.3932 37.9716C86.3932 38.2023 86.3046 38.4242 86.1458 38.5916C85.9869 38.7589 85.7699 38.8589 85.5395 38.8708Z" fill="#F83718"/>
<path fill-rule="evenodd" clip-rule="evenodd" d="M40.8255 34.6018C40.2494 34.6018 39.6863 34.4309 39.2073 34.1109C38.7283 33.7908 38.355 33.3359 38.1345 32.8037C37.9141 32.2715 37.8564 31.6859 37.9688 31.1209C38.0812 30.5559 38.3586 30.0369 38.766 29.6296C39.1733 29.2222 39.6922 28.9448 40.2572 28.8325C40.8222 28.7201 41.4079 28.7777 41.9401 28.9982C42.4724 29.2186 42.9272 29.592 43.2472 30.0709C43.5673 30.5499 43.7381 31.1131 43.7381 31.6891C43.7381 32.4616 43.4313 33.2024 42.8851 33.7486C42.3388 34.2949 41.598 34.6018 40.8255 34.6018Z" fill="#F83718"/>
<path fill-rule="evenodd" clip-rule="evenodd" d="M32.7385 34.6018C32.1624 34.6018 31.5994 34.4309 31.1204 34.1109C30.6414 33.7908 30.268 33.3359 30.0476 32.8037C29.8271 32.2715 29.7695 31.6859 29.8819 31.1209C29.9943 30.5559 30.2716 30.0369 30.6789 29.6296C31.0863 29.2222 31.6053 28.9448 32.1703 28.8325C32.7353 28.7201 33.3209 28.7777 33.8531 28.9982C34.3853 29.2186 34.8403 29.592 35.1603 30.0709C35.4804 30.5499 35.6511 31.1131 35.6511 31.6891C35.6511 32.4616 35.3442 33.2024 34.798 33.7486C34.2518 34.2949 33.5109 34.6018 32.7385 34.6018Z" fill="#F83718"/>
<path fill-rule="evenodd" clip-rule="evenodd" d="M24.6486 34.6018C24.0726 34.6018 23.5095 34.4309 23.0305 34.1109C22.5516 33.7908 22.1782 33.3359 21.9578 32.8037C21.7373 32.2715 21.6797 31.6859 21.7921 31.1209C21.9045 30.5559 22.1819 30.0369 22.5892 29.6296C22.9965 29.2222 23.5155 28.9448 24.0805 28.8325C24.6455 28.7201 25.2311 28.7777 25.7633 28.9982C26.2955 29.2186 26.7504 29.592 27.0705 30.0709C27.3905 30.5499 27.5613 31.1131 27.5613 31.6891C27.5613 32.4616 27.2544 33.2024 26.7082 33.7486C26.162 34.2949 25.4211 34.6018 24.6486 34.6018Z" fill="#F83718"/>
<path fill-rule="evenodd" clip-rule="evenodd" d="M78.3502 83.8082H21.7289C21.6109 83.8085 21.494 83.7855 21.3849 83.7405C21.2758 83.6954 21.1767 83.6293 21.0932 83.5459C21.0097 83.4624 20.9436 83.3632 20.8986 83.2541C20.8536 83.145 20.8305 83.0281 20.8308 82.9101V45.1625C20.8308 44.9243 20.9255 44.6959 21.0939 44.5275C21.2623 44.3591 21.4907 44.2645 21.7289 44.2645H78.3502C78.5884 44.2645 78.8169 44.3591 78.9853 44.5275C79.1538 44.6959 79.2483 44.9243 79.2483 45.1625V82.9101C79.2483 83.1483 79.1538 83.3767 78.9853 83.5452C78.8169 83.7136 78.5884 83.8082 78.3502 83.8082ZM22.6294 82.012H77.4522V46.0606H22.6294V82.012Z" fill="#F83718"/>
<path fill-rule="evenodd" clip-rule="evenodd" d="M78.3498 77.5168H21.7285C21.4981 77.5049 21.2811 77.4049 21.1222 77.2376C20.9634 77.0702 20.8748 76.8483 20.8748 76.6176C20.8748 76.3869 20.9634 76.1649 21.1222 75.9976C21.2811 75.8303 21.4981 75.7303 21.7285 75.7183H78.3498C78.5803 75.7303 78.7973 75.8303 78.9562 75.9976C79.115 76.1649 79.2036 76.3869 79.2036 76.6176C79.2036 76.8483 79.115 77.0702 78.9562 77.2376C78.7973 77.4049 78.5803 77.5049 78.3498 77.5168Z" fill="#F83718"/>
<path fill-rule="evenodd" clip-rule="evenodd" d="M81.0464 19.0993C80.1573 19.0998 79.2879 18.8366 78.5484 18.3429C77.8088 17.8493 77.2322 17.1474 76.8916 16.326C76.551 15.5047 76.4618 14.6008 76.6349 13.7287C76.8081 12.8565 77.236 12.0554 77.8645 11.4265C78.4931 10.7976 79.294 10.3692 80.1661 10.1956C81.0381 10.0219 81.942 10.1108 82.7636 10.451C83.5851 10.7911 84.2874 11.3672 84.7814 12.1065C85.2754 12.8458 85.5391 13.715 85.5391 14.6041C85.5378 15.7955 85.0641 16.9377 84.2219 17.7804C83.3797 18.623 82.2378 19.0974 81.0464 19.0993ZM81.0464 11.9099C80.513 11.9095 79.9913 12.0672 79.5476 12.3633C79.1038 12.6593 78.7578 13.0802 78.5533 13.5729C78.3489 14.0656 78.2951 14.6079 78.3989 15.1312C78.5027 15.6544 78.7593 16.1352 79.1363 16.5125C79.5133 16.8899 79.9938 17.1469 80.517 17.2512C81.0402 17.3554 81.5825 17.3022 82.0754 17.0982C82.5682 16.8941 82.9896 16.5485 83.286 16.1049C83.5824 15.6614 83.7406 15.14 83.7406 14.6066C83.74 13.892 83.456 13.2068 82.9509 12.7013C82.4459 12.1958 81.761 11.9112 81.0464 11.9099Z" fill="#F83718"/>
<path fill-rule="evenodd" clip-rule="evenodd" d="M28.9179 20.0094C27.8511 20.0094 26.8083 19.693 25.9214 19.1003C25.0344 18.5076 24.3431 17.6651 23.935 16.6795C23.5268 15.6939 23.4202 14.6093 23.6285 13.5631C23.8368 12.5169 24.3507 11.5559 25.1052 10.8017C25.8597 10.0475 26.8208 9.53413 27.8672 9.32631C28.9135 9.11849 29.9981 9.22558 30.9835 9.63415C31.9689 10.0427 32.811 10.7344 33.4033 11.6216C33.9957 12.5089 34.3115 13.5518 34.311 14.6186C34.3091 16.0481 33.7403 17.4185 32.7292 18.4291C31.7182 19.4398 30.3475 20.0081 28.9179 20.0094ZM28.9179 11.0288C28.2068 11.0288 27.5118 11.2396 26.9206 11.6347C26.3294 12.0298 25.8686 12.5914 25.5966 13.2484C25.3246 13.9054 25.2535 14.6282 25.3924 15.3256C25.5313 16.023 25.874 16.6635 26.3769 17.1661C26.8799 17.6688 27.5206 18.0109 28.2181 18.1493C28.9155 18.2878 29.6384 18.2162 30.2952 17.9438C30.952 17.6713 31.5132 17.2102 31.9079 16.6188C32.3026 16.0273 32.5131 15.3321 32.5126 14.621C32.5142 14.1478 32.4224 13.6789 32.2425 13.2413C32.0626 12.8036 31.798 12.4058 31.4641 12.0705C31.1302 11.7352 30.7334 11.4691 30.2965 11.2874C29.8595 11.1058 29.3911 11.0121 28.9179 11.0118V11.0288Z" fill="#F83718"/>
</svg>
