<svg width="100" height="100" viewBox="0 0 100 100" fill="none" xmlns="http://www.w3.org/2000/svg">
<path fill-rule="evenodd" clip-rule="evenodd" d="M31.6283 54.4219C29.733 54.4219 27.8803 53.8599 26.3045 52.807C24.7287 51.7541 23.5005 50.2575 22.7752 48.5065C22.0499 46.7555 21.8602 44.8288 22.2299 42.97C22.5997 41.1111 23.5123 39.4037 24.8524 38.0636C26.1925 36.7234 27.9 35.8108 29.7588 35.441C31.6176 35.0713 33.5444 35.261 35.2953 35.9863C37.0463 36.7116 38.5429 37.9398 39.5958 39.5157C40.6488 41.0915 41.2108 42.9442 41.2108 44.8394C41.2076 47.3799 40.197 49.8154 38.4006 51.6117C36.6042 53.4081 34.1687 54.4187 31.6283 54.4219ZM33.57 43.2569L34.2982 41.8855C33.9763 41.701 33.6423 41.5388 33.2982 41.4001C32.9036 41.2428 32.4883 41.1439 32.0652 41.1064V40.0846H31.3662V41.1064C31.0556 41.136 30.7507 41.2096 30.4608 41.3249C30.1913 41.4304 29.9442 41.5861 29.7327 41.7836C29.5266 41.9844 29.3617 42.2235 29.2472 42.4875C29.1214 42.7827 29.0593 43.1011 29.0652 43.4219C29.0605 43.6633 29.1 43.9035 29.1817 44.1307C29.2603 44.332 29.3811 44.514 29.5361 44.6647C29.7132 44.8331 29.9165 44.9716 30.138 45.0749C30.4151 45.207 30.7025 45.3166 30.9972 45.4025L31.4827 45.5457V46.888C31.2415 46.8568 31.0041 46.8015 30.7739 46.7229C30.5458 46.6452 30.3395 46.5627 30.1574 46.4802C30.0017 46.4094 29.8509 46.3283 29.7059 46.2375C29.6279 46.1889 29.5547 46.1328 29.4875 46.07L28.7594 47.5263C29.14 47.7772 29.5532 47.9748 29.9875 48.1137C30.4357 48.2595 30.8991 48.3539 31.3686 48.3953V49.5797H32.0652V48.4074C32.3785 48.3944 32.6891 48.343 32.9899 48.2545C33.2716 48.1747 33.5358 48.043 33.7691 47.8661C33.9972 47.69 34.1823 47.4642 34.3103 47.2059C34.4501 46.9017 34.519 46.5698 34.5118 46.2351C34.5189 45.944 34.4652 45.6546 34.354 45.3855C34.2525 45.1544 34.1008 44.9488 33.9098 44.7836C33.6991 44.6082 33.4614 44.4681 33.2059 44.3686C32.9024 44.2477 32.592 44.1447 32.2764 44.0603L31.9535 43.9802V42.5967C32.1444 42.6236 32.3322 42.6691 32.5142 42.7326C32.6987 42.7982 32.8686 42.8637 33.0191 42.9341C33.1477 42.9925 33.2725 43.059 33.3928 43.1331C33.4575 43.1676 33.5172 43.2109 33.57 43.2618V43.2569ZM30.7691 43.1671C30.7656 43.2427 30.7797 43.318 30.8105 43.3871C30.8413 43.4562 30.8878 43.5172 30.9463 43.5652C31.1029 43.688 31.2817 43.7795 31.4729 43.8346V42.5919C30.9996 42.6331 30.7642 42.8346 30.7642 43.1792L30.7691 43.1671ZM32.7302 46.3807C32.733 46.3 32.7147 46.2201 32.6773 46.1486C32.6399 46.0771 32.5845 46.0166 32.5166 45.9729C32.341 45.8589 32.1508 45.7691 31.9511 45.7059V46.9195C32.4673 46.9017 32.7253 46.7237 32.7253 46.3855L32.7302 46.3807Z" fill="#F83718"/>
<path fill-rule="evenodd" clip-rule="evenodd" d="M62.1186 34.3857H49.9196C49.6885 34.3857 49.4669 34.2939 49.3034 34.1304C49.14 33.967 49.0482 33.7454 49.0482 33.5143C49.0482 33.2832 49.14 33.0616 49.3034 32.8982C49.4669 32.7347 49.6885 32.6429 49.9196 32.6429H62.1138C62.3449 32.6429 62.5665 32.7347 62.7299 32.8982C62.8933 33.0616 62.9852 33.2832 62.9852 33.5143C62.9852 33.7454 62.8933 33.967 62.7299 34.1304C62.5665 34.2939 62.3449 34.3857 62.1138 34.3857H62.1186Z" fill="#F83718"/>
<path fill-rule="evenodd" clip-rule="evenodd" d="M76.0556 38.7375H49.9196C49.6885 38.7375 49.4669 38.6457 49.3034 38.4823C49.14 38.3189 49.0482 38.0973 49.0482 37.8662C49.0482 37.6351 49.14 37.4134 49.3034 37.25C49.4669 37.0866 49.6885 36.9948 49.9196 36.9948H76.0531C76.2842 36.9948 76.5058 37.0866 76.6692 37.25C76.8326 37.4134 76.9244 37.6351 76.9244 37.8662C76.9244 38.0973 76.8326 38.3189 76.6692 38.4823C76.5058 38.6457 76.2842 38.7375 76.0531 38.7375H76.0556Z" fill="#F83718"/>
<path fill-rule="evenodd" clip-rule="evenodd" d="M62.1186 43.9678H49.9196C49.6885 43.9678 49.4669 43.876 49.3034 43.7126C49.14 43.5492 49.0482 43.3276 49.0482 43.0965C49.0482 42.8654 49.14 42.6437 49.3034 42.4803C49.4669 42.3169 49.6885 42.2251 49.9196 42.2251H62.1138C62.3449 42.2251 62.5665 42.3169 62.7299 42.4803C62.8933 42.6437 62.9852 42.8654 62.9852 43.0965C62.9852 43.3276 62.8933 43.5492 62.7299 43.7126C62.5665 43.876 62.3449 43.9678 62.1138 43.9678H62.1186Z" fill="#F83718"/>
<path fill-rule="evenodd" clip-rule="evenodd" d="M76.0556 48.3249H49.9196C49.6885 48.3249 49.4669 48.2331 49.3034 48.0697C49.14 47.9062 49.0482 47.6846 49.0482 47.4535C49.0482 47.2224 49.14 47.0008 49.3034 46.8374C49.4669 46.674 49.6885 46.5822 49.9196 46.5822H76.0531C76.2842 46.5822 76.5058 46.674 76.6692 46.8374C76.8326 47.0008 76.9244 47.2224 76.9244 47.4535C76.9244 47.6846 76.8326 47.9062 76.6692 48.0697C76.5058 48.2331 76.2842 48.3249 76.0531 48.3249H76.0556Z" fill="#F83718"/>
<path fill-rule="evenodd" clip-rule="evenodd" d="M62.1186 53.5433H49.9196C49.6885 53.5433 49.4669 53.4515 49.3034 53.2881C49.14 53.1247 49.0482 52.9031 49.0482 52.672C49.0482 52.4409 49.14 52.2192 49.3034 52.0558C49.4669 51.8924 49.6885 51.8006 49.9196 51.8006H62.1138C62.3449 51.8006 62.5665 51.8924 62.7299 52.0558C62.8933 52.2192 62.9852 52.4409 62.9852 52.672C62.9852 52.9031 62.8933 53.1247 62.7299 53.2881C62.5665 53.4515 62.3449 53.5433 62.1138 53.5433H62.1186Z" fill="#F83718"/>
<path fill-rule="evenodd" clip-rule="evenodd" d="M76.056 57.9125H49.92C49.8019 57.9187 49.6837 57.9008 49.5727 57.8599C49.4617 57.819 49.3602 57.7559 49.2743 57.6745C49.1885 57.5931 49.1201 57.4951 49.0734 57.3864C49.0267 57.2777 49.0027 57.1606 49.0027 57.0423C49.0027 56.924 49.0267 56.807 49.0734 56.6983C49.1201 56.5896 49.1885 56.4915 49.2743 56.4101C49.3602 56.3287 49.4617 56.2656 49.5727 56.2247C49.6837 56.1838 49.8019 56.1659 49.92 56.1722H76.0535C76.1716 56.1659 76.2898 56.1838 76.4008 56.2247C76.5118 56.2656 76.6133 56.3287 76.6991 56.4101C76.785 56.4915 76.8533 56.5896 76.9 56.6983C76.9467 56.807 76.9708 56.924 76.9708 57.0423C76.9708 57.1606 76.9467 57.2777 76.9 57.3864C76.8533 57.4951 76.785 57.5931 76.6991 57.6745C76.6133 57.7559 76.5118 57.819 76.4008 57.8599C76.2898 57.9008 76.1716 57.9187 76.0535 57.9125H76.056Z" fill="#F83718"/>
<path fill-rule="evenodd" clip-rule="evenodd" d="M44.1844 91.0092H35.9854C35.841 91.0087 35.699 90.9725 35.572 90.9039C35.4449 90.8353 35.3368 90.7364 35.2573 90.616C35.1774 90.4958 35.1289 90.3575 35.1162 90.2138C35.1034 90.0701 35.1269 89.9255 35.1844 89.7931L40.4102 77.599C40.4778 77.4427 40.5896 77.3095 40.7319 77.216C40.8742 77.1224 41.0408 77.0724 41.2111 77.0723H46.3349C46.4621 77.0721 46.5879 77.0999 46.7032 77.1535C46.8186 77.2072 46.9209 77.2854 47.0028 77.3828C47.0847 77.4802 47.1442 77.5944 47.1773 77.7173C47.2104 77.8401 47.2161 77.9688 47.1941 78.0941L45.0412 90.2883C45.0074 90.4913 44.9028 90.6758 44.746 90.8091C44.5891 90.9423 44.3902 91.0158 44.1844 91.0164V91.0092ZM37.2985 89.2664H43.4441L45.2888 78.815H41.7791L37.2985 89.2664Z" fill="#F83718"/>
<path fill-rule="evenodd" clip-rule="evenodd" d="M63.8591 91.0093H55.6625C55.4563 91.0092 55.2568 90.936 55.0995 90.8027C54.9421 90.6694 54.8372 90.4846 54.8033 90.2811L52.6527 78.087C52.6303 77.9618 52.6357 77.8332 52.6685 77.7103C52.7012 77.5874 52.7606 77.4732 52.8423 77.3758C52.9241 77.2783 53.0262 77.2 53.1415 77.1463C53.2568 77.0926 53.3824 77.0649 53.5096 77.0651H58.6333C58.8036 77.0656 58.97 77.1157 59.1122 77.2092C59.2545 77.3028 59.3665 77.4357 59.4344 77.5918L64.66 89.786C64.7166 89.9185 64.7395 90.063 64.7265 90.2064C64.7136 90.3499 64.6653 90.488 64.586 90.6082C64.5066 90.7285 64.3986 90.8272 64.2718 90.8955C64.1449 90.9638 64.0032 90.9995 63.8591 90.9996V91.0093ZM56.3907 89.2666H62.5411L58.0605 78.8151H54.5484L56.3907 89.2666Z" fill="#F83718"/>
<path fill-rule="evenodd" clip-rule="evenodd" d="M55.6624 91.0093H44.1843C44.057 91.0096 43.9313 90.9819 43.816 90.9282C43.7006 90.8745 43.5985 90.7962 43.5168 90.6987C43.4354 90.601 43.3761 90.4868 43.343 90.3641C43.3099 90.2413 43.3038 90.1129 43.325 89.9875L45.4779 77.7909C45.5117 77.5879 45.6163 77.4034 45.7731 77.2701C45.9299 77.1369 46.1289 77.0634 46.3347 77.0627H53.5095C53.7154 77.0629 53.9146 77.1362 54.0715 77.2696C54.2284 77.4029 54.3329 77.5877 54.3662 77.7909L56.5192 89.9851C56.5415 90.1104 56.5361 90.2391 56.5034 90.3621C56.4707 90.4851 56.4113 90.5994 56.3297 90.6971C56.248 90.7947 56.1459 90.8733 56.0306 90.9272C55.9154 90.9812 55.7897 91.0092 55.6624 91.0093ZM45.2255 89.2666H54.6284L52.7837 78.8152H47.0701L45.2255 89.2666Z" fill="#F83718"/>
<path fill-rule="evenodd" clip-rule="evenodd" d="M84.8254 78.8125H15.0195C13.4181 78.8105 11.8828 78.1733 10.7507 77.0407C9.61852 75.9081 8.982 74.3726 8.98071 72.7712V67.4872C8.98071 67.3729 9.00326 67.2597 9.04708 67.1541C9.0909 67.0486 9.15511 66.9527 9.23605 66.8719C9.317 66.7912 9.41307 66.7273 9.51877 66.6837C9.62447 66.6402 9.73772 66.618 9.85203 66.6183H89.9952C90.1095 66.618 90.2228 66.6402 90.3285 66.6837C90.4342 66.7273 90.5303 66.7912 90.6113 66.8719C90.6922 66.9527 90.7565 67.0486 90.8003 67.1541C90.8441 67.2597 90.8667 67.3729 90.8667 67.4872V72.7712C90.8647 74.3729 90.2275 75.9083 89.095 77.0409C87.9624 78.1734 86.427 78.8105 84.8254 78.8125ZM10.721 68.3489V72.7615C10.7223 73.9011 11.1755 74.9938 11.9814 75.7996C12.7872 76.6055 13.8799 77.0588 15.0195 77.06H84.8254C85.965 77.0588 87.0576 76.6055 87.8635 75.7996C88.6693 74.9938 89.1226 73.9011 89.1239 72.7615V68.3489H10.721Z" fill="#F83718"/>
<path fill-rule="evenodd" clip-rule="evenodd" d="M22.9173 89.2664C22.0556 89.2664 21.2133 89.0109 20.4968 88.5321C19.7804 88.0534 19.2219 87.373 18.8922 86.5769C18.5624 85.7808 18.4762 84.9048 18.6443 84.0596C18.8124 83.2145 19.2273 82.4382 19.8366 81.8289C20.4459 81.2196 21.2222 80.8046 22.0673 80.6365C22.9125 80.4684 23.7885 80.5547 24.5846 80.8844C25.3807 81.2142 26.0611 81.7726 26.5399 82.4891C27.0186 83.2056 27.2741 84.0479 27.2741 84.9096C27.2709 86.0641 26.8109 87.1704 25.9945 87.9868C25.1781 88.8032 24.0718 89.2632 22.9173 89.2664ZM22.9173 82.2979C22.4003 82.2979 21.8949 82.4513 21.465 82.7385C21.0352 83.0257 20.7001 83.434 20.5022 83.9117C20.3044 84.3893 20.2526 84.9149 20.3535 85.422C20.4544 85.9291 20.7033 86.3949 21.0689 86.7605C21.4345 87.126 21.9003 87.375 22.4074 87.4759C22.9144 87.5767 23.4401 87.525 23.9177 87.3271C24.3954 87.1293 24.8036 86.7942 25.0908 86.3643C25.3781 85.9345 25.5314 85.429 25.5314 84.912C25.5308 84.2189 25.2551 83.5544 24.765 83.0643C24.2749 82.5742 23.6104 82.2986 22.9173 82.2979Z" fill="#F83718"/>
<path fill-rule="evenodd" clip-rule="evenodd" d="M89.9929 68.3491H9.85204C9.73752 68.3495 9.6241 68.3271 9.51824 68.2835C9.41238 68.2398 9.3162 68.1756 9.23523 68.0946C9.15425 68.0137 9.09005 67.9175 9.04637 67.8116C9.0027 67.7057 8.9804 67.5923 8.98072 67.4778V30.3783C8.98329 27.9767 9.93844 25.6741 11.6366 23.9759C13.3348 22.2778 15.6373 21.3226 18.0389 21.32H81.8035C84.2055 21.3219 86.5087 22.2768 88.2074 23.9751C89.9061 25.6734 90.8616 27.9762 90.8642 30.3783V67.4875C90.8645 67.602 90.8422 67.7155 90.7985 67.8213C90.7548 67.9272 90.6907 68.0234 90.6097 68.1043C90.5287 68.1853 90.4326 68.2495 90.3267 68.2932C90.2208 68.3368 90.1074 68.3592 89.9929 68.3588V68.3491ZM10.721 66.6088H89.119V30.3783C89.1171 28.438 88.3455 26.5778 86.9736 25.2058C85.6016 23.8338 83.7414 23.0622 81.8011 23.0603H18.0389C16.0987 23.0622 14.2385 23.8338 12.8665 25.2058C11.4946 26.5778 10.7229 28.438 10.721 30.3783V66.6161V66.6088Z" fill="#F83718"/>
<path fill-rule="evenodd" clip-rule="evenodd" d="M81.5435 18.6065C80.6156 18.6065 79.7085 18.3313 78.9369 17.8158C78.1654 17.3002 77.5641 16.5675 77.209 15.7102C76.8539 14.8529 76.7609 13.9095 76.942 12.9994C77.123 12.0893 77.5698 11.2533 78.2259 10.5971C78.8821 9.94099 79.7181 9.49415 80.6282 9.31311C81.5383 9.13208 82.4817 9.22499 83.339 9.5801C84.1963 9.93521 84.929 10.5366 85.4446 11.3081C85.9601 12.0797 86.2353 12.9868 86.2353 13.9147C86.234 15.1586 85.7393 16.3513 84.8597 17.2309C83.9801 18.1105 82.7875 18.6052 81.5435 18.6065ZM81.5435 10.9657C80.9596 10.9652 80.3885 11.138 79.9028 11.4621C79.4171 11.7862 79.0384 12.2471 78.8147 12.7865C78.591 13.3259 78.5324 13.9196 78.6462 14.4923C78.76 15.0651 79.0412 15.5912 79.4541 16.0041C79.867 16.417 80.3931 16.6982 80.9659 16.812C81.5386 16.9258 82.1323 16.8671 82.6717 16.6435C83.2111 16.4198 83.6721 16.0411 83.9962 15.5554C84.3203 15.0696 84.493 14.4987 84.4925 13.9147C84.4919 13.1328 84.181 12.3831 83.6281 11.8301C83.0752 11.2772 82.3255 10.9663 81.5435 10.9657Z" fill="#F83718"/>
<circle cx="32" cy="44" r="6" fill="#F83718"/>
</svg>
