<svg width="168" height="168" viewBox="0 0 168 168" fill="none" xmlns="http://www.w3.org/2000/svg">
<ellipse cx="2.46661" cy="2.4617" rx="2.46661" ry="2.4617" fill="#F83718"/>
<ellipse cx="17.2674" cy="2.4617" rx="2.46661" ry="2.4617" fill="#F83718"/>
<ellipse cx="32.0643" cy="2.4617" rx="2.46661" ry="2.4617" fill="#F83718"/>
<ellipse cx="46.8651" cy="2.4617" rx="2.46661" ry="2.4617" fill="#F83718"/>
<ellipse cx="61.6639" cy="2.4617" rx="2.46661" ry="2.4617" fill="#F83718"/>
<ellipse cx="76.4647" cy="2.4617" rx="2.46661" ry="2.4617" fill="#F83718"/>
<ellipse cx="91.2674" cy="2.4617" rx="2.46661" ry="2.4617" fill="#F83718"/>
<ellipse cx="106.064" cy="2.4617" rx="2.46661" ry="2.4617" fill="#F83718"/>
<ellipse cx="2.46661" cy="17.2312" rx="2.46661" ry="2.4617" fill="#F83718"/>
<ellipse cx="17.2694" cy="17.2312" rx="2.46661" ry="2.4617" fill="#F83718"/>
<ellipse cx="32.0643" cy="17.2312" rx="2.46661" ry="2.4617" fill="#F83718"/>
<ellipse cx="46.8651" cy="17.2312" rx="2.46661" ry="2.4617" fill="#F83718"/>
<ellipse cx="61.6639" cy="17.2312" rx="2.46661" ry="2.4617" fill="#F83718"/>
<ellipse cx="76.4647" cy="17.2312" rx="2.46661" ry="2.4617" fill="#F83718"/>
<ellipse cx="91.2674" cy="17.2312" rx="2.46661" ry="2.4617" fill="#F83718"/>
<ellipse cx="106.064" cy="17.2312" rx="2.46661" ry="2.4617" fill="#F83718"/>
<ellipse cx="2.46661" cy="32.0027" rx="2.46661" ry="2.4617" fill="#F83718"/>
<ellipse cx="17.2694" cy="32.0027" rx="2.46661" ry="2.4617" fill="#F83718"/>
<ellipse cx="32.0643" cy="32.0027" rx="2.46661" ry="2.4617" fill="#F83718"/>
<ellipse cx="46.8651" cy="32.0027" rx="2.46661" ry="2.4617" fill="#F83718"/>
<ellipse cx="61.6639" cy="32.0027" rx="2.46661" ry="2.4617" fill="#F83718"/>
<ellipse cx="76.4647" cy="32.0027" rx="2.46661" ry="2.4617" fill="#F83718"/>
<ellipse cx="91.2674" cy="32.0027" rx="2.46661" ry="2.4617" fill="#F83718"/>
<ellipse cx="106.064" cy="32.0027" rx="2.46661" ry="2.4617" fill="#F83718"/>
<ellipse cx="2.46661" cy="46.7732" rx="2.46661" ry="2.4617" fill="#F83718"/>
<ellipse cx="17.2694" cy="46.7732" rx="2.46661" ry="2.4617" fill="#F83718"/>
<ellipse cx="32.0643" cy="46.7732" rx="2.46661" ry="2.4617" fill="#F83718"/>
<ellipse cx="46.8651" cy="46.7732" rx="2.46661" ry="2.4617" fill="#F83718"/>
<ellipse cx="61.6639" cy="46.7732" rx="2.46661" ry="2.4617" fill="#F83718"/>
<ellipse cx="76.4647" cy="46.7732" rx="2.46661" ry="2.4617" fill="#F83718"/>
<ellipse cx="91.2674" cy="46.7732" rx="2.46661" ry="2.4617" fill="#F83718"/>
<ellipse cx="106.064" cy="46.7732" rx="2.46661" ry="2.4617" fill="#F83718"/>
<ellipse cx="2.46661" cy="61.5415" rx="2.46661" ry="2.4617" fill="#F83718"/>
<ellipse cx="17.2694" cy="61.5418" rx="2.46661" ry="2.4617" fill="#F83718"/>
<ellipse cx="32.0643" cy="61.5418" rx="2.46661" ry="2.4617" fill="#F83718"/>
<ellipse cx="46.8651" cy="61.5415" rx="2.46661" ry="2.4617" fill="#F83718"/>
<ellipse cx="61.6639" cy="61.5418" rx="2.46661" ry="2.4617" fill="#F83718"/>
<ellipse cx="76.4647" cy="61.5418" rx="2.46661" ry="2.4617" fill="#F83718"/>
<ellipse cx="91.2674" cy="61.5418" rx="2.46661" ry="2.4617" fill="#F83718"/>
<ellipse cx="106.064" cy="61.5418" rx="2.46661" ry="2.4617" fill="#F83718"/>
<ellipse cx="2.46661" cy="76.3123" rx="2.46661" ry="2.4617" fill="#F83718"/>
<ellipse cx="17.2694" cy="76.3123" rx="2.46661" ry="2.4617" fill="#F83718"/>
<ellipse cx="32.0643" cy="76.3123" rx="2.46661" ry="2.4617" fill="#F83718"/>
<ellipse cx="46.8651" cy="76.3123" rx="2.46661" ry="2.4617" fill="#F83718"/>
<ellipse cx="61.6639" cy="76.3123" rx="2.46661" ry="2.4617" fill="#F83718"/>
<ellipse cx="76.4647" cy="76.3123" rx="2.46661" ry="2.4617" fill="#F83718"/>
<ellipse cx="91.2674" cy="76.3123" rx="2.46661" ry="2.4617" fill="#F83718"/>
<ellipse cx="106.064" cy="76.3123" rx="2.46661" ry="2.4617" fill="#F83718"/>
<ellipse cx="2.46661" cy="91.0828" rx="2.46661" ry="2.4617" fill="#F83718"/>
<ellipse cx="17.2694" cy="91.0828" rx="2.46661" ry="2.4617" fill="#F83718"/>
<ellipse cx="32.0643" cy="91.0828" rx="2.46661" ry="2.4617" fill="#F83718"/>
<ellipse cx="46.8651" cy="91.0828" rx="2.46661" ry="2.4617" fill="#F83718"/>
<ellipse cx="61.6639" cy="91.0828" rx="2.46661" ry="2.4617" fill="#F83718"/>
<ellipse cx="76.4647" cy="91.0828" rx="2.46661" ry="2.4617" fill="#F83718"/>
<ellipse cx="91.2674" cy="91.0828" rx="2.46661" ry="2.4617" fill="#F83718"/>
<ellipse cx="106.064" cy="91.0828" rx="2.46661" ry="2.4617" fill="#F83718"/>
<ellipse cx="2.46661" cy="105.852" rx="2.46661" ry="2.4617" fill="#F83718"/>
<ellipse cx="17.2694" cy="105.852" rx="2.46661" ry="2.4617" fill="#F83718"/>
<ellipse cx="32.0643" cy="105.852" rx="2.46661" ry="2.4617" fill="#F83718"/>
<ellipse cx="46.8651" cy="105.852" rx="2.46661" ry="2.4617" fill="#F83718"/>
<ellipse cx="61.6639" cy="105.852" rx="2.46661" ry="2.4617" fill="#F83718"/>
<ellipse cx="76.4647" cy="105.852" rx="2.46661" ry="2.4617" fill="#F83718"/>
<ellipse cx="91.2674" cy="105.852" rx="2.46661" ry="2.4617" fill="#F83718"/>
<ellipse cx="106.064" cy="105.852" rx="2.46661" ry="2.4617" fill="#F83718"/>
<ellipse cx="2.46661" cy="120.623" rx="2.46661" ry="2.4617" fill="#F83718"/>
<ellipse cx="17.2694" cy="120.623" rx="2.46661" ry="2.4617" fill="#F83718"/>
<ellipse cx="32.0643" cy="120.623" rx="2.46661" ry="2.4617" fill="#F83718"/>
<ellipse cx="46.8651" cy="120.623" rx="2.46661" ry="2.4617" fill="#F83718"/>
<ellipse cx="61.6639" cy="120.623" rx="2.46661" ry="2.4617" fill="#F83718"/>
<ellipse cx="76.4647" cy="120.623" rx="2.46661" ry="2.4617" fill="#F83718"/>
<ellipse cx="91.2674" cy="120.623" rx="2.46661" ry="2.4617" fill="#F83718"/>
<ellipse cx="106.064" cy="120.623" rx="2.46661" ry="2.4617" fill="#F83718"/>
<ellipse cx="2.46661" cy="135.393" rx="2.46661" ry="2.4617" fill="#F83718"/>
<ellipse cx="17.2694" cy="135.393" rx="2.46661" ry="2.4617" fill="#F83718"/>
<ellipse cx="32.0643" cy="135.393" rx="2.46661" ry="2.4617" fill="#F83718"/>
<ellipse cx="46.8651" cy="135.393" rx="2.46661" ry="2.4617" fill="#F83718"/>
<ellipse cx="61.6639" cy="135.393" rx="2.46661" ry="2.4617" fill="#F83718"/>
<ellipse cx="76.4647" cy="135.393" rx="2.46661" ry="2.4617" fill="#F83718"/>
<ellipse cx="91.2674" cy="135.393" rx="2.46661" ry="2.4617" fill="#F83718"/>
<ellipse cx="106.064" cy="135.393" rx="2.46661" ry="2.4617" fill="#F83718"/>
<ellipse cx="2.46661" cy="150.163" rx="2.46661" ry="2.4617" fill="#F83718"/>
<ellipse cx="17.2694" cy="150.163" rx="2.46661" ry="2.4617" fill="#F83718"/>
<ellipse cx="32.0643" cy="150.163" rx="2.46661" ry="2.4617" fill="#F83718"/>
<ellipse cx="46.8651" cy="150.163" rx="2.46661" ry="2.4617" fill="#F83718"/>
<ellipse cx="61.6639" cy="150.163" rx="2.46661" ry="2.4617" fill="#F83718"/>
<ellipse cx="76.4647" cy="150.163" rx="2.46661" ry="2.4617" fill="#F83718"/>
<ellipse cx="91.2674" cy="150.163" rx="2.46661" ry="2.4617" fill="#F83718"/>
<ellipse cx="106.064" cy="150.163" rx="2.46661" ry="2.4617" fill="#F83718"/>
<ellipse cx="2.46661" cy="164.934" rx="2.46661" ry="2.4617" fill="#F83718"/>
<ellipse cx="17.2694" cy="164.934" rx="2.46661" ry="2.4617" fill="#F83718"/>
<ellipse cx="32.0643" cy="164.934" rx="2.46661" ry="2.4617" fill="#F83718"/>
<ellipse cx="46.8651" cy="164.934" rx="2.46661" ry="2.4617" fill="#F83718"/>
<ellipse cx="61.6639" cy="164.934" rx="2.46661" ry="2.4617" fill="#F83718"/>
<ellipse cx="76.4647" cy="164.934" rx="2.46661" ry="2.4617" fill="#F83718"/>
<ellipse cx="91.2674" cy="164.934" rx="2.46661" ry="2.4617" fill="#F83718"/>
<ellipse cx="106.064" cy="164.934" rx="2.46661" ry="2.4617" fill="#F83718"/>
<ellipse cx="120.271" cy="2.4617" rx="2.46661" ry="2.4617" fill="#F83718"/>
<ellipse cx="135.072" cy="2.4617" rx="2.46661" ry="2.4617" fill="#F83718"/>
<ellipse cx="149.869" cy="2.4617" rx="2.46661" ry="2.4617" fill="#F83718"/>
<ellipse cx="164.672" cy="2.4617" rx="2.46661" ry="2.4617" fill="#F83718"/>
<ellipse cx="120.271" cy="17.2312" rx="2.46661" ry="2.4617" fill="#F83718"/>
<ellipse cx="135.076" cy="17.2312" rx="2.46661" ry="2.4617" fill="#F83718"/>
<ellipse cx="149.869" cy="17.2312" rx="2.46661" ry="2.4617" fill="#F83718"/>
<ellipse cx="164.672" cy="17.2312" rx="2.46661" ry="2.4617" fill="#F83718"/>
<ellipse cx="120.271" cy="32.0027" rx="2.46661" ry="2.4617" fill="#F83718"/>
<ellipse cx="135.076" cy="32.0027" rx="2.46661" ry="2.4617" fill="#F83718"/>
<ellipse cx="149.869" cy="32.0027" rx="2.46661" ry="2.4617" fill="#F83718"/>
<ellipse cx="164.672" cy="32.0027" rx="2.46661" ry="2.4617" fill="#F83718"/>
<ellipse cx="120.271" cy="46.7732" rx="2.46661" ry="2.4617" fill="#F83718"/>
<ellipse cx="135.076" cy="46.7732" rx="2.46661" ry="2.4617" fill="#F83718"/>
<ellipse cx="149.869" cy="46.7732" rx="2.46661" ry="2.4617" fill="#F83718"/>
<ellipse cx="164.672" cy="46.7732" rx="2.46661" ry="2.4617" fill="#F83718"/>
<ellipse cx="120.271" cy="61.5418" rx="2.46661" ry="2.4617" fill="#F83718"/>
<ellipse cx="135.076" cy="61.5418" rx="2.46661" ry="2.4617" fill="#F83718"/>
<ellipse cx="149.869" cy="61.5418" rx="2.46661" ry="2.4617" fill="#F83718"/>
<ellipse cx="164.672" cy="61.5418" rx="2.46661" ry="2.4617" fill="#F83718"/>
<ellipse cx="120.271" cy="76.3123" rx="2.46661" ry="2.4617" fill="#F83718"/>
<ellipse cx="135.076" cy="76.3123" rx="2.46661" ry="2.4617" fill="#F83718"/>
<ellipse cx="149.869" cy="76.3123" rx="2.46661" ry="2.4617" fill="#F83718"/>
<ellipse cx="164.672" cy="76.3123" rx="2.46661" ry="2.4617" fill="#F83718"/>
<ellipse cx="120.271" cy="91.0828" rx="2.46661" ry="2.4617" fill="#F83718"/>
<ellipse cx="135.076" cy="91.0828" rx="2.46661" ry="2.4617" fill="#F83718"/>
<ellipse cx="149.869" cy="91.0828" rx="2.46661" ry="2.4617" fill="#F83718"/>
<ellipse cx="164.672" cy="91.0828" rx="2.46661" ry="2.4617" fill="#F83718"/>
<ellipse cx="120.271" cy="105.852" rx="2.46661" ry="2.4617" fill="#F83718"/>
<ellipse cx="135.076" cy="105.852" rx="2.46661" ry="2.4617" fill="#F83718"/>
<ellipse cx="149.869" cy="105.852" rx="2.46661" ry="2.4617" fill="#F83718"/>
<ellipse cx="164.672" cy="105.852" rx="2.46661" ry="2.4617" fill="#F83718"/>
<ellipse cx="120.271" cy="120.623" rx="2.46661" ry="2.4617" fill="#F83718"/>
<ellipse cx="135.076" cy="120.623" rx="2.46661" ry="2.4617" fill="#F83718"/>
<ellipse cx="149.869" cy="120.623" rx="2.46661" ry="2.4617" fill="#F83718"/>
<ellipse cx="164.672" cy="120.623" rx="2.46661" ry="2.4617" fill="#F83718"/>
<ellipse cx="120.271" cy="135.393" rx="2.46661" ry="2.4617" fill="#F83718"/>
<ellipse cx="135.076" cy="135.393" rx="2.46661" ry="2.4617" fill="#F83718"/>
<ellipse cx="149.869" cy="135.393" rx="2.46661" ry="2.4617" fill="#F83718"/>
<ellipse cx="164.672" cy="135.393" rx="2.46661" ry="2.4617" fill="#F83718"/>
<ellipse cx="120.271" cy="150.163" rx="2.46661" ry="2.4617" fill="#F83718"/>
<ellipse cx="135.076" cy="150.163" rx="2.46661" ry="2.4617" fill="#F83718"/>
<ellipse cx="149.869" cy="150.163" rx="2.46661" ry="2.4617" fill="#F83718"/>
<ellipse cx="164.672" cy="150.163" rx="2.46661" ry="2.4617" fill="#F83718"/>
<ellipse cx="120.271" cy="164.934" rx="2.46661" ry="2.4617" fill="#F83718"/>
<ellipse cx="135.076" cy="164.934" rx="2.46661" ry="2.4617" fill="#F83718"/>
<ellipse cx="149.869" cy="164.934" rx="2.46661" ry="2.4617" fill="#F83718"/>
<ellipse cx="164.672" cy="164.934" rx="2.46661" ry="2.4617" fill="#F83718"/>
</svg>
