<svg width="100" height="98" viewBox="0 0 100 98" fill="none" xmlns="http://www.w3.org/2000/svg">
<path fill-rule="evenodd" clip-rule="evenodd" d="M93.1089 97.4953H6.89095C5.06433 97.4938 3.31292 96.7677 2.02103 95.4763C0.729136 94.185 0.00235727 92.4339 0 90.6073V86.6068C0.00235727 84.7802 0.729136 83.0291 2.02103 81.7378C3.31292 80.4464 5.06433 79.7203 6.89095 79.7188H38.8889C39.1833 79.7188 39.4656 79.8357 39.6737 80.0439C39.8819 80.252 39.9988 80.5343 39.9988 80.8287V84.1614H60.0011V80.8346C60.0011 80.5402 60.1181 80.2579 60.3263 80.0498C60.5344 79.8416 60.8167 79.7247 61.1111 79.7247H93.1089C94.9355 79.7263 96.6869 80.4524 97.9788 81.7437C99.2707 83.035 99.9976 84.7861 100 86.6127V90.6132C99.9961 92.4394 99.2686 94.1895 97.9771 95.4805C96.6855 96.7715 94.9351 97.4981 93.1089 97.5013V97.4953ZM6.88805 81.9386C5.65072 81.9402 4.46459 82.4326 3.58995 83.3078C2.7153 84.183 2.22353 85.3695 2.22274 86.6068V90.6073C2.22353 91.8446 2.7153 93.0311 3.58995 93.9063C4.46459 94.7815 5.65072 95.2739 6.88805 95.2755H93.106C94.3436 95.2739 95.53 94.7816 96.4051 93.9065C97.2803 93.0314 97.7726 91.8449 97.7742 90.6073V86.6068C97.7726 85.3692 97.2803 84.1827 96.4051 83.3076C95.53 82.4325 94.3436 81.9402 93.106 81.9386H62.2209V85.2862C62.2213 85.432 62.193 85.5766 62.1373 85.7114C62.0817 85.8462 61.9999 85.9687 61.8968 86.0719C61.7936 86.175 61.6711 86.2568 61.5363 86.3124C61.4014 86.3681 61.257 86.3965 61.1111 86.3961H38.8859C38.5915 86.3961 38.3092 86.2792 38.101 86.071C37.8929 85.8629 37.776 85.5805 37.776 85.2862V81.9386H6.88805Z" fill="#F83718"/>
<path fill-rule="evenodd" clip-rule="evenodd" d="M23.8864 16.1087C22.2932 16.1099 20.7354 15.6385 19.4101 14.7542C18.0848 13.8699 17.0514 12.6124 16.4409 11.1408C15.8304 9.66912 15.6701 8.04946 15.9802 6.48668C16.2904 4.92389 17.0569 3.48819 18.1831 2.36117C19.3093 1.23415 20.7445 0.466461 22.3071 0.155201C23.8696 -0.15606 25.4893 0.00309719 26.9614 0.612539C28.4334 1.22198 29.6918 2.25432 30.5771 3.57899C31.4624 4.90365 31.9349 6.46112 31.9349 8.05437C31.9325 10.1903 31.0828 12.2381 29.5722 13.7481C28.0615 15.2582 26.0135 16.1072 23.8776 16.1087H23.8864ZM23.8864 2.21985C22.7325 2.21985 21.6045 2.56204 20.645 3.20314C19.6855 3.84425 18.9376 4.75548 18.496 5.8216C18.0544 6.88772 17.9389 8.06085 18.164 9.19263C18.3891 10.3244 18.9449 11.364 19.7609 12.18C20.5769 12.996 21.6164 13.5517 22.7482 13.7768C23.8799 14.0019 25.053 13.8864 26.1192 13.4448C27.1853 13.0032 28.0965 12.2553 28.7376 11.2959C29.3787 10.3364 29.721 9.20833 29.721 8.05437C29.7202 6.5072 29.1052 5.02362 28.0112 3.92961C26.9172 2.83559 25.4336 2.22064 23.8864 2.21985Z" fill="#F83718"/>
<path fill-rule="evenodd" clip-rule="evenodd" d="M91.1093 81.9385H7.77891C7.6329 81.9389 7.48817 81.9105 7.35317 81.8549C7.21816 81.7993 7.09544 81.7176 6.99206 81.6145C6.88868 81.5114 6.80675 81.3889 6.75079 81.254C6.69482 81.1192 6.66602 80.9746 6.66602 80.8286V33.6627C6.66994 30.6284 7.87723 27.7196 10.0231 25.5743C12.169 23.4289 15.0781 22.2224 18.1124 22.2192H80.7787C83.8125 22.2232 86.7209 23.4301 88.8661 25.5753C91.0113 27.7205 92.2183 30.6289 92.2222 33.6627V80.8345C92.2214 81.1292 92.1038 81.4115 91.8951 81.6195C91.6865 81.8276 91.4039 81.9444 91.1093 81.9444V81.9385ZM8.88876 79.7187H89.9964V33.6627C89.9925 31.2195 89.0199 28.8776 87.292 27.1502C85.5641 25.4229 83.2219 24.4511 80.7787 24.448H18.1124C15.6674 24.4503 13.3232 25.4225 11.594 27.1511C9.86487 28.8797 8.8919 31.2236 8.88876 33.6687V79.7187Z" fill="#F83718"/>
<path fill-rule="evenodd" clip-rule="evenodd" d="M76.666 16.3876C75.5666 16.3876 74.4918 16.0616 73.5777 15.4508C72.6636 14.84 71.9512 13.9719 71.5305 12.9562C71.1097 11.9405 70.9998 10.8229 71.2143 9.74462C71.4287 8.66637 71.9581 7.67593 72.7355 6.89856C73.5129 6.12119 74.5032 5.59179 75.5815 5.37732C76.6597 5.16284 77.7774 5.27291 78.7931 5.69362C79.8088 6.11434 80.6769 6.82679 81.2877 7.74088C81.8984 8.65498 82.2245 9.72966 82.2245 10.829C82.2229 12.3028 81.6368 13.7157 80.5947 14.7578C79.5526 15.7999 78.1397 16.386 76.666 16.3876ZM76.666 7.49927C76.0075 7.5022 75.3645 7.70014 74.8184 8.06813C74.2723 8.43611 73.8474 8.95763 73.5974 9.56686C73.3474 10.1761 73.2836 10.8457 73.4138 11.4912C73.5441 12.1367 73.8627 12.7292 74.3293 13.1938C74.796 13.6584 75.39 13.9743 76.0361 14.1017C76.6821 14.2291 77.3515 14.1623 77.9596 13.9096C78.5677 13.6569 79.0873 13.2298 79.4528 12.682C79.8184 12.1343 80.0135 11.4905 80.0135 10.832C80.0131 10.3932 79.9261 9.95878 79.7576 9.55364C79.589 9.1485 79.3423 8.78061 79.0313 8.47102C78.7203 8.16143 78.3513 7.91623 77.9454 7.74948C77.5395 7.58273 77.1048 7.4977 76.666 7.49927Z" fill="#F83718"/>
<path fill-rule="evenodd" clip-rule="evenodd" d="M91.1082 76.383H7.77784C7.62706 76.3908 7.47619 76.3678 7.33457 76.3155C7.19294 76.2631 7.06352 76.1825 6.95404 76.0786C6.84456 75.9746 6.75727 75.8494 6.6977 75.7107C6.63812 75.572 6.60742 75.4226 6.60742 75.2716C6.60742 75.1206 6.63812 74.9712 6.6977 74.8325C6.75727 74.6937 6.84456 74.5686 6.95404 74.4646C7.06352 74.3606 7.19294 74.28 7.33457 74.2277C7.47619 74.1753 7.62706 74.1524 7.77784 74.1602H91.1082C91.3931 74.1749 91.6613 74.2984 91.8577 74.5052C92.0541 74.712 92.1636 74.9864 92.1636 75.2716C92.1636 75.5568 92.0541 75.8311 91.8577 76.0379C91.6613 76.2448 91.3931 76.3683 91.1082 76.383Z" fill="#F83718"/>
<path fill-rule="evenodd" clip-rule="evenodd" d="M28.9057 46.0115C29.9828 45.9974 31.013 45.5679 31.7811 44.8125C32.5491 44.0572 32.9958 43.0344 33.0278 41.9576C33.0278 41.9161 33.0278 41.8745 33.0278 41.833V36.7878H24.6796V41.833C24.6802 42.9304 25.1127 43.9836 25.8835 44.7649C26.6542 45.5462 27.7015 45.9929 28.7989 46.0085H28.9086L28.9057 46.0115Z" fill="#F83718"/>
<path fill-rule="evenodd" clip-rule="evenodd" d="M26.2441 34.5559H33.5298L40.0321 24.439L36.361 24.4419L26.2441 34.5559Z" fill="#F83718"/>
<path fill-rule="evenodd" clip-rule="evenodd" d="M42.6722 24.4419L36.1699 34.5559H43.8118L45.9812 24.439L42.6722 24.4419Z" fill="#F83718"/>
<path fill-rule="evenodd" clip-rule="evenodd" d="M43.6012 36.7788H35.25V41.9575C35.2527 42.5058 35.3634 43.0483 35.5758 43.5538C35.7881 44.0594 36.098 44.5182 36.4877 44.904C36.8773 45.2898 37.3392 45.595 37.8469 45.8024C38.3545 46.0097 38.898 46.115 39.4464 46.1123C39.9947 46.1095 40.5371 45.9988 41.0427 45.7865C41.5482 45.5741 42.007 45.2642 42.3928 44.8746C42.7786 44.4849 43.0839 44.0231 43.2912 43.5154C43.4985 43.0078 43.6039 42.4643 43.6012 41.9159V36.7818V36.7788Z" fill="#F83718"/>
<path fill-rule="evenodd" clip-rule="evenodd" d="M48.2524 24.4422L46.0859 34.5561H53.9118L51.7454 24.4392L48.2524 24.4422Z" fill="#F83718"/>
<path fill-rule="evenodd" clip-rule="evenodd" d="M56.185 34.5559H63.8239L57.3247 24.439L54.0156 24.4419L56.185 34.5559Z" fill="#F83718"/>
<path fill-rule="evenodd" clip-rule="evenodd" d="M64.7497 36.779H56.3986V41.8241C56.3884 42.9315 56.8184 43.9976 57.5943 44.7879C58.3701 45.5783 59.4282 46.028 60.5356 46.0382C61.643 46.0485 62.7091 45.6183 63.4994 44.8425C64.2897 44.0667 64.7394 43.0087 64.7497 41.9012V36.7671V36.779Z" fill="#F83718"/>
<path fill-rule="evenodd" clip-rule="evenodd" d="M59.9648 24.4419L66.4641 34.5559H73.7528L63.6359 24.439L59.9648 24.4419Z" fill="#F83718"/>
<path fill-rule="evenodd" clip-rule="evenodd" d="M60.5748 48.2343C59.9887 47.3719 59.2006 46.6659 58.279 46.178C57.3575 45.6901 56.3306 45.435 55.2878 45.435C54.2451 45.435 53.2182 45.6901 52.2967 46.178C51.3751 46.6659 50.587 47.3719 50.0009 48.2343C49.4144 47.3719 48.6259 46.666 47.7041 46.1781C46.7823 45.6902 45.7552 45.4352 44.7123 45.4352C43.6694 45.4352 42.6423 45.6902 41.7206 46.1781C40.7988 46.666 40.0104 47.3719 39.4239 48.2343C38.9615 47.3886 38.2819 46.6815 37.4553 46.1858C36.6288 45.6901 35.685 45.4237 34.7212 45.4141C33.7574 45.4044 32.8086 45.6518 31.9722 46.1308C31.1358 46.6098 30.4422 47.3031 29.9629 48.1393V64.4409H70.027V48.1393C69.5479 47.3024 68.8542 46.6084 68.0176 46.1289C67.1809 45.6494 66.2314 45.4017 65.2671 45.4114C64.3028 45.4211 63.3585 45.6878 62.5316 46.184C61.7048 46.6802 61.0252 47.3879 60.5629 48.2343H60.5748Z" fill="#F83718"/>
<path fill-rule="evenodd" clip-rule="evenodd" d="M28.7958 46.0112C31.0335 45.9845 32.9507 44.189 33.0278 41.9603C33.0278 41.9187 33.0278 41.8772 33.0278 41.8356V36.7905H24.6796V41.8356C24.6802 42.9331 25.1127 43.9863 25.8835 44.7676C26.6542 45.5489 27.7015 45.9956 28.7989 46.0112H28.7958ZM71.0947 46.0112C72.2038 46.0007 73.2653 45.559 74.0546 44.7797C74.8439 44.0004 75.2991 42.9446 75.3237 41.8356V36.7905H66.9695V41.8356C66.9679 41.8613 66.9679 41.8871 66.9695 41.9128C66.9903 43.0004 67.4345 44.0371 68.2076 44.8024C68.9806 45.5677 70.0217 46.0014 71.1095 46.0112H71.0947Z" fill="#F83718"/>
<path fill-rule="evenodd" clip-rule="evenodd" d="M54.1734 36.7788H45.8223V41.9575C45.825 42.5058 45.9357 43.0483 46.148 43.5538C46.3604 44.0594 46.6703 44.5182 47.0599 44.904C47.4496 45.2898 47.9115 45.595 48.4192 45.8024C48.9268 46.0097 49.4703 46.115 50.0187 46.1123C50.567 46.1095 51.1094 45.9988 51.615 45.7865C52.1205 45.5741 52.5793 45.2642 52.9651 44.8746C53.3509 44.4849 53.6562 44.0231 53.8635 43.5154C54.0708 43.0078 54.1762 42.4643 54.1734 41.9159C54.172 41.8902 54.172 41.8645 54.1734 41.8388V36.7788Z" fill="#F83718"/>
</svg>
