<svg width="100" height="101" viewBox="0 0 100 101" fill="none" xmlns="http://www.w3.org/2000/svg">
<path fill-rule="evenodd" clip-rule="evenodd" d="M60.0947 85.7505C59.8601 85.7503 59.6317 85.6759 59.442 85.5379L50.4411 78.9955L41.4403 85.5379C41.2496 85.6771 41.0196 85.7519 40.7836 85.7515C40.5475 85.7511 40.3177 85.6756 40.1275 85.5357C39.9373 85.3959 39.7966 85.1991 39.7258 84.9739C39.6549 84.7488 39.6577 84.5069 39.7336 84.2833L43.171 73.7015L34.1702 67.1621C33.9806 67.0241 33.8395 66.8297 33.7672 66.6067C33.6948 66.3837 33.6948 66.1435 33.7672 65.9205C33.8397 65.6975 33.9808 65.5031 34.1705 65.3653C34.3601 65.2274 34.5885 65.1531 34.823 65.1529H45.9497L49.3872 54.5711C49.4601 54.3487 49.6015 54.155 49.791 54.0178C49.9806 53.8805 50.2086 53.8066 50.4426 53.8066C50.6766 53.8066 50.9047 53.8805 51.0942 54.0178C51.2838 54.155 51.4252 54.3487 51.4981 54.5711L54.9386 65.1529H66.0623C66.2968 65.1531 66.5252 65.2274 66.7148 65.3653C66.9044 65.5031 67.0456 65.6975 67.118 65.9205C67.1905 66.1435 67.1905 66.3837 67.1181 66.6067C67.0457 66.8297 66.9047 67.0241 66.7151 67.1621L57.7143 73.7015L61.1517 84.2833C61.2243 84.5066 61.2243 84.7471 61.1516 84.9704C61.079 85.1936 60.9375 85.3881 60.7474 85.5259C60.5597 85.6692 60.3308 85.7479 60.0947 85.7505Z" fill="#F83718"/>
<path fill-rule="evenodd" clip-rule="evenodd" d="M80.0049 30.8919H21.1104C20.9435 30.8914 20.7789 30.8534 20.6286 30.7809C20.4783 30.7084 20.3462 30.6031 20.242 30.4728C20.1374 30.342 20.0639 30.1891 20.027 30.0257C19.9902 29.8623 19.991 29.6926 20.0294 29.5295L26.6977 0.862259C26.7544 0.618058 26.8921 0.400271 27.0884 0.24425C27.2846 0.0882282 27.5279 0.00318496 27.7786 0.00293796H73.3366C73.588 0.00196715 73.8322 0.0864781 74.0292 0.242641C74.2262 0.398805 74.3642 0.617298 74.4206 0.862259L81.0889 29.5295C81.1272 29.6926 81.128 29.8623 81.0912 30.0257C81.0544 30.1891 80.9808 30.342 80.8762 30.4728C80.7714 30.6031 80.6388 30.7084 80.488 30.781C80.3373 30.8535 80.1722 30.8914 80.0049 30.8919ZM22.5147 28.6672H78.6096L72.4593 2.22168H28.6559L22.5147 28.6672Z" fill="#F83718"/>
<path fill-rule="evenodd" clip-rule="evenodd" d="M71.9738 30.892H29.1555C28.9928 30.8915 28.8321 30.8554 28.6849 30.7862C28.5376 30.7169 28.4073 30.6163 28.3031 30.4913C28.1989 30.3662 28.1234 30.2199 28.0818 30.0626C28.0403 29.9052 28.0337 29.7407 28.0626 29.5805L33.2487 0.913275C33.2951 0.656615 33.4303 0.424443 33.6307 0.257471C33.8311 0.0904984 34.0838 -0.000641696 34.3446 3.40116e-06H66.7966C67.0573 -5.49962e-05 67.3097 0.0913305 67.51 0.258202C67.7102 0.425073 67.8456 0.656876 67.8926 0.913275L73.0787 29.5835C73.1071 29.7435 73.1001 29.9077 73.0583 30.0646C73.0165 30.2216 72.9409 30.3675 72.8368 30.4922C72.7327 30.6169 72.6026 30.7172 72.4556 30.7863C72.3086 30.8554 72.1482 30.8914 71.9857 30.892H71.9738ZM30.473 28.6673H70.6443L65.8534 2.22174H35.2609L30.473 28.6673Z" fill="#F83718"/>
<path fill-rule="evenodd" clip-rule="evenodd" d="M63.4811 30.892H37.6374C37.481 30.8926 37.3262 30.8601 37.1832 30.7965C37.0403 30.733 36.9124 30.6398 36.808 30.5233C36.7036 30.4067 36.6251 30.2694 36.5776 30.1203C36.5301 29.9713 36.5148 29.8138 36.5326 29.6584L39.6616 0.991125C39.6917 0.719011 39.8211 0.46755 40.0249 0.284735C40.2287 0.10192 40.4927 0.000540035 40.7664 0H60.3521C60.6259 0.000540035 60.8899 0.10192 61.0937 0.284735C61.2975 0.46755 61.4268 0.719011 61.457 0.991125L64.586 29.6584C64.6033 29.8137 64.5876 29.971 64.5399 30.1198C64.4923 30.2687 64.4137 30.4058 64.3094 30.5222C64.2052 30.6387 64.0775 30.7319 63.9347 30.7956C63.792 30.8593 63.6374 30.8921 63.4811 30.892ZM38.874 28.6673H62.2295L59.34 2.22174H41.7486L38.874 28.6673Z" fill="#F83718"/>
<path fill-rule="evenodd" clip-rule="evenodd" d="M55.1607 30.892H45.9593C45.8096 30.8921 45.6613 30.862 45.5235 30.8034C45.3858 30.7448 45.2612 30.6589 45.1574 30.5509C45.0537 30.4429 44.9728 30.3152 44.9197 30.1752C44.8666 30.0352 44.8424 29.8859 44.8484 29.7363L45.9623 1.06898C45.9731 0.7822 46.0945 0.510686 46.3011 0.311418C46.5076 0.112149 46.7832 0.000569442 47.0702 2.82181e-07H54.0439C54.3314 -0.000204489 54.6077 0.111046 54.8149 0.310394C55.0221 0.509743 55.1439 0.781683 55.1547 1.06898L56.2686 29.7363C56.2742 29.8855 56.2498 30.0344 56.1967 30.174C56.1436 30.3136 56.063 30.4411 55.9597 30.5489C55.8563 30.6568 55.7323 30.7427 55.595 30.8017C55.4578 30.8606 55.3101 30.8913 55.1607 30.892ZM47.1121 28.6673H53.9989L52.9719 2.22174H48.1362L47.1121 28.6673Z" fill="#F83718"/>
<path fill-rule="evenodd" clip-rule="evenodd" d="M65.718 45.058C65.4976 45.0582 65.2821 44.9928 65.0989 44.8702C64.9158 44.7476 64.7733 44.5733 64.6895 44.3694C64.6057 44.1656 64.5845 43.9414 64.6285 43.7255C64.6724 43.5095 64.7796 43.3114 64.9364 43.1566L77.3058 30.88H23.81L36.0866 43.0728C36.2958 43.2805 36.414 43.5627 36.4151 43.8576C36.4162 44.1524 36.3002 44.4355 36.0926 44.6448C35.9897 44.7484 35.8675 44.8307 35.7328 44.8871C35.5982 44.9434 35.4538 44.9728 35.3078 44.9733C35.013 44.9744 34.7298 44.8584 34.5206 44.6507L20.3186 30.5567C20.1618 30.4018 20.0546 30.2038 20.0106 29.9879C19.9666 29.7719 19.9879 29.5477 20.0717 29.3438C20.1555 29.14 20.298 28.9657 20.4811 28.8431C20.6643 28.7205 20.8798 28.6551 21.1002 28.6553H79.9917C80.2121 28.6551 80.4276 28.7205 80.6107 28.8431C80.7939 28.9657 80.9364 29.14 81.0202 29.3438C81.104 29.5477 81.1253 29.7719 81.0813 29.9879C81.0373 30.2038 80.9301 30.4018 80.7732 30.5567L66.4994 44.7585C66.2886 44.9575 66.0078 45.0651 65.718 45.058Z" fill="#F83718"/>
<path fill-rule="evenodd" clip-rule="evenodd" d="M50.4486 100.895C44.2948 100.896 38.279 99.0715 33.162 95.6531C28.045 92.2347 24.0566 87.3756 21.7012 81.6903C19.3459 76.0051 18.7293 69.7491 19.9295 63.7135C21.1297 57.6778 24.0927 52.1337 28.4439 47.7821C32.7951 43.4304 38.339 40.4668 44.3745 39.266C50.4101 38.0653 56.6661 38.6812 62.3516 41.0361C68.037 43.3909 72.8965 47.3788 76.3154 52.4955C79.7344 57.6122 81.5592 63.6278 81.5592 69.7816C81.5521 78.0308 78.2722 85.94 72.4394 91.7733C66.6067 97.6066 58.6978 100.887 50.4486 100.895ZM50.4486 40.8928C44.7341 40.8922 39.1477 42.5863 34.396 45.7607C29.6443 48.9351 25.9407 53.4474 23.7536 58.7268C21.5665 64.0062 20.9941 69.8157 22.1088 75.4204C23.2235 81.0252 25.9752 86.1735 30.016 90.2143C34.0568 94.255 39.2051 97.0068 44.8099 98.1215C50.4146 99.2362 56.224 98.6637 61.5034 96.4766C66.7829 94.2895 71.2951 90.5859 74.4696 85.8342C77.644 81.0825 79.3381 75.4962 79.3375 69.7816C79.3288 62.1225 76.2823 54.7796 70.8665 49.3638C65.4507 43.948 58.1078 40.9015 50.4486 40.8928Z" fill="#F83718"/>
<path fill-rule="evenodd" clip-rule="evenodd" d="M72.9507 70.8928C72.8047 70.8932 72.6601 70.8647 72.5252 70.809C72.3902 70.7533 72.2676 70.6715 72.1643 70.5683C72.0611 70.465 71.9793 70.3424 71.9236 70.2074C71.8679 70.0725 71.8394 69.9279 71.8398 69.7819C71.8327 64.1111 69.5766 58.6746 65.5665 54.665C61.5563 50.6554 56.1195 48.4 50.4487 48.3937C50.1637 48.3789 49.8952 48.2553 49.6987 48.0483C49.5021 47.8413 49.3926 47.5668 49.3926 47.2813C49.3926 46.9959 49.5021 46.7213 49.6987 46.5144C49.8952 46.3074 50.1637 46.1837 50.4487 46.1689C56.7078 46.18 62.7074 48.6714 67.1333 53.0972C71.5592 57.5231 74.0505 63.5228 74.0616 69.7819C74.0608 70.0763 73.9435 70.3584 73.7354 70.5665C73.5272 70.7747 73.2451 70.892 72.9507 70.8928Z" fill="#F83718"/>
<path fill-rule="evenodd" clip-rule="evenodd" d="M93.3323 27.7809C92.0135 27.7809 90.7242 27.3898 89.6276 26.6571C88.531 25.9243 87.6764 24.8829 87.1717 23.6644C86.667 22.4459 86.5349 21.1052 86.7922 19.8117C87.0495 18.5181 87.6846 17.33 88.6171 16.3974C89.5497 15.4648 90.7379 14.8298 92.0314 14.5725C93.3249 14.3152 94.6657 14.4472 95.8842 14.9519C97.1027 15.4566 98.1441 16.3113 98.8768 17.4079C99.6095 18.5045 100.001 19.7937 100.001 21.1126C99.999 22.8806 99.296 24.5758 98.0458 25.826C96.7956 27.0762 95.1004 27.7793 93.3323 27.7809ZM93.3323 16.6661C92.4529 16.6661 91.5932 16.9268 90.862 17.4154C90.1307 17.904 89.5608 18.5985 89.2242 19.411C88.8877 20.2235 88.7997 21.1175 88.9712 21.98C89.1428 22.8426 89.5663 23.6349 90.1882 24.2567C90.81 24.8786 91.6023 25.3021 92.4649 25.4737C93.3274 25.6452 94.2214 25.5571 95.0339 25.2206C95.8464 24.884 96.5409 24.3142 97.0295 23.5829C97.5181 22.8517 97.7789 21.992 97.7789 21.1126C97.7781 19.9335 97.3093 18.803 96.4756 17.9693C95.6419 17.1356 94.5114 16.6668 93.3323 16.6661Z" fill="#F83718"/>
<path fill-rule="evenodd" clip-rule="evenodd" d="M8.89299 61.1162C7.13458 61.1168 5.41551 60.5959 3.95316 59.6194C2.4908 58.6429 1.3509 57.2547 0.677573 55.6304C0.00424845 54.006 -0.172226 52.2183 0.17046 50.4937C0.513145 48.769 1.35956 47.1846 2.60273 45.941C3.8459 44.6974 5.42996 43.8505 7.15454 43.5072C8.87912 43.164 10.6668 43.3398 12.2914 44.0126C13.916 44.6854 15.3046 45.8248 16.2815 47.2869C17.2585 48.7489 17.78 50.4678 17.78 52.2262C17.7768 54.5825 16.8396 56.8414 15.1738 58.5078C13.5079 60.1743 11.2493 61.1122 8.89299 61.1162ZM8.89299 45.5459C7.57401 45.5453 6.28448 45.936 5.18749 46.6683C4.09051 47.4007 3.23531 48.4419 2.73015 49.6603C2.22498 50.8787 2.09254 52.2196 2.3495 53.5133C2.60646 54.807 3.24132 55.9955 4.17378 56.9284C5.10623 57.8612 6.29437 58.4966 7.58796 58.7542C8.88156 59.0117 10.2225 58.8798 11.4411 58.3752C12.6598 57.8706 13.7014 57.0159 14.4342 55.9193C15.1671 54.8226 15.5583 53.5332 15.5583 52.2142C15.5535 50.4487 14.8495 48.7571 13.6003 47.5096C12.3511 46.2621 10.6585 45.5603 8.89299 45.5579V45.5459Z" fill="#F83718"/>
</svg>
