<svg width="90" height="81" viewBox="0 0 90 81" fill="none" xmlns="http://www.w3.org/2000/svg">
<path fill-rule="evenodd" clip-rule="evenodd" d="M50.8607 70.0183C50.608 70.0183 50.3657 69.9181 50.1868 69.7397C50.0079 69.5612 49.907 69.3192 49.9062 69.0665V48.1219C49.9191 47.8779 50.0252 47.648 50.2026 47.4798C50.3799 47.3116 50.615 47.2178 50.8594 47.2178C51.1038 47.2178 51.3389 47.3116 51.5163 47.4798C51.6936 47.648 51.7997 47.8779 51.8126 48.1219V69.0665C51.8126 69.3189 51.7122 69.561 51.5337 69.7395C51.3552 69.918 51.1131 70.0183 50.8607 70.0183Z" fill="white"/>
<path fill-rule="evenodd" clip-rule="evenodd" d="M57.0475 70.0184H44.6637C44.5387 70.0184 44.4149 69.9938 44.2994 69.946C44.184 69.8981 44.0791 69.828 43.9907 69.7397C43.9023 69.6513 43.8322 69.5464 43.7844 69.4309C43.7366 69.3154 43.7119 69.1917 43.7119 69.0667V65.7765C39.6139 64.1187 36.2201 61.0872 34.1121 57.2016C32.004 53.316 31.313 48.8181 32.1575 44.4789C33.0019 40.1397 35.3293 36.2293 38.7406 33.4178C42.152 30.6063 46.435 29.0688 50.8556 29.0688C55.2762 29.0688 59.5593 30.6063 62.9706 33.4178C66.382 36.2293 68.7093 40.1397 69.5538 44.4789C70.3982 48.8181 69.7072 53.316 67.5991 57.2016C65.4911 61.0872 62.0972 64.1187 57.9992 65.7765V69.0667C57.9978 69.3191 57.8968 69.5608 57.7181 69.739C57.5393 69.9173 57.2974 70.0177 57.0449 70.0184H57.0475ZM45.6182 68.1122H56.093V65.1217C56.0936 64.926 56.1542 64.7351 56.2665 64.5749C56.3789 64.4147 56.5376 64.2928 56.7214 64.2256C60.5084 62.8468 63.6887 60.1779 65.7035 56.6876C67.7184 53.1972 68.4391 49.1085 67.7391 45.1396C67.0391 41.1707 64.9632 37.5753 61.8759 34.9848C58.7885 32.3943 54.8871 30.9744 50.8569 30.9744C46.8267 30.9744 42.9254 32.3943 39.8381 34.9848C36.7507 37.5753 34.6748 41.1707 33.9748 45.1396C33.2748 49.1085 33.9955 53.1972 36.0104 56.6876C38.0253 60.1779 41.2055 62.8468 44.9925 64.2256C45.1758 64.2932 45.3339 64.4153 45.4457 64.5755C45.5576 64.7357 45.6178 64.9263 45.6182 65.1217V68.1122Z" fill="white"/>
<path fill-rule="evenodd" clip-rule="evenodd" d="M75.1367 50.0178L68.9514 49.9966C68.699 49.9966 68.4569 49.8963 68.2784 49.7178C68.0999 49.5393 67.9996 49.2972 67.9996 49.0448C67.9996 48.7924 68.0999 48.5503 68.2784 48.3718C68.4569 48.1933 68.699 48.093 68.9514 48.093L75.134 48.1142C78.3636 48.0668 81.4448 46.7506 83.7119 44.45C85.9789 42.1494 87.2498 39.0492 87.2498 35.8192C87.2498 32.5893 85.9789 29.4891 83.7119 27.1885C81.4448 24.8879 78.3636 23.5717 75.134 23.5243C74.9166 23.5243 74.6859 23.5242 74.4288 23.5455C74.2422 23.5561 74.0567 23.5115 73.8954 23.4172C73.7341 23.3229 73.6042 23.183 73.5221 23.0152C72.5899 21.1297 71.2703 19.4621 69.6496 18.1214C68.0289 16.7807 66.1436 15.7971 64.1167 15.2349C62.0899 14.6726 59.9672 14.5444 57.8874 14.8585C55.8077 15.1727 53.8176 15.9221 52.0473 17.058C51.9287 17.1344 51.7948 17.1836 51.6549 17.2019C51.515 17.2202 51.3728 17.2072 51.2386 17.1638C51.1043 17.1204 50.9815 17.0477 50.8788 16.951C50.7761 16.8543 50.6961 16.736 50.6448 16.6046C48.8411 12.0277 45.497 8.22353 41.189 5.84809C36.881 3.47266 31.8792 2.67482 27.046 3.59214C22.2128 4.50946 17.8512 7.08445 14.7131 10.8731C11.575 14.6618 9.85723 19.4266 9.85594 24.3461C9.85598 25.5132 9.95176 26.6784 10.1423 27.8298C10.1814 28.0694 10.1278 28.3149 9.99238 28.5163C9.85693 28.7178 9.64984 28.86 9.4132 28.9142C7.09962 29.4386 5.06057 30.7976 3.68605 32.7311C2.31152 34.6646 1.698 37.0369 1.96282 39.3944C2.22765 41.7519 3.35218 43.929 5.12143 45.5093C6.89067 47.0897 9.18046 47.9623 11.5527 47.9604L31.5402 48.0135C31.7926 48.0135 32.0347 48.1138 32.2132 48.2923C32.3917 48.4708 32.492 48.7128 32.492 48.9653C32.492 49.2177 32.3917 49.4598 32.2132 49.6383C32.0347 49.8168 31.7926 49.917 31.5402 49.917L11.5527 49.8667C8.78814 49.8676 6.11487 48.8768 4.01874 47.0742C1.92261 45.2716 0.542654 42.7769 0.129632 40.0433C-0.28339 37.3097 0.297922 34.5187 1.76793 32.1773C3.23794 29.8359 5.49913 28.0995 8.14061 27.2837C7.72321 24.0379 8.00233 20.7404 8.95934 17.6109C9.91635 14.4815 11.5293 11.5919 13.6907 9.13474C15.8521 6.67757 18.5123 4.70923 21.4941 3.36087C24.476 2.0125 27.7109 1.31508 30.9834 1.31506C35.4201 1.31432 39.7626 2.59492 43.489 5.00295C47.2153 7.41099 50.1669 10.844 51.989 14.8893C53.9375 13.8164 56.0789 13.1396 58.29 12.8978C60.5012 12.656 62.7382 12.8541 64.8725 13.4805C67.0068 14.1069 68.9961 15.1493 70.7259 16.5477C72.4556 17.9461 73.8915 19.6729 74.9511 21.6286H75.1393C78.9054 21.6286 82.5172 23.1247 85.1801 25.7877C87.8431 28.4507 89.3392 32.0625 89.3392 35.8285C89.3392 39.5946 87.8431 43.2063 85.1801 45.8693C82.5172 48.5323 78.9054 50.0284 75.1393 50.0284L75.1367 50.0178Z" fill="white"/>
<path fill-rule="evenodd" clip-rule="evenodd" d="M17.5243 24.304C17.2718 24.304 17.0298 24.2037 16.8513 24.0252C16.6728 23.8467 16.5725 23.6046 16.5725 23.3522C16.5767 19.3123 18.1832 15.439 21.0396 12.5821C23.896 9.72517 27.7691 8.11796 31.809 8.11305C31.9384 8.10622 32.0678 8.12581 32.1894 8.17063C32.311 8.21544 32.4221 8.28455 32.5161 8.37372C32.6102 8.4629 32.685 8.57027 32.7362 8.68931C32.7873 8.80836 32.8137 8.93658 32.8137 9.06615C32.8137 9.19573 32.7873 9.32395 32.7362 9.44299C32.685 9.56204 32.6102 9.66942 32.5161 9.7586C32.4221 9.84778 32.311 9.91687 32.1894 9.96168C32.0678 10.0065 31.9384 10.0261 31.809 10.0193C28.2742 10.0235 24.8853 11.4295 22.3858 13.929C19.8863 16.4285 18.4803 19.8174 18.4761 23.3522C18.4764 23.4773 18.4521 23.6012 18.4043 23.7168C18.3566 23.8325 18.2865 23.9375 18.1981 24.026C18.1096 24.1144 18.0046 24.1845 17.8889 24.2322C17.7733 24.28 17.6493 24.3043 17.5243 24.304Z" fill="white"/>
<path fill-rule="evenodd" clip-rule="evenodd" d="M79.4295 11.9228C78.2997 11.9223 77.1953 11.5868 76.2561 10.9586C75.3169 10.3305 74.5849 9.43805 74.1529 8.39402C73.7209 7.34999 73.6081 6.20132 73.8289 5.09321C74.0496 3.9851 74.594 2.96733 75.3932 2.16856C76.1923 1.3698 77.2104 0.825922 78.3186 0.605686C79.4268 0.385449 80.5753 0.498737 81.6191 0.931245C82.6629 1.36375 83.5551 2.09606 84.1828 3.03556C84.8105 3.97506 85.1456 5.07958 85.1456 6.20946C85.1435 7.72455 84.5405 9.17694 83.4689 10.248C82.3973 11.3191 80.9446 11.9214 79.4295 11.9228ZM79.4295 2.39965C78.676 2.39965 77.9394 2.6231 77.3128 3.04173C76.6863 3.46035 76.1981 4.05535 75.9097 4.7515C75.6213 5.44765 75.5459 6.21367 75.6929 6.9527C75.8399 7.69173 76.2028 8.37056 76.7356 8.90337C77.2684 9.43618 77.9472 9.79904 78.6862 9.94604C79.4252 10.093 80.1913 10.0176 80.8874 9.72924C81.5836 9.44088 82.1786 8.95257 82.5973 8.32606C83.0159 7.69954 83.2394 6.96296 83.2394 6.20946C83.2387 5.19925 82.837 4.23063 82.1227 3.5163C81.4084 2.80198 80.4397 2.40036 79.4295 2.39965Z" fill="white"/>
<path fill-rule="evenodd" clip-rule="evenodd" d="M11.8117 80.4964C10.3046 80.4969 8.8311 80.0504 7.57772 79.2135C6.32434 78.3766 5.34731 77.1868 4.77019 75.7945C4.19308 74.4023 4.04185 72.8701 4.33555 71.3919C4.62926 69.9137 5.3547 68.5557 6.42021 67.4899C7.48572 66.424 8.84343 65.698 10.3216 65.4038C11.7997 65.1096 13.3318 65.2603 14.7243 65.8369C16.1167 66.4136 17.3069 67.3902 18.1443 68.6433C18.9817 69.8964 19.4286 71.3697 19.4286 72.8768C19.4258 74.8963 18.6225 76.8323 17.1947 78.2606C15.7669 79.6889 13.8312 80.4928 11.8117 80.4964ZM11.8117 67.1608C10.6811 67.1602 9.57563 67.495 8.63529 68.1228C7.69495 68.7506 6.96192 69.6431 6.52888 70.6875C6.09585 71.7319 5.98228 72.8813 6.20253 73.9903C6.42279 75.0992 6.96697 76.118 7.76627 76.9176C8.56556 77.7173 9.58402 78.262 10.6929 78.4827C11.8018 78.7035 12.9512 78.5905 13.9958 78.1579C15.0405 77.7254 15.9333 76.9927 16.5615 76.0527C17.1897 75.1126 17.525 74.0074 17.525 72.8768C17.5236 71.3617 16.9213 69.909 15.8503 68.8374C14.7792 67.7659 13.3268 67.1629 11.8117 67.1608Z" fill="white"/>
<path fill-rule="evenodd" clip-rule="evenodd" d="M57.9697 74.7804H43.7486C42.8648 74.7804 42.0171 74.4293 41.3921 73.8043C40.7671 73.1793 40.416 72.3317 40.416 71.4478C40.416 70.564 40.7671 69.7163 41.3921 69.0913C42.0171 68.4664 42.8648 68.1152 43.7486 68.1152H57.9697C58.8536 68.1152 59.7012 68.4664 60.3262 69.0913C60.9512 69.7163 61.3023 70.564 61.3023 71.4478C61.3023 72.3317 60.9512 73.1793 60.3262 73.8043C59.7012 74.4293 58.8536 74.7804 57.9697 74.7804ZM43.746 70.0082C43.367 70.0082 43.0035 70.1588 42.7355 70.4268C42.4675 70.6947 42.3169 71.0582 42.3169 71.4372C42.3169 71.8162 42.4675 72.1797 42.7355 72.4477C43.0035 72.7156 43.367 72.8662 43.746 72.8662H57.9697C58.3487 72.8662 58.7121 72.7156 58.9801 72.4477C59.2481 72.1797 59.3986 71.8162 59.3986 71.4372C59.3986 71.0582 59.2481 70.6947 58.9801 70.4268C58.7121 70.1588 58.3487 70.0082 57.9697 70.0082H43.746Z" fill="white"/>
<path fill-rule="evenodd" clip-rule="evenodd" d="M57.9687 79.5436H43.7476C43.3019 79.5562 42.8581 79.4792 42.4426 79.3174C42.0272 79.1555 41.6484 78.9119 41.3287 78.6011C41.009 78.2903 40.7548 77.9185 40.5813 77.5078C40.4077 77.097 40.3184 76.6556 40.3184 76.2097C40.3184 75.7638 40.4077 75.3224 40.5813 74.9117C40.7548 74.5009 41.009 74.1292 41.3287 73.8184C41.6484 73.5075 42.0272 73.264 42.4426 73.1021C42.8581 72.9402 43.3019 72.8633 43.7476 72.8758H57.9687C58.4144 72.8633 58.8581 72.9402 59.2736 73.1021C59.6891 73.264 60.0678 73.5075 60.3876 73.8184C60.7073 74.1292 60.9615 74.5009 61.135 74.9117C61.3086 75.3224 61.3979 75.7638 61.3979 76.2097C61.3979 76.6556 61.3086 77.097 61.135 77.5078C60.9615 77.9185 60.7073 78.2903 60.3876 78.6011C60.0678 78.9119 59.6891 79.1555 59.2736 79.3174C58.8581 79.4792 58.4144 79.5562 57.9687 79.5436ZM43.7449 74.7714C43.5523 74.7631 43.3599 74.7939 43.1795 74.8619C42.999 74.9299 42.8342 75.0337 42.6949 75.1671C42.5557 75.3005 42.4448 75.4607 42.3691 75.6381C42.2934 75.8154 42.2544 76.0063 42.2544 76.1991C42.2544 76.3919 42.2934 76.5828 42.3691 76.7602C42.4448 76.9375 42.5557 77.0977 42.6949 77.2311C42.8342 77.3645 42.999 77.4683 43.1795 77.5363C43.3599 77.6043 43.5523 77.6351 43.7449 77.6268H57.9687C58.1614 77.6351 58.3537 77.6043 58.5342 77.5363C58.7146 77.4683 58.8794 77.3645 59.0187 77.2311C59.158 77.0977 59.2687 76.9375 59.3444 76.7602C59.4201 76.5828 59.4592 76.3919 59.4592 76.1991C59.4592 76.0063 59.4201 75.8154 59.3444 75.6381C59.2687 75.4607 59.158 75.3005 59.0187 75.1671C58.8794 75.0337 58.7146 74.9299 58.5342 74.8619C58.3537 74.7939 58.1614 74.7631 57.9687 74.7714H43.7449Z" fill="white"/>
<path fill-rule="evenodd" clip-rule="evenodd" d="M53.716 51.9199C52.9625 51.9199 52.2259 51.6964 51.5994 51.2778C50.9729 50.8592 50.4846 50.2642 50.1963 49.568C49.9079 48.8719 49.8324 48.1058 49.9794 47.3668C50.1264 46.6278 50.4893 45.949 51.0221 45.4161C51.5549 44.8833 52.2338 44.5205 52.9728 44.3735C53.7118 44.2265 54.4779 44.3019 55.174 44.5903C55.8702 44.8787 56.4651 45.367 56.8837 45.9935C57.3024 46.62 57.5258 47.3566 57.5258 48.1101C57.5251 49.1203 57.1235 50.0889 56.4091 50.8032C55.6948 51.5176 54.7262 51.9192 53.716 51.9199Z" fill="white"/>
<path fill-rule="evenodd" clip-rule="evenodd" d="M48.0012 51.9199C47.2477 51.9199 46.5111 51.6964 45.8846 51.2778C45.2581 50.8592 44.7697 50.2642 44.4813 49.568C44.193 48.8719 44.1176 48.1058 44.2646 47.3668C44.4116 46.6278 44.7744 45.949 45.3073 45.4161C45.8401 44.8833 46.5188 44.5205 47.2579 44.3735C47.9969 44.2265 48.7629 44.3019 49.4591 44.5903C50.1552 44.8787 50.7503 45.367 51.1689 45.9935C51.5875 46.62 51.811 47.3566 51.811 48.1101C51.8096 49.1201 51.4077 50.0883 50.6936 50.8025C49.9794 51.5166 49.0112 51.9185 48.0012 51.9199Z" fill="white"/>
</svg>
