<svg width="85" height="86" viewBox="0 0 85 86" fill="none" xmlns="http://www.w3.org/2000/svg">
<path fill-rule="evenodd" clip-rule="evenodd" d="M43.4995 85.496H13.8496C13.7196 85.4963 13.5909 85.471 13.4708 85.4214C13.3507 85.3718 13.2415 85.299 13.1496 85.2071C13.0577 85.1152 12.985 85.0061 12.9354 84.886C12.8858 84.7659 12.8604 84.6371 12.8608 84.5072V56.8324C12.854 56.6985 12.8745 56.5647 12.9211 56.439C12.9677 56.3133 13.0394 56.1983 13.1317 56.1012C13.2241 56.004 13.3352 55.9267 13.4584 55.8738C13.5816 55.8209 13.7143 55.7937 13.8483 55.7937C13.9824 55.7937 14.1151 55.8209 14.2383 55.8738C14.3615 55.9267 14.4726 56.004 14.5649 56.1012C14.6573 56.1983 14.729 56.3133 14.7756 56.439C14.8221 56.5647 14.8427 56.6985 14.8359 56.8324V83.5184H42.5107V39.041C42.5107 38.7787 42.6148 38.5272 42.8002 38.3417C42.9857 38.1563 43.2372 38.0522 43.4995 38.0522C43.7617 38.0522 44.0133 38.1563 44.1987 38.3417C44.3842 38.5272 44.4883 38.7787 44.4883 39.041V84.5072C44.4876 84.7692 44.3833 85.0203 44.198 85.2056C44.0127 85.3909 43.7615 85.4953 43.4995 85.496Z" fill="white"/>
<path fill-rule="evenodd" clip-rule="evenodd" d="M35.5924 57.8217H3.95985C3.78772 57.8218 3.6186 57.7769 3.46914 57.6915C3.31967 57.6062 3.19503 57.4832 3.10763 57.3349C3.02024 57.1867 2.97307 57.0181 2.97079 56.846C2.96851 56.6739 3.01115 56.5041 3.09458 56.3536L12.9779 38.5621C13.0646 38.409 13.1904 38.2816 13.3424 38.1929C13.4944 38.1043 13.6672 38.0576 13.8432 38.0576H43.4931C43.6578 38.0575 43.8198 38.0987 43.9645 38.1773C44.1092 38.2559 44.2319 38.3694 44.3214 38.5076C44.411 38.6458 44.4645 38.8042 44.4771 38.9684C44.4897 39.1326 44.461 39.2973 44.3936 39.4475L36.5006 57.2339C36.4233 57.4089 36.2967 57.5577 36.1364 57.6621C35.976 57.7664 35.7888 57.8219 35.5975 57.8217H35.5924ZM5.64495 55.8465H34.9517L41.9796 40.0328H14.4308L5.64495 55.8465Z" fill="white"/>
<path fill-rule="evenodd" clip-rule="evenodd" d="M43.5 77.5871H13.8501C13.5879 77.5871 13.3363 77.4829 13.1509 77.2974C12.9655 77.112 12.8613 76.8604 12.8613 76.5982C12.8613 76.3359 12.9655 76.0845 13.1509 75.899C13.3363 75.7136 13.5879 75.6094 13.8501 75.6094H43.5C43.7623 75.6094 44.0138 75.7136 44.1993 75.899C44.3847 76.0845 44.4889 76.3359 44.4889 76.5982C44.4889 76.8604 44.3847 77.112 44.1993 77.2974C44.0138 77.4829 43.7623 77.5871 43.5 77.5871Z" fill="white"/>
<path fill-rule="evenodd" clip-rule="evenodd" d="M73.1543 85.4961H43.5044C43.2422 85.4961 42.9906 85.3919 42.8052 85.2064C42.6198 85.021 42.5156 84.7695 42.5156 84.5073V39.0411C42.5156 38.7788 42.6198 38.5273 42.8052 38.3418C42.9906 38.1564 43.2422 38.0522 43.5044 38.0522C43.7667 38.0522 44.0182 38.1564 44.2037 38.3418C44.3891 38.5273 44.4933 38.7788 44.4933 39.0411V83.5184H72.1655V56.8325C72.1655 56.5703 72.2697 56.3187 72.4551 56.1333C72.6405 55.9478 72.8921 55.8436 73.1543 55.8436C73.4166 55.8436 73.6681 55.9478 73.8536 56.1333C74.039 56.3187 74.1432 56.5703 74.1432 56.8325V84.5073C74.1425 84.7693 74.0381 85.0204 73.8528 85.2057C73.6675 85.391 73.4164 85.4954 73.1543 85.4961Z" fill="white"/>
<path fill-rule="evenodd" clip-rule="evenodd" d="M83.0363 57.8199H51.4087C51.2174 57.82 51.0302 57.7646 50.8698 57.6602C50.7095 57.5559 50.5829 57.4071 50.5056 57.2321L42.6 39.4431C42.5325 39.2927 42.5039 39.1278 42.5166 38.9634C42.5294 38.799 42.5831 38.6404 42.6729 38.5022C42.7628 38.3639 42.8858 38.2504 43.0309 38.172C43.1759 38.0935 43.3382 38.0527 43.5031 38.0532H73.153C73.3286 38.0531 73.5012 38.0999 73.6528 38.1885C73.8045 38.2772 73.9297 38.4046 74.0157 38.5577L83.9015 56.3492C83.9841 56.4999 84.0262 56.6694 84.0236 56.8413C84.0209 57.0131 83.9736 57.1813 83.8863 57.3293C83.7991 57.4774 83.6749 57.6002 83.5258 57.6858C83.3768 57.7713 83.2082 57.8166 83.0363 57.8173V57.8199ZM52.052 55.8447H81.3563L72.5753 40.0309H45.0217L52.052 55.8447Z" fill="white"/>
<path fill-rule="evenodd" clip-rule="evenodd" d="M73.1543 77.5871H43.5044C43.2422 77.5871 42.9906 77.4829 42.8052 77.2974C42.6198 77.112 42.5156 76.8604 42.5156 76.5982C42.5156 76.3359 42.6198 76.0845 42.8052 75.899C42.9906 75.7136 43.2422 75.6094 43.5044 75.6094H73.1543C73.4166 75.6094 73.6681 75.7136 73.8536 75.899C74.039 76.0845 74.1432 76.3359 74.1432 76.5982C74.1432 76.8604 74.039 77.112 73.8536 77.2974C73.6681 77.4829 73.4166 77.5871 73.1543 77.5871Z" fill="white"/>
<path fill-rule="evenodd" clip-rule="evenodd" d="M22.9708 39.6635C22.7754 39.6633 22.5844 39.6052 22.422 39.4966C22.2595 39.3879 22.1329 39.2335 22.0581 39.053C21.9834 38.8724 21.9639 38.6737 22.002 38.482C22.0401 38.2903 22.134 38.1142 22.2721 37.976L26.1114 34.1341C25.6296 33.2008 25.2246 32.2298 24.9005 31.2307H19.4771C19.215 31.23 18.964 31.1256 18.7787 30.9403C18.5934 30.755 18.4889 30.5039 18.4883 30.2418V20.3838C18.4883 20.1215 18.5925 19.87 18.778 19.6846C18.9634 19.4991 19.2148 19.3949 19.4771 19.3949H24.8981C25.2202 18.3963 25.6243 17.426 26.1064 16.494L22.262 12.6497C22.0767 12.4638 21.9727 12.2121 21.9727 11.9497C21.9727 11.6872 22.0767 11.4355 22.262 11.2497L29.2343 4.2799C29.3258 4.18771 29.4346 4.11458 29.5546 4.06478C29.6745 4.01498 29.8032 3.98954 29.9331 3.98983C30.0625 3.98973 30.1907 4.01529 30.3102 4.06509C30.4297 4.11488 30.5382 4.1879 30.6293 4.2799L34.4736 8.12424C35.4066 7.64348 36.3767 7.23856 37.3745 6.91341V1.48494C37.3752 1.22289 37.4796 0.971767 37.6649 0.786469C37.8502 0.601171 38.1013 0.49676 38.3634 0.496094H48.2215C48.4835 0.49676 48.7347 0.601171 48.92 0.786469C49.1053 0.971767 49.2096 1.22289 49.2103 1.48494V6.90836C50.2095 7.23195 51.1807 7.63693 52.1138 8.11919L55.953 4.2799C56.1388 4.09459 56.3905 3.99051 56.653 3.99051C56.9154 3.99051 57.1673 4.09459 57.3531 4.2799L64.3228 11.2497C64.4148 11.3413 64.4878 11.4502 64.5376 11.5701C64.5874 11.69 64.613 11.8185 64.613 11.9484C64.613 12.0782 64.5874 12.2068 64.5376 12.3267C64.4878 12.4466 64.4148 12.5555 64.3228 12.6471L60.481 16.4915C60.961 17.4245 61.365 18.3946 61.6893 19.3924H67.1178C67.2478 19.3921 67.3764 19.4175 67.4966 19.467C67.6167 19.5166 67.7259 19.5894 67.8178 19.6813C67.9097 19.7732 67.9824 19.8823 68.032 20.0025C68.0816 20.1226 68.107 20.2513 68.1066 20.3813V30.2393C68.107 30.3692 68.0816 30.498 68.032 30.6181C67.9824 30.7382 67.9097 30.8474 67.8178 30.9393C67.7259 31.0312 67.6167 31.104 67.4966 31.1536C67.3764 31.2032 67.2478 31.2285 67.1178 31.2282H61.6968C61.3728 32.2281 60.9679 33.2 60.4861 34.1341L64.3253 37.9734C64.417 38.0654 64.4899 38.1744 64.5395 38.2945C64.5891 38.4145 64.6145 38.5432 64.6144 38.673C64.6143 38.8029 64.5886 38.9315 64.5387 39.0515C64.4889 39.1714 64.416 39.2804 64.3241 39.3722C64.2321 39.4639 64.123 39.5367 64.0029 39.5863C63.8829 39.6359 63.7543 39.6614 63.6244 39.6612C63.4946 39.6611 63.366 39.6354 63.2461 39.5856C63.1261 39.5358 63.0171 39.4629 62.9253 39.3709L58.5664 35.012C58.4131 34.859 58.3142 34.6598 58.285 34.4451C58.2558 34.2305 58.298 34.0123 58.405 33.8239C59.0951 32.6103 59.6339 31.3166 60.0093 29.972C60.0681 29.7646 60.1931 29.5821 60.3652 29.4523C60.5374 29.3225 60.7473 29.2525 60.9628 29.253H66.129V21.3701H60.9704C60.7548 21.3703 60.5451 21.2999 60.3734 21.1696C60.2016 21.0393 60.0773 20.8563 60.0194 20.6486C59.6413 19.3065 59.1026 18.0148 58.4151 16.8017C58.3088 16.6138 58.2669 16.3963 58.2956 16.1823C58.3243 15.9683 58.422 15.7695 58.574 15.6162L62.2316 11.9509L56.6594 6.37614L52.9941 10.0414C52.8409 10.1937 52.6422 10.2917 52.4281 10.3204C52.214 10.3491 51.9964 10.3069 51.8086 10.2003C50.5952 9.51085 49.3025 8.97132 47.9591 8.59346C47.7514 8.53557 47.5685 8.41122 47.4382 8.23947C47.3079 8.06772 47.2375 7.85804 47.2377 7.64246V2.47378H39.3548V7.64751C39.355 7.86308 39.2845 8.07277 39.1542 8.24452C39.0239 8.41627 38.841 8.54062 38.6333 8.59851C37.2922 8.97725 36.0014 9.51586 34.7889 10.2028C34.6007 10.3097 34.3827 10.352 34.1682 10.3233C33.9536 10.2946 33.7544 10.1965 33.6008 10.0439L29.9432 6.37614L24.3709 11.9484L28.0387 15.6162C28.191 15.7693 28.289 15.9681 28.3177 16.1822C28.3464 16.3963 28.3042 16.6139 28.1976 16.8017C27.51 18.0148 26.9714 19.3065 26.5933 20.6486C26.5354 20.8563 26.411 21.0393 26.2393 21.1696C26.0675 21.2999 25.8579 21.3703 25.6423 21.3701H20.4685V29.253H25.6346C25.8502 29.2525 26.06 29.3225 26.2321 29.4523C26.4043 29.5821 26.5294 29.7646 26.5882 29.972C26.9645 31.3159 27.5041 32.6087 28.195 33.8214C28.2987 34.0106 28.339 34.2281 28.3099 34.4419C28.2809 34.6558 28.1841 34.8547 28.0336 35.0095L23.6722 39.3709C23.5808 39.4641 23.4716 39.538 23.3512 39.5883C23.2307 39.6385 23.1013 39.6641 22.9708 39.6635Z" fill="white"/>
<path fill-rule="evenodd" clip-rule="evenodd" d="M43.3128 21.1035C42.4801 21.1025 41.6658 21.3485 40.9729 21.8103C40.28 22.2721 39.7397 22.9289 39.4201 23.6979C39.1005 24.4668 39.0161 25.3132 39.1776 26.1301C39.339 26.9469 39.739 27.6976 40.3271 28.2871C40.9152 28.8766 41.6649 29.2784 42.4814 29.4419C43.2979 29.6053 44.1446 29.5229 44.9142 29.2052C45.6839 28.8875 46.3421 28.3487 46.8055 27.6569C47.269 26.9651 47.5168 26.1513 47.5178 25.3187C47.5165 24.2029 47.0734 23.1331 46.2854 22.3432C45.4974 21.5533 44.4285 21.1075 43.3128 21.1035Z" fill="white"/>
<path fill-rule="evenodd" clip-rule="evenodd" d="M43.3104 36.4646C41.1031 36.4676 38.9444 35.8156 37.1078 34.5912C35.2712 33.3667 33.8391 31.6249 32.9929 29.5862C32.1467 27.5475 31.9243 25.3035 32.354 23.1384C32.7837 20.9733 33.8463 18.9843 35.4069 17.4233C36.9676 15.8622 38.9563 14.7994 41.1213 14.3692C43.2864 13.939 45.5303 14.1608 47.5692 15.0065C49.6081 15.8523 51.3502 17.284 52.5751 19.1203C53.7999 20.9567 54.4525 23.1152 54.45 25.3225C54.4433 28.2751 53.2676 31.1049 51.1801 33.1929C49.0925 35.2809 46.263 36.4573 43.3104 36.4646ZM43.3104 31.4977C44.5344 31.4967 45.7306 31.1328 46.7476 30.4519C47.7647 29.771 48.557 28.8038 49.0243 27.6726C49.4917 26.5414 49.6131 25.297 49.3731 24.0968C49.1332 22.8967 48.5427 21.7946 47.6763 20.9301C46.81 20.0655 45.7067 19.4772 44.5061 19.2397C43.3054 19.0022 42.0613 19.1262 40.931 19.5958C39.8008 20.0655 38.8351 20.8598 38.1564 21.8782C37.4776 22.8967 37.1162 24.0935 37.1177 25.3175C37.1197 26.9581 37.7731 28.5308 38.9344 29.6898C40.0957 30.8487 41.6698 31.499 43.3104 31.4977Z" fill="white"/>
<path fill-rule="evenodd" clip-rule="evenodd" d="M77.1121 12.3571C75.9391 12.3571 74.7925 12.0092 73.8173 11.3576C72.842 10.7059 72.0819 9.77971 71.6331 8.69606C71.1842 7.61241 71.0668 6.41997 71.2956 5.26957C71.5244 4.11917 72.0892 3.0625 72.9186 2.23311C73.748 1.40371 74.8047 0.838884 75.9551 0.610055C77.1055 0.381226 78.298 0.498647 79.3816 0.947512C80.4653 1.39638 81.3915 2.1565 82.0431 3.13176C82.6948 4.10702 83.0425 5.25364 83.0425 6.42658C83.0405 7.99883 82.4151 9.50608 81.3033 10.6178C80.1916 11.7296 78.6843 12.3551 77.1121 12.3571ZM77.1121 10.5307C77.9238 10.5307 78.7173 10.2901 79.3922 9.83908C80.0671 9.38811 80.5933 8.74713 80.9039 7.99719C81.2145 7.24725 81.2958 6.42204 81.1374 5.62591C80.9791 4.82978 80.5881 4.09847 80.0141 3.52449C79.4401 2.95051 78.7089 2.55966 77.9128 2.4013C77.1167 2.24294 76.2915 2.32419 75.5415 2.63483C74.7916 2.94546 74.1506 3.47151 73.6996 4.14644C73.2487 4.82137 73.0079 5.61485 73.0079 6.42658C73.0092 7.51466 73.442 8.5578 74.2114 9.32719C74.9808 10.0966 76.024 10.5294 77.1121 10.5307Z" fill="white"/>
<path fill-rule="evenodd" clip-rule="evenodd" d="M7.91825 25.2072C6.35374 25.2092 4.82385 24.7471 3.52204 23.8793C2.22022 23.0116 1.20496 21.7772 0.604863 20.3323C0.00476625 18.8875 -0.153265 17.2971 0.150733 15.7624C0.45473 14.2278 1.20718 12.8177 2.31275 11.7107C3.41832 10.6037 4.82731 9.84951 6.36162 9.54356C7.89592 9.2376 9.4865 9.39365 10.9321 9.9919C12.3777 10.5902 13.6135 11.6037 14.4829 12.9045C15.3523 14.2052 15.8163 15.7346 15.8163 17.2991C15.8137 19.3956 14.9796 21.4055 13.4971 22.888C12.0147 24.3705 10.0047 25.2045 7.90815 25.2072H7.91825ZM7.91825 23.3809C9.12123 23.3814 10.2973 23.0251 11.2978 22.3571C12.2983 21.6892 13.0782 20.7395 13.5389 19.6282C13.9996 18.517 14.1205 17.294 13.8861 16.1141C13.6517 14.9342 13.0727 13.8502 12.2222 12.9994C11.3717 12.1486 10.288 11.5691 9.1082 11.3343C7.92837 11.0994 6.70535 11.2196 5.59389 11.6799C4.48244 12.1401 3.53245 12.9197 2.86406 13.9199C2.19567 14.9201 1.83891 16.0961 1.83891 17.2991C1.84091 18.911 2.48197 20.4564 3.62156 21.5964C4.76115 22.7365 6.3063 23.3782 7.91825 23.3809Z" fill="white"/>
</svg>
