<svg width="88" height="86" viewBox="0 0 88 86" fill="none" xmlns="http://www.w3.org/2000/svg">
<path fill-rule="evenodd" clip-rule="evenodd" d="M73.0875 85.4198H17.7813C17.6515 85.4215 17.5225 85.3976 17.4019 85.3495C17.2813 85.3014 17.1713 85.23 17.0783 85.1394C16.9853 85.0488 16.9111 84.9408 16.8598 84.8215C16.8085 84.7022 16.7812 84.5739 16.7795 84.4441V1.48483C16.7795 1.22261 16.8837 0.971119 17.0691 0.785696C17.2546 0.600274 17.5061 0.496094 17.7683 0.496094H73.0744C73.3362 0.496784 73.587 0.601272 73.7719 0.78662C73.9567 0.971968 74.0606 1.22306 74.0606 1.48483V84.4441C74.0606 84.7056 73.9567 84.9564 73.7717 85.1414C73.5868 85.3263 73.336 85.4302 73.0744 85.4302L73.0875 85.4198ZM18.7649 83.4449H72.0988V2.45268H18.7649V83.4449Z" fill="white"/>
<path fill-rule="evenodd" clip-rule="evenodd" d="M41.2282 32.5508C41.0975 32.5533 40.9677 32.5296 40.8463 32.4812C40.7249 32.4329 40.6143 32.3607 40.5212 32.269L34.5862 26.3314C33.9382 25.6835 33.5742 24.8047 33.5742 23.8883C33.5742 22.972 33.9382 22.0931 34.5862 21.4452C35.2342 20.7972 36.113 20.4332 37.0293 20.4332C37.9457 20.4332 38.8245 20.7972 39.4724 21.4452L41.2177 23.1878L52.0441 12.364C52.6924 11.7154 53.5719 11.3508 54.489 11.3506C55.4061 11.3503 56.2857 11.7144 56.9343 12.3627C57.583 13.011 57.9475 13.8904 57.9478 14.8075C57.948 15.7246 57.5839 16.6042 56.9356 17.2529L41.9273 32.269C41.7407 32.4518 41.4893 32.5531 41.2282 32.5508Z" fill="white"/>
<path fill-rule="evenodd" clip-rule="evenodd" d="M34.5684 49.8617H26.6664C26.5365 49.862 26.4078 49.8367 26.2876 49.7872C26.1675 49.7376 26.0584 49.6648 25.9665 49.5729C25.8746 49.481 25.8018 49.3719 25.7523 49.2518C25.7027 49.1317 25.6774 49.0029 25.6777 48.873V40.9736C25.6777 40.7114 25.7819 40.4599 25.9673 40.2745C26.1527 40.089 26.4042 39.9849 26.6664 39.9849H34.5684C34.8302 39.9856 35.081 40.09 35.2659 40.2754C35.4508 40.4607 35.5545 40.7118 35.5545 40.9736V48.873C35.5549 49.0027 35.5296 49.1312 35.4802 49.2512C35.4308 49.3711 35.3583 49.4801 35.2667 49.572C35.1751 49.6638 35.0662 49.7367 34.9464 49.7864C34.8266 49.8361 34.6981 49.8617 34.5684 49.8617ZM27.6525 47.8869H33.5797V41.9597H27.6525V47.8869Z" fill="white"/>
<path fill-rule="evenodd" clip-rule="evenodd" d="M58.2718 43.9374H39.5042C39.242 43.9374 38.9905 43.8332 38.8051 43.6478C38.6197 43.4624 38.5155 43.2109 38.5155 42.9487C38.5155 42.6864 38.6197 42.4349 38.8051 42.2495C38.9905 42.0641 39.242 41.96 39.5042 41.96H58.2718C58.4057 41.9531 58.5397 41.9735 58.6655 42.02C58.7913 42.0665 58.9062 42.1381 59.0035 42.2305C59.1007 42.3229 59.1782 42.4341 59.2311 42.5573C59.284 42.6805 59.3113 42.8133 59.3113 42.9474C59.3113 43.0815 59.284 43.2142 59.2311 43.3374C59.1782 43.4607 59.1007 43.5719 59.0035 43.6642C58.9062 43.7566 58.7913 43.8282 58.6655 43.8747C58.5397 43.9212 58.4057 43.9417 58.2718 43.9348V43.9374Z" fill="white"/>
<path fill-rule="evenodd" clip-rule="evenodd" d="M66.1741 48.8727H39.5045C39.2514 48.8597 39.0129 48.75 38.8384 48.5662C38.6638 48.3825 38.5665 48.1387 38.5665 47.8853C38.5665 47.6318 38.6638 47.3881 38.8384 47.2043C39.0129 47.0206 39.2514 46.9108 39.5045 46.8978H66.1741C66.4272 46.9108 66.6656 47.0206 66.8401 47.2043C67.0147 47.3881 67.112 47.6318 67.112 47.8853C67.112 48.1387 67.0147 48.3825 66.8401 48.5662C66.6656 48.75 66.4272 48.8597 66.1741 48.8727Z" fill="white"/>
<path fill-rule="evenodd" clip-rule="evenodd" d="M34.5684 62.7028H26.6664C26.5367 62.7032 26.4082 62.6779 26.2883 62.6285C26.1683 62.5791 26.0593 62.5065 25.9675 62.4149C25.8756 62.3233 25.8027 62.2145 25.753 62.0947C25.7033 61.9749 25.6777 61.8464 25.6777 61.7167V53.8147C25.6777 53.685 25.7033 53.5565 25.753 53.4367C25.8027 53.3169 25.8756 53.2081 25.9675 53.1165C26.0593 53.0249 26.1683 52.9523 26.2883 52.9029C26.4082 52.8535 26.5367 52.8283 26.6664 52.8286H34.5684C34.83 52.8286 35.0808 52.9325 35.2657 53.1174C35.4506 53.3024 35.5545 53.5532 35.5545 53.8147V61.7167C35.5545 61.9783 35.4506 62.2291 35.2657 62.414C35.0808 62.5989 34.83 62.7028 34.5684 62.7028Z" fill="white"/>
<path fill-rule="evenodd" clip-rule="evenodd" d="M58.2721 56.7757H39.5045C39.2514 56.7627 39.0129 56.653 38.8384 56.4693C38.6638 56.2855 38.5665 56.0418 38.5665 55.7883C38.5665 55.5349 38.6638 55.2911 38.8384 55.1074C39.0129 54.9236 39.2514 54.8139 39.5045 54.8009H58.2721C58.406 54.794 58.5399 54.8144 58.6657 54.861C58.7915 54.9075 58.9065 54.9791 59.0037 55.0715C59.101 55.1638 59.1785 55.275 59.2314 55.3983C59.2843 55.5215 59.3116 55.6542 59.3116 55.7883C59.3116 55.9224 59.2843 56.0552 59.2314 56.1784C59.1785 56.3016 59.101 56.4128 59.0037 56.5052C58.9065 56.5975 58.7915 56.6692 58.6657 56.7157C58.5399 56.7622 58.406 56.7826 58.2721 56.7757Z" fill="white"/>
<path fill-rule="evenodd" clip-rule="evenodd" d="M66.1741 61.7145H39.5045C39.2514 61.7015 39.0129 61.5918 38.8384 61.408C38.6638 61.2243 38.5665 60.9805 38.5665 60.7271C38.5665 60.4736 38.6638 60.2299 38.8384 60.0461C39.0129 59.8624 39.2514 59.7527 39.5045 59.7397H66.1741C66.4272 59.7527 66.6656 59.8624 66.8401 60.0461C67.0147 60.2299 67.112 60.4736 67.112 60.7271C67.112 60.9805 67.0147 61.2243 66.8401 61.408C66.6656 61.5918 66.4272 61.7015 66.1741 61.7145Z" fill="white"/>
<path fill-rule="evenodd" clip-rule="evenodd" d="M34.5684 75.5433H26.6664C26.5365 75.5437 26.4078 75.5184 26.2876 75.4688C26.1675 75.4192 26.0584 75.3464 25.9665 75.2545C25.8746 75.1626 25.8018 75.0535 25.7523 74.9334C25.7027 74.8133 25.6774 74.6845 25.6777 74.5546V66.6552C25.6777 66.393 25.7819 66.1415 25.9673 65.9561C26.1527 65.7707 26.4042 65.6665 26.6664 65.6665H34.5684C34.8302 65.6672 35.081 65.7717 35.2659 65.957C35.4508 66.1423 35.5545 66.3935 35.5545 66.6552V74.5546C35.5549 74.6843 35.5296 74.8129 35.4802 74.9328C35.4308 75.0527 35.3583 75.1617 35.2667 75.2536C35.1751 75.3454 35.0662 75.4183 34.9464 75.468C34.8266 75.5178 34.6981 75.5433 34.5684 75.5433Z" fill="white"/>
<path fill-rule="evenodd" clip-rule="evenodd" d="M49.389 69.6158H39.5122C39.3782 69.6227 39.2443 69.6023 39.1185 69.5558C38.9927 69.5092 38.8777 69.4376 38.7805 69.3453C38.6832 69.2529 38.6058 69.1417 38.5529 69.0185C38.5 68.8952 38.4727 68.7625 38.4727 68.6284C38.4727 68.4943 38.5 68.3615 38.5529 68.2383C38.6058 68.1151 38.6832 68.0039 38.7805 67.9115C38.8777 67.8191 38.9927 67.7475 39.1185 67.701C39.2443 67.6545 39.3782 67.6341 39.5122 67.641H49.389C49.523 67.6341 49.6569 67.6545 49.7827 67.701C49.9085 67.7475 50.0235 67.8191 50.1208 67.9115C50.218 68.0039 50.2954 68.1151 50.3483 68.2383C50.4013 68.3615 50.4285 68.4943 50.4285 68.6284C50.4285 68.7625 50.4013 68.8952 50.3483 69.0185C50.2954 69.1417 50.218 69.2529 50.1208 69.3453C50.0235 69.4376 49.9085 69.5092 49.7827 69.5558C49.6569 69.6023 49.523 69.6227 49.389 69.6158Z" fill="white"/>
<path fill-rule="evenodd" clip-rule="evenodd" d="M56.2972 74.5549H39.5045C39.2514 74.5419 39.0129 74.4321 38.8384 74.2484C38.6638 74.0646 38.5665 73.8209 38.5665 73.5675C38.5665 73.314 38.6638 73.0703 38.8384 72.8865C39.0129 72.7028 39.2514 72.5931 39.5045 72.58H56.2972C56.4311 72.5732 56.5651 72.5936 56.6909 72.6401C56.8167 72.6866 56.9317 72.7582 57.0289 72.8506C57.1262 72.943 57.2036 73.0542 57.2565 73.1774C57.3094 73.3006 57.3367 73.4334 57.3367 73.5675C57.3367 73.7016 57.3094 73.8343 57.2565 73.9575C57.2036 74.0808 57.1262 74.1919 57.0289 74.2843C56.9317 74.3767 56.8167 74.4483 56.6909 74.4948C56.5651 74.5413 56.4311 74.5618 56.2972 74.5549Z" fill="white"/>
<path fill-rule="evenodd" clip-rule="evenodd" d="M82.9635 19.2433C81.9868 19.2433 81.0321 18.9537 80.2199 18.4111C79.4078 17.8685 78.7748 17.0972 78.401 16.1948C78.0273 15.2924 77.9295 14.2994 78.12 13.3415C78.3106 12.3835 78.7809 11.5036 79.4716 10.813C80.1622 10.1223 81.0421 9.65196 82.0001 9.46141C82.9581 9.27086 83.951 9.36866 84.8534 9.74244C85.7558 10.1162 86.5271 10.7492 87.0697 11.5613C87.6123 12.3734 87.902 13.3282 87.902 14.3049C87.9006 15.6143 87.3798 16.8696 86.454 17.7954C85.5282 18.7212 84.2729 19.242 82.9635 19.2433ZM82.9635 11.344C82.3774 11.344 81.8044 11.5178 81.3171 11.8434C80.8297 12.1691 80.4499 12.6319 80.2256 13.1734C80.0013 13.715 79.9426 14.3108 80.0569 14.8857C80.1713 15.4606 80.4535 15.9886 80.868 16.4031C81.2825 16.8176 81.8105 17.0998 82.3854 17.2142C82.9603 17.3285 83.5562 17.2698 84.0977 17.0455C84.6392 16.8212 85.102 16.4414 85.4277 15.954C85.7533 15.4667 85.9272 14.8937 85.9272 14.3076C85.9272 13.5216 85.6149 12.7678 85.0591 12.212C84.5033 11.6562 83.7495 11.344 82.9635 11.344Z" fill="white"/>
<path fill-rule="evenodd" clip-rule="evenodd" d="M6.91325 74.554C5.54593 74.554 4.20931 74.1485 3.07243 73.3889C1.93555 72.6293 1.0495 71.5496 0.526255 70.2863C0.00300591 69.0231 -0.133914 67.6331 0.132836 66.292C0.399586 64.951 1.058 63.7192 2.02484 62.7523C2.99168 61.7855 4.22348 61.1271 5.56453 60.8603C6.90557 60.5936 8.29561 60.7305 9.55884 61.2537C10.8221 61.777 11.9018 62.6631 12.6614 63.7999C13.4211 64.9368 13.8265 66.2734 13.8265 67.6407C13.8244 69.4736 13.0955 71.2308 11.7994 72.5269C10.5034 73.8229 8.74612 74.5519 6.91325 74.554ZM6.91325 62.7023C5.93578 62.7018 4.98016 62.9912 4.16721 63.5339C3.35426 64.0767 2.72052 64.8483 2.34622 65.7513C1.97193 66.6543 1.87389 67.648 2.06446 68.6067C2.25502 69.5654 2.72563 70.446 3.4168 71.1372C4.10798 71.8283 4.98866 72.299 5.94737 72.4896C6.90608 72.6801 7.89974 72.5821 8.8027 72.2078C9.70566 71.8335 10.4773 71.1997 11.02 70.3868C11.5628 69.5739 11.8522 68.6182 11.8517 67.6407C11.8469 66.3325 11.325 65.0792 10.3999 64.1541C9.47485 63.229 8.22152 62.7071 6.91325 62.7023Z" fill="white"/>
</svg>
