<svg width="84" height="86" viewBox="0 0 84 86" fill="none" xmlns="http://www.w3.org/2000/svg">
<path d="M25.221 11.7031H45.7693C46.0175 11.7031 46.2555 11.8017 46.431 11.9772C46.6065 12.1527 46.7051 12.3908 46.7051 12.639V29.4514C46.7051 29.6996 46.6065 29.9377 46.431 30.1132C46.2555 30.2887 46.0175 30.3872 45.7693 30.3872H25.221C24.9728 30.3872 24.7348 30.2887 24.5593 30.1132C24.3838 29.9377 24.2852 29.6996 24.2852 29.4514V12.639C24.2848 12.516 24.3088 12.3941 24.3557 12.2805C24.4026 12.1668 24.4716 12.0634 24.5585 11.9765C24.6455 11.8895 24.7488 11.8206 24.8625 11.7737C24.9762 11.7268 25.098 11.7028 25.221 11.7031Z" fill="white"/>
<path fill-rule="evenodd" clip-rule="evenodd" d="M65.387 35.0547H25.2212C24.9818 35.0422 24.7562 34.9384 24.5911 34.7644C24.426 34.5905 24.334 34.3599 24.334 34.1201C24.334 33.8803 24.426 33.6497 24.5911 33.4758C24.7562 33.3019 24.9818 33.198 25.2212 33.1855H65.387C65.6264 33.198 65.8519 33.3019 66.017 33.4758C66.1821 33.6497 66.2742 33.8803 66.2742 34.1201C66.2742 34.3599 66.1821 34.5905 66.017 34.7644C65.8519 34.9384 65.6264 35.0422 65.387 35.0547Z" fill="white"/>
<path fill-rule="evenodd" clip-rule="evenodd" d="M65.387 39.7232H25.2212C24.9818 39.7107 24.7562 39.6068 24.5911 39.4329C24.426 39.259 24.334 39.0283 24.334 38.7885C24.334 38.5488 24.426 38.3182 24.5911 38.1443C24.7562 37.9703 24.9818 37.8664 25.2212 37.854H65.387C65.6264 37.8664 65.8519 37.9703 66.017 38.1443C66.1821 38.3182 66.2742 38.5488 66.2742 38.7885C66.2742 39.0283 66.1821 39.259 66.017 39.4329C65.8519 39.6068 65.6264 39.7107 65.387 39.7232Z" fill="white"/>
<path fill-rule="evenodd" clip-rule="evenodd" d="M47.6398 44.3954H25.2224C24.9748 44.3954 24.7375 44.2971 24.5624 44.1221C24.3874 43.947 24.2891 43.7097 24.2891 43.4621C24.2891 43.2146 24.3874 42.9772 24.5624 42.8021C24.7375 42.6271 24.9748 42.5288 25.2224 42.5288H47.6398C47.8874 42.5288 48.1247 42.6271 48.2998 42.8021C48.4748 42.9772 48.5731 43.2146 48.5731 43.4621C48.5731 43.7097 48.4748 43.947 48.2998 44.1221C48.1247 44.2971 47.8874 44.3954 47.6398 44.3954Z" fill="white"/>
<path fill-rule="evenodd" clip-rule="evenodd" d="M47.6387 49.0571H25.2212C24.9818 49.0447 24.7562 48.9408 24.5911 48.7669C24.426 48.593 24.334 48.3623 24.334 48.1225C24.334 47.8827 24.426 47.6521 24.5911 47.4782C24.7562 47.3043 24.9818 47.2004 25.2212 47.188H47.6387C47.8781 47.2004 48.1037 47.3043 48.2688 47.4782C48.4339 47.6521 48.5259 47.8827 48.5259 48.1225C48.5259 48.3623 48.4339 48.593 48.2688 48.7669C48.1037 48.9408 47.8781 49.0447 47.6387 49.0571Z" fill="white"/>
<path fill-rule="evenodd" clip-rule="evenodd" d="M47.6398 53.7348H25.2224C24.9748 53.7348 24.7375 53.6365 24.5624 53.4615C24.3874 53.2864 24.2891 53.0491 24.2891 52.8015C24.2891 52.554 24.3874 52.3166 24.5624 52.1415C24.7375 51.9665 24.9748 51.8682 25.2224 51.8682H47.6398C47.8874 51.8682 48.1247 51.9665 48.2998 52.1415C48.4748 52.3166 48.5731 52.554 48.5731 52.8015C48.5731 53.0491 48.4748 53.2864 48.2998 53.4615C48.1247 53.6365 47.8874 53.7348 47.6398 53.7348Z" fill="white"/>
<path fill-rule="evenodd" clip-rule="evenodd" d="M47.6387 58.4073H25.2212C24.9818 58.3948 24.7562 58.291 24.5911 58.117C24.426 57.9431 24.334 57.7125 24.334 57.4727C24.334 57.2329 24.426 57.0022 24.5911 56.8283C24.7562 56.6544 24.9818 56.5505 25.2212 56.5381H47.6387C47.8781 56.5505 48.1037 56.6544 48.2688 56.8283C48.4339 57.0022 48.5259 57.2329 48.5259 57.4727C48.5259 57.7125 48.4339 57.9431 48.2688 58.117C48.1037 58.291 47.8781 58.3948 47.6387 58.4073Z" fill="white"/>
<path fill-rule="evenodd" clip-rule="evenodd" d="M57.8201 85.4941H11.2119C11.1741 85.4968 11.1361 85.4968 11.0983 85.4941H10.7452C8.39247 85.4914 6.13686 84.5556 4.47322 82.892C2.80957 81.2283 1.87376 78.9727 1.87109 76.62V37.8568C1.87176 37.6097 1.97037 37.373 2.14533 37.1985C2.32029 37.024 2.55731 36.926 2.8044 36.926H17.7451V1.42941C17.7451 1.30663 17.7694 1.18507 17.8165 1.07166C17.8635 0.958264 17.9324 0.855277 18.0194 0.768577C18.1063 0.681877 18.2095 0.613182 18.323 0.566426C18.4366 0.519671 18.5582 0.495765 18.681 0.496097H72.8541C72.9769 0.495765 73.0985 0.519671 73.212 0.566426C73.3255 0.613182 73.4288 0.681877 73.5157 0.768577C73.6026 0.855277 73.6716 0.958264 73.7187 1.07166C73.7657 1.18507 73.7899 1.30663 73.7899 1.42941V69.5216C73.7839 73.7564 72.0989 77.816 69.1042 80.8102C66.1096 83.8044 62.0498 85.4887 57.815 85.4941H57.8201ZM16.1837 83.6275H57.8201C61.5595 83.6221 65.1442 82.1342 67.7884 79.49C70.4326 76.8458 71.9205 73.2611 71.9258 69.5216V2.36524H19.6168V76.62C19.6169 77.9725 19.3077 79.3071 18.7126 80.5217C18.1176 81.7363 17.2525 82.7986 16.1837 83.6275ZM3.73772 38.7926V76.6301C3.72004 77.5613 3.8882 78.4868 4.23236 79.3523C4.57652 80.2178 5.08976 81.006 5.7421 81.6708C6.39444 82.3356 7.1728 82.8638 8.03162 83.2243C8.89045 83.5848 9.81256 83.7705 10.744 83.7705C11.6754 83.7705 12.5975 83.5848 13.4563 83.2243C14.3151 82.8638 15.0935 82.3356 15.7458 81.6708C16.3981 81.006 16.9114 80.2178 17.2555 79.3523C17.5997 78.4868 17.7679 77.5613 17.7502 76.6301V38.7926H3.73772Z" fill="white"/>
<path fill-rule="evenodd" clip-rule="evenodd" d="M78.4613 85.4952C77.5372 85.4957 76.6338 85.2221 75.8652 84.7091C75.0966 84.1961 74.4974 83.4666 74.1434 82.613C73.7894 81.7594 73.6966 80.82 73.8766 79.9136C74.0565 79.0073 74.5013 78.1746 75.1545 77.521C75.8078 76.8674 76.6402 76.4223 77.5465 76.2418C78.4527 76.0613 79.3922 76.1537 80.2459 76.5072C81.0997 76.8607 81.8295 77.4595 82.3429 78.2278C82.8564 78.9961 83.1304 79.8994 83.1304 80.8235C83.1291 82.0617 82.6368 83.2488 81.7615 84.1245C80.8863 85.0003 79.6994 85.4932 78.4613 85.4952ZM78.4613 78.021C77.9069 78.0205 77.3648 78.1845 76.9036 78.4921C76.4424 78.7997 76.0828 79.2372 75.8703 79.7493C75.6578 80.2613 75.602 80.8249 75.7098 81.3687C75.8177 81.9125 76.0844 82.4121 76.4762 82.8043C76.8681 83.1965 77.3674 83.4636 77.9111 83.5719C78.4548 83.6803 79.0184 83.625 79.5306 83.4129C80.0429 83.2009 80.4808 82.8417 80.7888 82.3808C81.0969 81.9199 81.2613 81.3779 81.2613 80.8235C81.2606 80.0809 80.9655 79.3688 80.4406 78.8435C79.9157 78.3181 79.2039 78.0224 78.4613 78.021Z" fill="white"/>
<path fill-rule="evenodd" clip-rule="evenodd" d="M6.53835 23.8474C5.24519 23.8474 3.98107 23.4639 2.90585 22.7454C1.83063 22.027 0.99259 21.0058 0.497721 19.8111C0.00285176 18.6164 -0.126654 17.3018 0.125628 16.0335C0.37791 14.7652 1.00062 13.6001 1.91502 12.6857C2.82942 11.7713 3.99444 11.1486 5.26275 10.8963C6.53106 10.6441 7.84574 10.7736 9.04046 11.2684C10.2352 11.7633 11.2563 12.6013 11.9747 13.6765C12.6931 14.7517 13.0766 16.0159 13.0766 17.309C13.0713 19.0414 12.3808 20.7014 11.1558 21.9264C9.93074 23.1514 8.27078 23.842 6.53835 23.8474ZM6.53835 12.6399C5.61427 12.6399 4.71093 12.914 3.94263 13.4274C3.17432 13.9408 2.57553 14.6706 2.22202 15.5244C1.86851 16.3781 1.77613 17.3176 1.95659 18.2239C2.13705 19.1302 2.58229 19.9626 3.23588 20.6158C3.88948 21.2691 4.72212 21.7138 5.6285 21.8938C6.53488 22.0737 7.47427 21.9808 8.32786 21.6269C9.18145 21.2729 9.91086 20.6737 10.4239 19.9052C10.9369 19.1366 11.2105 18.2331 11.21 17.309C11.2087 16.0706 10.716 14.8834 9.84007 14.008C8.96418 13.1326 7.77671 12.6405 6.53835 12.6399Z" fill="white"/>
</svg>
